# This file uses centimeters as units for non-parametric coordinates.

v -9.911116 0.000000 9.534298
v 9.911089 0.000000 9.534298
v -9.911116 27.882418 7.126051
v 9.911089 27.882418 7.126051
v -9.911116 27.882418 -7.126040
v 9.911089 27.882418 -7.126040
v -9.911116 0.000000 -9.534287
v 9.911089 0.000000 -9.534287
v 7.135986 0.000000 9.534297
v 2.973331 27.882418 7.126051
v 2.973331 27.882418 -7.126040
v -2.973357 27.882418 -7.126040
v -2.973357 27.882418 7.126051
v -7.135999 27.882418 -7.126040
v -7.135999 27.882418 7.126051
v -7.135973 0.000000 9.534297
v -7.135973 0.000000 -9.534287
v 7.135986 27.882418 7.126051
v 7.135986 27.882418 -7.126040
v 7.135986 0.000000 -9.534287
v -9.911116 8.858586 9.534298
v -7.135973 8.858586 9.534297
v 7.135986 8.858586 9.534297
v 9.911089 8.858586 9.534298
v 9.911089 26.095158 -9.534287
v 7.135986 26.095158 -9.534287
v -7.135973 26.095158 -9.534287
v -9.911116 26.095158 -9.534287
v -7.135973 27.882418 -9.534287
v -2.973357 27.882418 -9.534287
v 2.973331 27.882418 -9.534287
v 7.135986 27.882418 -9.534287
v 9.911089 27.882418 -9.534287
v 9.911089 10.925590 9.534298
v 7.135986 10.925590 9.534298
v 2.973331 10.925590 9.534298
v -2.973357 10.925590 9.534298
v -7.135973 10.925590 9.534298
v -9.911116 10.925590 9.534298
v -9.911116 27.882418 -9.534287
v 2.973331 27.882418 9.534298
v 7.135986 27.882418 9.534298
v -7.135973 27.882418 9.534298
v -2.973357 27.882418 9.534298
v 11.007402 10.925590 10.630571
v 11.007402 8.858586 10.630571
v 11.007402 27.882418 -11.289068
v 11.007402 26.095158 -11.289068
v -11.007429 26.095158 -11.289068
v -11.007429 27.882418 -11.289068
v -11.007429 10.925590 10.630571
v -11.007429 8.858586 10.630571
v 7.135986 26.095158 -7.931548
v 7.135986 0.000000 -7.931548
v -7.135973 0.000000 -7.931548
v -7.135973 26.095158 -7.931548
v 6.379887 25.289799 -7.931548
v 6.379887 0.000000 -7.931548
v -6.379913 0.000000 -7.931548
v -6.379913 25.289799 -7.931548
v 6.379887 24.601278 -7.931548
v -6.379913 24.601278 -7.931548
v 6.379887 25.289799 -8.904638
v 6.379887 24.601278 -8.904638
v -6.379913 24.601278 -8.904638
v -6.379913 25.289799 -8.904638
v 5.992397 0.000000 -7.931548
v 5.992397 24.601278 -7.931548
v -5.992424 0.000000 -7.931548
v -5.992424 24.601278 -7.931548
v 11.007402 27.882418 -9.534287
v 11.007402 26.095158 -9.534287
v -11.007428 26.095158 -9.534287
v -11.007429 27.882418 -9.534287
v 11.007402 10.925590 9.534298
v 11.007402 8.858586 9.534298
v -11.007428 10.925590 9.534298
v -11.007428 8.858586 9.534298
v -7.135973 -0.000000 15.022919
v 7.135986 -0.000000 15.022919
v 7.135986 8.858586 15.022919
v -7.135973 8.858586 15.022919
v 6.238496 8.858586 10.630571
v -6.238483 8.858586 10.630571
v -6.238483 8.858586 14.164480
v 6.238496 8.858586 14.164480
v 6.238496 8.194736 10.630571
v -6.238483 8.194736 10.630571
v -6.238483 8.194736 14.164480
v 6.238496 8.194736 14.164480
v -7.135973 7.086869 9.534297
v -7.135973 7.086869 15.022919
v 7.135986 7.086869 15.022919
v 7.135986 7.086869 9.534297
vt 0.201050 0.062012
vt 0.231301 0.062346
vt 0.268334 0.062012
vt 0.201050 0.062012
vt 0.265825 0.062346
vt 0.268334 0.062012
vt 0.231301 0.062346
vt 0.201050 0.062012
vt 0.201050 0.062012
vt 0.201050 0.062012
vt 0.201050 0.062012
vt 0.268334 0.062012
vt 0.265825 0.062346
vt 0.231301 0.062346
vt 0.268334 0.062012
vt 0.231301 0.062346
vt 0.201050 0.062012
vt 0.231301 0.062346
vt 0.231301 0.062346
vt 0.201050 0.062012
vt 0.268334 0.062012
vt 0.143428 0.063628
vt 0.204557 0.063628
vt 0.202356 0.062012
vt 0.268334 0.062012
vt 0.202356 0.062012
vt 0.204557 0.063628
vt 0.204557 0.063628
vt 0.202356 0.062012
vt 0.268334 0.062012
vt 0.143428 0.063628
vt 0.231301 0.062346
vt 0.198973 0.062346
vt 0.202356 0.062012
vt 0.204557 0.063628
vt 0.268334 0.062012
vt 0.231301 0.062346
vt 0.201050 0.062012
vt 0.112246 0.064804
vt 0.231301 0.062346
vt 0.113794 0.064470
vt 0.201050 0.062012
vt 0.198973 0.062346
vt 0.113794 0.064470
vt 0.231301 0.062346
vt 0.265825 0.062346
vt 0.169520 0.062707
vt 0.199996 0.063041
vt 0.201050 0.062012
vt 0.143428 0.063628
vt 0.175756 0.063628
vt 0.143428 0.063628
vt 0.175756 0.063628
vt 0.174950 0.062707
vt 0.231301 0.062346
vt 0.201050 0.062012
vt 0.141760 0.062346
vt 0.175756 0.063628
vt 0.204557 0.063628
vt 0.175756 0.063628
vt 0.204557 0.063628
vt 0.204557 0.063628
vt 0.204557 0.063628
vt 0.199996 0.063041
vt 0.170466 0.063041
vt 0.140215 0.062707
vt 0.113794 0.064470
vt 0.140215 0.062707
vt 0.201932 0.062707
vt 0.140215 0.062707
vt 0.196501 0.062707
vt 0.140215 0.062707
vt 0.113794 0.064470
vt 0.170466 0.063041
vt 0.170466 0.063041
vt 0.112246 0.064804
vt 0.170466 0.063041
vt 0.231301 0.062346
vt 0.198973 0.062346
vt 0.231301 0.062346
vt 0.198973 0.062346
vt 0.231301 0.062346
vt 0.198973 0.062346
vt 0.198973 0.062346
vt 0.231301 0.062346
vt 0.231301 0.062346
vt 0.198973 0.062346
vt 0.231301 0.062346
vt 0.198973 0.062346
vt 0.231301 0.062346
vt 0.140215 0.062707
vt 0.170466 0.063041
vt 0.196501 0.062707
vt 0.140215 0.062707
vt 0.170466 0.063041
vt 0.113794 0.064470
vt 0.140215 0.062707
vt 0.170466 0.063041
vt 0.113794 0.064470
vt 0.112246 0.064804
vt 0.140215 0.062707
vt 0.170466 0.063041
vt 0.201932 0.062707
vt 0.199996 0.063041
vt 0.231301 0.062346
vt 0.113794 0.064470
vt 0.201050 0.062012
vt 0.199996 0.063041
vt 0.231301 0.062346
vt 0.196501 0.062707
vt 0.201050 0.062012
vt 0.112246 0.064804
vt 0.265825 0.062346
vt 0.201932 0.062707
vt 0.201050 0.062012
vt 0.231301 0.062346
vt 0.113794 0.064470
vt 0.201050 0.062012
vt 0.204557 0.063628
vt 0.265825 0.062346
vt 0.265825 0.062346
vt 0.202356 0.062012
vt 0.204557 0.063628
vt 0.265825 0.062346
vt 0.268334 0.062012
vt 0.265825 0.062346
vt 0.265825 0.062346
vt 0.204557 0.063628
vt 0.265825 0.062346
vt 0.202356 0.062012
vt 0.204557 0.063628
vt 0.265825 0.062346
vt 0.268334 0.062012
vt 0.265825 0.062346
vt 0.143428 0.063628
vt 0.204557 0.063628
vt 0.143428 0.063628
vt 0.175756 0.063628
vt 0.231301 0.062346
vt 0.199996 0.063041
vt 0.175756 0.063628
vt 0.268334 0.062012
vt 0.231301 0.062346
vt 0.143428 0.063628
vt 0.199996 0.063041
vt 0.231301 0.062346
vt 0.143428 0.063628
vt 0.231301 0.062346
vt 0.202356 0.062012
vt 0.204557 0.063628
vt 0.143428 0.063628
vt 0.204557 0.063628
vt 0.143428 0.063628
vt 0.175756 0.063628
vt 0.231301 0.062346
vt 0.199996 0.063041
vt 0.175756 0.063628
vt 0.268334 0.062012
vt 0.231301 0.062346
vt 0.143428 0.063628
vt 0.199996 0.063041
vt 0.231301 0.062346
vt 0.143428 0.063628
vt 0.231301 0.062346
vt 0.202356 0.062012
vt 0.204557 0.063628
vt 0.231301 0.062346
vt 0.112246 0.064804
vt 0.231301 0.062346
vt 0.231301 0.062346
vt 0.112246 0.064804
vt 0.205818 0.062346
vt 0.141131 0.062346
vt 0.231301 0.062346
vt 0.209085 0.061039
vt 0.202551 0.062346
vt 0.115648 0.062346
vt 0.141131 0.062346
vt 0.171841 0.062346
vt 0.115648 0.062346
vt 0.141131 0.062346
vt 0.202551 0.062346
vt 0.202551 0.062346
vt 0.141131 0.062346
vt 0.231301 0.062346
vt 0.202551 0.062346
vt 0.115648 0.062346
vt 0.171841 0.062346
vt 0.141131 0.062346
vt 0.231301 0.062346
vt 0.141131 0.062346
vt 0.141131 0.062346
vt 0.141131 0.062346
vt 0.231301 0.062346
vt 0.171841 0.062346
vt 0.171841 0.062346
vt 0.115648 0.062346
vt 0.209085 0.061039
vt 0.231301 0.062346
vt 0.209085 0.061039
vt 0.209085 0.061039
vt 0.231301 0.062346
vt 0.209085 0.061039
vt 0.115648 0.062346
vt 0.209085 0.061039
vt 0.999063 0.812817
vt 0.115648 0.062346
vt 0.999063 0.810217
vt 0.209085 0.061039
vt 0.209085 0.061039
vt 0.715744 0.810217
vt 0.715744 0.812817
vt 0.140215 0.062707
vt 0.169520 0.062707
vt 0.140215 0.062707
vt 0.113794 0.064470
vt 0.140215 0.062707
vt 0.113794 0.064470
vt 0.140215 0.062707
vt 0.201932 0.062707
vt 0.140215 0.062707
vt 0.196501 0.062707
vt 0.140215 0.062707
vt 0.113794 0.064470
vt 0.140215 0.062707
vt 0.174950 0.062707
vt 0.140215 0.062707
vt 0.113794 0.064470
vt 0.204504 0.061344
vt 0.204504 0.061344
vt 0.204504 0.061344
vt 0.204504 0.061344
vt 0.204504 0.061344
vt 0.204504 0.061344
vt 0.204504 0.061344
vt 0.204504 0.061344
vt 0.201932 0.062707
vt 0.201932 0.062707
vt 0.174950 0.062707
vt 0.169520 0.062707
vt 0.169520 0.062707
vt 0.174950 0.062707
vt 0.196501 0.062707
vt 0.196501 0.062707
vt 0.231301 0.062346
vt 0.205818 0.062346
vt 0.141760 0.062346
vt 0.141760 0.062346
vt 0.195466 0.062346
vt 0.195466 0.062346
vt 0.195466 0.062346
vt 0.141760 0.062346
vt 0.205818 0.062346
vt 0.167243 0.062346
vt 0.231301 0.062346
vt 0.167242 0.062346
vt 0.205818 0.062346
vt 0.141362 0.062346
vt 0.111383 0.062346
vt 0.141362 0.062346
vt 0.111383 0.062346
vt 0.196824 0.062346
vt 0.111383 0.062346
vt 0.141362 0.062346
vt 0.111383 0.062346
vt 0.141362 0.062346
vt 0.196824 0.062346
vt 0.196824 0.062346
vt 0.196824 0.062346
vt 0.195466 0.062346
vt 0.195466 0.062346
vt 0.195466 0.062346
vt 0.195466 0.062346
vt 0.195466 0.062346
vt 0.195466 0.062346
vt 0.195466 0.062346
vt 0.195466 0.062346
vt 0.195466 0.062346
vt 0.111383 0.062346
vt 0.141362 0.062346
vt 0.141362 0.062346
vt 0.141362 0.062346
vt 0.111383 0.062346
vt 0.111383 0.062346
vt 0.141362 0.062346
vt 0.111383 0.062346
vt 0.231301 0.062346
vt 0.205818 0.062346
vt 0.205818 0.062346
vt 0.231301 0.062346
vt 0.231301 0.062346
vt 0.205818 0.062346
vt 0.141760 0.062346
vt 0.231301 0.062346
vt 0.167242 0.062346
vt 0.141760 0.062346
vt 0.205818 0.062346
vt 0.141760 0.062346
vt 0.167243 0.062346
vt 0.141760 0.062346
vn 0.000000 0.000000 1.000000
vn 0.000000 0.000000 1.000000
vn 0.000000 0.000000 1.000000
vn 0.000000 0.000000 1.000000
vn 0.000000 1.000000 0.000000
vn 0.000000 1.000000 0.000000
vn 0.000000 1.000000 0.000000
vn 0.000000 1.000000 0.000000
vn 0.000000 0.000000 -1.000000
vn 0.000000 0.000000 -1.000000
vn 0.000000 0.000000 -1.000000
vn 0.000000 0.000000 -1.000000
vn 1.000000 0.000000 0.000000
vn 1.000000 0.000000 0.000000
vn 1.000000 0.000000 0.000000
vn 1.000000 0.000000 0.000000
vn -1.000000 0.000000 0.000000
vn -1.000000 -0.000000 -0.000000
vn -1.000000 -0.000000 -0.000000
vn -1.000000 0.000000 0.000000
vn 0.000000 1.000000 0.000000
vn 0.000000 1.000000 0.000000
vn 0.000000 1.000000 0.000000
vn 0.000000 1.000000 0.000000
vn 0.000000 1.000000 0.000000
vn 0.000000 1.000000 0.000000
vn 0.000000 1.000000 0.000000
vn 0.000000 1.000000 0.000000
vn 0.000000 1.000000 0.000000
vn 0.000000 1.000000 0.000000
vn 0.000000 1.000000 0.000000
vn 0.000000 1.000000 0.000000
vn 0.000000 1.000000 0.000000
vn 0.000000 1.000000 0.000000
vn 0.000000 1.000000 0.000000
vn 0.000000 1.000000 0.000000
vn -1.000000 0.000000 0.000000
vn -1.000000 0.000000 0.000000
vn -1.000000 0.000000 0.000000
vn -1.000000 0.000000 0.000000
vn 0.000001 0.000000 1.000000
vn 0.000001 0.000000 1.000000
vn 0.000001 0.000000 1.000000
vn 0.000001 0.000000 1.000000
vn 0.000001 0.000000 1.000000
vn -0.000001 0.000000 1.000000
vn -0.000001 0.000000 1.000000
vn -0.000001 0.000000 1.000000
vn -0.000001 0.000000 1.000000
vn -0.000001 0.000000 1.000000
vn 1.000000 0.000000 0.000000
vn 1.000000 0.000000 0.000000
vn 1.000000 0.000000 0.000000
vn 1.000000 0.000000 0.000000
vn 0.000000 0.000000 -1.000000
vn 0.000000 0.000000 -1.000000
vn 0.000000 0.000000 -1.000000
vn 0.000000 0.000000 -1.000000
vn 0.000000 0.000000 -1.000000
vn 0.000000 0.000000 -1.000000
vn 0.000000 0.000000 -1.000000
vn 0.000000 0.000000 -1.000000
vn 0.000000 0.000000 -1.000000
vn 0.000000 0.000000 -1.000000
vn 0.000000 0.000000 -1.000000
vn 0.000000 0.000000 -1.000000
vn 0.000000 1.000000 0.000000
vn 0.000000 1.000000 0.000000
vn 0.000000 1.000000 0.000000
vn 0.000000 1.000000 0.000000
vn 0.000000 1.000000 0.000000
vn 0.000000 1.000000 0.000000
vn 0.000000 1.000000 0.000000
vn 0.000000 1.000000 0.000000
vn 1.000000 0.000000 0.000000
vn 1.000000 0.000000 0.000000
vn 1.000000 0.000000 0.000000
vn 1.000000 0.000000 0.000000
vn 0.000000 0.140611 0.990065
vn 0.000000 0.140611 0.990065
vn 0.000000 0.140611 0.990065
vn 0.000000 0.140611 0.990065
vn 0.000000 0.000000 1.000000
vn 0.000000 0.000000 1.000000
vn 0.000000 0.000000 1.000000
vn 0.000000 0.000000 1.000000
vn 0.000000 0.140611 0.990065
vn 0.000000 0.140611 0.990065
vn 0.000000 0.140611 0.990065
vn 0.000000 0.140611 0.990065
vn 0.000000 0.000000 1.000000
vn 0.000000 0.000000 1.000000
vn 0.000000 0.000000 1.000000
vn 0.000000 0.000000 1.000000
vn 0.000000 0.140611 0.990065
vn 0.000000 0.140611 0.990065
vn 0.000000 0.140611 0.990065
vn 0.000000 0.140611 0.990065
vn -1.000000 0.000000 0.000000
vn -1.000000 0.000000 0.000000
vn -1.000000 0.000000 0.000000
vn -1.000000 0.000000 0.000000
vn 0.000000 1.000000 0.000000
vn 0.000000 1.000000 0.000000
vn 0.000000 1.000000 0.000000
vn 0.000000 1.000000 0.000000
vn -1.000000 0.000000 0.000000
vn -1.000000 0.000000 0.000000
vn -1.000000 0.000000 0.000000
vn 1.000000 0.000000 0.000000
vn 1.000000 0.000000 0.000000
vn 1.000000 0.000000 0.000000
vn 0.000000 1.000000 0.000000
vn 0.000000 1.000000 0.000000
vn 0.000000 1.000000 0.000000
vn 0.000000 1.000000 0.000000
vn -1.000000 0.000000 0.000011
vn -1.000000 0.000000 0.000011
vn -1.000000 0.000000 0.000011
vn 1.000000 0.000000 0.000000
vn 1.000000 0.000000 0.000000
vn 1.000000 0.000000 0.000000
vn 0.000000 1.000000 0.000000
vn 0.000000 1.000000 0.000000
vn 0.000000 1.000000 0.000000
vn 0.000000 1.000000 0.000000
vn 0.000000 1.000000 0.000000
vn 0.000000 1.000000 0.000000
vn 0.000000 1.000000 0.000000
vn 0.000000 1.000000 0.000000
vn 0.000000 1.000000 0.000000
vn 0.000000 1.000000 0.000000
vn 0.000000 1.000000 0.000000
vn 0.000000 1.000000 0.000000
vn 0.000000 1.000000 0.000000
vn 0.000000 0.756820 0.653623
vn 0.000000 0.761887 0.647709
vn 0.000000 -1.000000 0.000000
vn 0.000000 -0.751499 -0.659734
vn 0.000000 -0.756626 -0.653848
vn 0.000000 -1.000000 0.000000
vn 0.000000 -0.756626 -0.653848
vn 0.000000 -0.751499 -0.659734
vn 0.000000 1.000000 0.000000
vn 0.000000 0.761887 0.647709
vn 0.000000 0.756820 0.653623
vn 0.000000 -1.000000 -0.000001
vn 0.000000 -1.000000 -0.000001
vn 0.000000 -1.000000 -0.000001
vn 0.000000 -1.000000 -0.000001
vn 0.000000 -1.000000 -0.000001
vn 0.000000 -1.000000 -0.000001
vn 0.000000 1.000000 0.000001
vn 0.000000 1.000000 0.000001
vn 0.000000 1.000000 0.000001
vn 0.000000 1.000000 0.000001
vn 0.000000 1.000000 0.000001
vn 0.000000 1.000000 0.000001
vn 0.000000 1.000000 0.000001
vn 0.000000 1.000000 0.000001
vn -1.000000 0.000000 0.000000
vn -1.000000 0.000000 0.000000
vn -1.000000 0.000000 0.000000
vn -1.000000 0.000000 0.000000
vn 1.000000 0.000000 0.000000
vn 1.000000 0.000000 0.000000
vn 1.000000 0.000000 0.000000
vn 1.000000 0.000000 0.000000
vn 0.000000 0.000000 -1.000000
vn 0.000000 0.000000 -1.000000
vn 0.000000 0.000000 -1.000000
vn 0.000000 0.000000 -1.000000
vn 0.000000 0.000000 -1.000000
vn -0.000000 0.000000 -1.000000
vn -0.000000 0.000000 -1.000000
vn -0.000000 0.000000 -1.000000
vn -0.000000 0.000000 -1.000000
vn -0.000000 0.000000 -1.000000
vn 0.000000 0.000000 -1.000000
vn 0.000000 0.000000 -1.000000
vn 0.000000 0.000000 -1.000000
vn 0.000000 0.000000 -1.000000
vn 1.000000 0.000000 0.000000
vn 1.000000 0.000000 0.000000
vn 1.000000 0.000000 0.000000
vn 1.000000 0.000000 0.000000
vn 0.000000 -1.000000 0.000002
vn 0.000000 -1.000000 0.000002
vn 0.000000 -1.000000 0.000002
vn 0.000000 -1.000000 0.000002
vn 0.000000 -1.000000 0.000002
vn 0.000000 -1.000000 0.000002
vn -1.000000 0.000000 0.000000
vn -1.000000 0.000000 0.000000
vn -1.000000 0.000000 0.000000
vn -1.000000 0.000000 0.000000
vn 0.000000 1.000000 0.000000
vn 0.000000 1.000000 0.000000
vn 0.000000 1.000000 0.000000
vn 0.000000 1.000000 0.000000
vn 0.000000 0.000000 -1.000000
vn 0.000000 0.000000 -1.000000
vn 0.000000 0.000000 -1.000000
vn 0.000000 0.000000 -1.000000
vn 0.000000 0.000000 -1.000000
vn 0.000000 0.000000 -1.000000
vn 0.000000 0.000000 -1.000000
vn 0.000000 0.000000 -1.000000
vn 0.000000 0.000000 -1.000000
vn 0.000000 0.000000 -1.000000
vn 0.000000 0.000000 -1.000000
vn 0.000000 0.000000 -1.000000
vn 0.000000 0.761887 0.647709
vn 0.000000 0.756820 0.653623
vn 0.000000 0.751960 0.659209
vn 0.000000 0.756535 0.653954
vn 1.000000 0.000000 0.000000
vn 1.000000 0.000000 0.000000
vn 1.000000 0.000000 0.000000
vn 1.000000 0.000000 0.000000
vn 0.000000 -0.751499 -0.659734
vn 0.000000 -0.756626 -0.653848
vn 0.000000 -0.751210 -0.660063
vn 0.000000 -0.746583 -0.665293
vn 0.000000 -0.751210 -0.660064
vn 0.000000 -0.746583 -0.665293
vn 0.000000 -1.000000 0.000000
vn -1.000000 -0.000000 -0.000000
vn -1.000000 -0.000000 -0.000000
vn -1.000000 0.000000 -0.000001
vn -1.000000 0.000000 -0.000001
vn 0.000000 0.751960 0.659209
vn 0.000000 0.756535 0.653954
vn 0.000000 1.000000 0.000000
vn 0.000000 0.756535 0.653954
vn 0.000000 0.751960 0.659209
vn 0.000000 1.000000 0.000000
vn 1.000000 0.000000 0.000000
vn 1.000000 0.000000 0.000000
vn 1.000000 0.000000 0.000000
vn 1.000000 0.000000 0.000000
vn 0.000000 -0.746583 -0.665293
vn 0.000000 -0.751210 -0.660063
vn 0.000000 -1.000000 0.000000
vn 0.000000 0.756820 0.653623
vn 0.000000 0.761887 0.647709
vn 0.000000 0.756535 0.653954
vn 0.000000 0.751960 0.659209
vn -1.000000 -0.000000 -0.000000
vn -1.000000 -0.000000 -0.000000
vn -1.000000 -0.000000 -0.000000
vn -1.000000 -0.000000 -0.000000
vn 0.000000 -0.756626 -0.653848
vn 0.000000 -0.751499 -0.659734
vn 0.000000 -0.746583 -0.665293
vn 0.000000 -0.751210 -0.660064
vn 0.000000 1.000000 -0.000000
vn 0.000000 1.000000 -0.000000
vn 0.000000 1.000000 -0.000000
vn 0.000000 1.000000 -0.000000
vn 0.000000 1.000000 -0.000000
vn 0.000000 1.000000 -0.000000
vn 0.000000 1.000000 -0.000000
vn 0.000000 1.000000 -0.000000
vn 1.000000 0.000000 0.000000
vn 1.000000 0.000000 0.000000
vn 1.000000 0.000000 0.000000
vn 1.000000 0.000000 0.000000
vn 0.000000 1.000000 0.000000
vn 0.000000 1.000000 0.000000
vn 0.000000 1.000000 0.000000
vn 0.000000 1.000000 0.000000
vn -1.000000 0.000000 0.000000
vn -1.000000 0.000000 0.000000
vn -1.000000 0.000000 0.000000
vn -1.000000 0.000000 0.000000
vn 0.000000 0.000000 1.000000
vn 0.000000 0.000000 1.000000
vn 0.000000 0.000000 1.000000
vn 0.000000 0.000000 1.000000
vn 0.000000 1.000000 0.000000
vn 0.000000 1.000000 0.000000
vn 0.000000 1.000000 0.000000
vn 0.000000 1.000000 0.000000
vn 0.000000 1.000000 -0.000001
vn 0.000000 1.000000 -0.000001
vn 0.000000 1.000000 -0.000001
vn 0.000000 1.000000 -0.000001
vn 0.000000 1.000000 0.000000
vn 0.000000 1.000000 0.000000
vn 0.000000 1.000000 0.000000
vn 0.000000 1.000000 0.000000
vn 0.000000 0.000000 1.000000
vn 0.000000 0.000000 1.000000
vn 0.000000 0.000000 1.000000
vn 0.000000 0.000000 1.000000
vn 1.000000 0.000000 0.000000
vn 1.000000 0.000000 0.000000
vn 1.000000 0.000000 0.000000
vn 1.000000 0.000000 0.000000
vn 0.000000 0.000000 -1.000000
vn 0.000000 0.000000 -1.000000
vn 0.000000 0.000000 -1.000000
vn 0.000000 0.000000 -1.000000
vn -1.000000 0.000000 0.000000
vn -1.000000 0.000000 0.000000
vn -1.000000 0.000000 0.000000
vn -1.000000 0.000000 0.000000
vn -1.000000 0.000000 0.000000
vn -1.000000 0.000000 0.000000
vn -1.000000 0.000000 0.000000
vn -1.000000 0.000000 0.000000
vn 0.000000 0.000000 1.000000
vn 0.000000 0.000000 1.000000
vn 0.000000 0.000000 1.000000
vn 0.000000 0.000000 1.000000
vn 1.000000 0.000000 0.000000
vn 1.000000 0.000000 0.000000
vn 1.000000 0.000000 0.000000
vn 1.000000 0.000000 0.000000
s off
f 46/65/1 45/102/2 51/75/3 52/98/4
f 12/25/5 13/142/6 10/21/7 11/125/8
f 47/74/9 48/95/10 49/77/11 50/92/12
f 48/94/13 47/66/14 71/213/15 72/215/16
f 49/68/17 73/217/18 74/219/19 50/91/20
f 18/34/21 19/122/22 11/24/23 10/165/24
f 14/29/25 15/149/26 13/26/27 12/130/28
f 3/3/29 15/30/30 14/133/31 5/15/32
f 4/12/33 6/6/34 19/36/35 18/158/36
f 7/10/37 1/1/38 21/38/39 28/115/40
f 1/19/41 16/32/42 91/287/43 22/170/44 21/105/45
f 24/40/46 23/169/47 94/294/48 9/167/49 2/2/50
f 8/8/51 25/42/52 24/111/53 2/17/54
f 20/37/55 26/90/56 25/116/57 8/7/58
f 63/179/59 64/195/60 65/196/61 66/188/62
f 28/45/63 27/86/64 17/88/65 7/16/66
f 11/126/67 31/124/68 30/127/69 12/129/70
f 33/46/71 32/120/72 19/121/73 6/13/74
f 33/118/75 6/9/76 4/4/77 34/49/78
f 18/159/79 35/155/80 34/109/81 4/18/82
f 41/58/83 36/51/84 35/157/85 42/154/86
f 36/162/87 10/164/88 13/143/89 37/139/90
f 43/60/91 38/53/92 37/141/93 44/138/94
f 39/55/95 38/146/96 15/148/97 3/14/98
f 39/107/99 3/20/100 5/11/101 40/56/102
f 5/5/103 14/134/104 29/132/105 40/113/106
f 10/22/107 36/163/108 41/151/109
f 35/50/110 18/160/111 42/153/112
f 18/35/113 10/166/114 41/152/115 42/59/116
f 15/31/117 38/147/118 43/135/119
f 37/52/120 13/144/121 44/137/122
f 13/27/123 15/150/124 43/136/125 44/61/126
f 14/28/127 12/131/128 30/128/129 29/62/130
f 11/23/131 19/123/132 32/119/133 31/63/134
f 47/93/135 33/243/136 71/244/137
f 49/96/138 28/44/139 73/218/140
f 48/67/141 72/216/142 25/117/143
f 50/69/144 74/220/145 40/114/146
f 52/76/147 21/39/148 22/171/149 23/168/150 24/112/151 46/100/152
f 51/104/153 45/64/154 34/48/155 35/156/156 36/161/157 37/140/158 38/145/159 39/108/160
f 26/43/161 20/89/162 54/79/163 53/83/164
f 17/33/165 27/87/166 56/84/167 55/81/168
f 53/78/169 54/82/170 58/174/171 61/199/172 57/194/173
f 55/80/174 56/85/175 60/185/176 62/190/177 59/202/178
f 56/85/179 53/78/180 57/194/181 60/185/182
f 57/173/183 61/193/184 64/192/185 63/191/186
f 61/177/187 68/204/188 70/207/189 62/197/190 65/187/191 64/180/192
f 62/178/193 60/189/194 66/184/195 65/181/196
f 60/176/197 57/186/198 63/183/199 66/182/200
f 67/203/201 68/205/202 61/198/203 58/201/204
f 62/200/205 70/210/206 69/209/207 59/175/208
f 67/206/209 69/208/210 70/211/211 68/212/212
f 71/214/213 33/47/214 34/240/215 75/241/216
f 72/215/217 71/213/218 75/221/219 76/223/220
f 25/117/221 72/216/222 76/224/223 24/41/224
f 78/228/225 21/106/226 52/73/227
f 77/225/228 78/227/229 52/97/230 51/72/231
f 39/237/232 77/238/233 51/103/234
f 75/222/235 34/110/236 45/71/237
f 76/223/238 75/221/239 45/101/240 46/70/241
f 24/41/242 76/224/243 46/99/244
f 40/242/245 74/239/246 77/226/247 39/54/248
f 74/219/249 73/217/250 78/227/251 77/225/252
f 73/218/253 28/44/254 21/106/255 78/228/256
f 47/229/257 50/230/258 40/231/259 29/232/260 30/233/261 31/234/262 32/235/263 33/236/264
f 93/296/265 94/293/266 23/252/267 81/247/268
f 87/262/269 88/269/270 89/268/271 90/267/272
f 22/57/273 91/300/274 92/298/275 82/248/276
f 82/254/277 92/299/278 93/295/279 81/256/280
f 22/251/281 82/277/282 85/274/283 84/276/284
f 82/250/285 81/275/286 86/272/287 85/273/288
f 81/249/289 23/278/290 83/270/291 86/271/292
f 83/258/293 84/285/294 88/282/295 87/266/296
f 84/259/297 85/284/298 89/283/299 88/263/300
f 85/260/301 86/281/302 90/280/303 89/264/304
f 86/261/305 83/286/306 87/279/307 90/265/308
f 92/289/309 91/288/310 16/172/311 79/253/312
f 93/291/313 92/290/314 79/245/315 80/255/316
f 9/257/317 94/297/318 93/292/319 80/246/320
