# This file uses centimeters as units for non-parametric coordinates.

v -8.140767 -8.162472 8.140770
v 8.140768 -8.162472 8.140770
v -8.140767 8.162472 8.140770
v 8.140767 8.162472 8.140768
v -8.140767 8.162475 -8.140766
v 8.140771 8.162476 -8.140768
v -8.140767 -8.162474 -8.140766
v 8.140772 -8.162476 -8.140768
v 9.943605 0.000000 9.943607
v 0.000001 10.018462 9.989189
v -9.989185 10.018463 0.000002
v 9.989188 10.018462 0.000002
v 0.000001 10.018463 -9.989187
v -9.943606 0.000000 -9.943604
v 9.943611 0.000000 -9.943607
v 0.000001 -10.018462 -9.989186
v -9.989185 -10.018463 0.000002
v 9.989187 -10.018460 0.000002
v 0.000001 -10.018460 9.989189
v -9.943606 0.000000 9.943608
v 0.000001 -0.000000 14.063463
v 0.006601 14.266169 -0.009494
v 0.000001 -0.000000 -14.063463
v 0.011564 -14.266169 -0.000240
v 14.063461 -0.000000 0.000002
v -14.063461 -0.000000 0.000002
v 0.000001 -5.537626 12.952303
v -5.519307 -0.000000 12.888414
v 4.775518 -9.407424 9.401899
v 9.373590 -4.723078 9.373592
v 5.519308 -0.000000 12.888413
v 0.000001 5.537626 12.952303
v 9.373591 4.723078 9.373592
v 4.775517 9.407424 9.401899
v -9.373590 4.723079 9.373593
v -4.775516 9.407424 9.401899
v -9.401896 9.407424 4.775518
v 0.000001 13.058969 5.585112
v -5.585108 13.058969 0.000002
v 9.401898 9.407424 4.775519
v 5.585110 13.058969 0.000002
v 0.000001 13.058969 -5.585107
v 9.401901 9.407426 -4.775516
v 4.775519 9.407426 -9.401897
v -9.401896 9.407425 -4.775515
v -4.775517 9.407426 -9.401896
v -9.373591 4.723080 -9.373590
v 0.000001 5.537627 -12.952301
v -5.519308 -0.000000 -12.888413
v 9.373595 4.723081 -9.373591
v 5.519311 -0.000000 -12.888416
v 0.000001 -5.537628 -12.952301
v 9.373595 -4.723081 -9.373591
v 4.775519 -9.407426 -9.401896
v -9.373591 -4.723079 -9.373590
v -4.775517 -9.407427 -9.401896
v -9.401896 -9.407424 -4.775516
v 0.000001 -13.058969 -5.585107
v -5.585108 -13.058969 0.000002
v 9.401901 -9.407427 -4.775516
v 5.585110 -13.058969 0.000002
v 0.000001 -13.058969 5.585112
v 9.401898 -9.407424 4.775519
v -9.401896 -9.407425 4.775519
v 12.952299 -5.537626 0.000002
v 12.888411 -0.000000 5.519310
v 12.888420 -0.000000 -5.519308
v 12.952301 5.537626 0.000002
v -12.952301 -5.537626 0.000002
v -12.888413 0.000000 -5.519307
v -12.888413 -0.000000 5.519311
v -12.952302 5.537626 0.000002
v -4.775517 -9.407424 9.401898
v -9.373590 -4.723079 9.373593
v -5.136269 -5.142816 12.012130
v 5.136270 -5.142816 12.012129
v 5.136270 5.142816 12.012129
v -5.136269 5.142816 12.012130
v -5.192530 12.141928 5.192533
v 5.192533 12.141927 5.192534
v 5.192533 12.141930 -5.192530
v -5.192531 12.141927 -5.192530
v -5.136270 5.142817 -12.012129
v 5.136272 5.142817 -12.012130
v 5.136272 -5.142817 -12.012129
v -5.136270 -5.142817 -12.012130
v -5.192531 -12.141928 -5.192530
v 5.192533 -12.141930 -5.192530
v 5.192533 -12.141927 5.192534
v -5.192530 -12.141928 5.192533
v 12.012126 -5.142816 5.136271
v 12.012133 -5.142817 -5.136269
v 12.012133 5.142817 -5.136269
v 12.012127 5.142815 5.136271
v -12.012127 -5.142816 -5.136268
v -12.012126 -5.142816 5.136272
v -12.012127 5.142816 5.136272
v -12.012127 5.142816 -5.136268
vt 0.512040 0.558226
vt 0.511983 0.552139
vt 0.511865 0.572990
vt 0.511984 0.575042
vt 0.511957 0.549152
vt 0.511823 0.571060
vt 0.511773 0.598135
vt 0.511826 0.598135
vt 0.511959 0.598135
vt 0.511983 0.552139
vt 0.511865 0.572990
vt 0.512040 0.558226
vt 0.511984 0.575042
vt 0.511959 0.598135
vt 0.511826 0.598135
vt 0.511865 0.623279
vt 0.511823 0.625210
vt 0.511984 0.621227
vt 0.512040 0.638043
vt 0.511983 0.644130
vt 0.511957 0.647117
vt 0.511865 0.623279
vt 0.511984 0.621227
vt 0.511983 0.644130
vt 0.512040 0.638043
vt 0.512173 0.657500
vt 0.512192 0.644130
vt 0.512155 0.661983
vt 0.512408 0.667886
vt 0.512407 0.661983
vt 0.512407 0.647117
vt 0.512173 0.657500
vt 0.512192 0.644130
vt 0.512407 0.647117
vt 0.512407 0.661983
vt 0.512641 0.657500
vt 0.512659 0.661983
vt 0.512623 0.644130
vt 0.512774 0.638043
vt 0.512831 0.644130
vt 0.512858 0.647117
vt 0.512641 0.657500
vt 0.512623 0.644130
vt 0.512831 0.644130
vt 0.512774 0.638043
vt 0.512949 0.623279
vt 0.512830 0.621227
vt 0.512991 0.625210
vt 0.513042 0.598135
vt 0.512989 0.598135
vt 0.512856 0.598135
vt 0.512949 0.623279
vt 0.512830 0.621227
vt 0.512856 0.598135
vt 0.512989 0.598135
vt 0.512949 0.572990
vt 0.512991 0.571060
vt 0.512830 0.575042
vt 0.512774 0.558226
vt 0.512831 0.552139
vt 0.512858 0.549152
vt 0.512949 0.572990
vt 0.512830 0.575042
vt 0.512831 0.552139
vt 0.512774 0.558226
vt 0.512641 0.538770
vt 0.512623 0.552139
vt 0.512659 0.534286
vt 0.512407 0.528384
vt 0.512407 0.534286
vt 0.512407 0.549152
vt 0.512641 0.538770
vt 0.512623 0.552139
vt 0.512407 0.549152
vt 0.512407 0.534286
vt 0.512173 0.538770
vt 0.512155 0.534286
vt 0.512192 0.552139
vt 0.512173 0.538770
vt 0.512192 0.552139
vt 0.512176 0.572990
vt 0.512407 0.571060
vt 0.512407 0.598135
vt 0.512158 0.598135
vt 0.512639 0.572990
vt 0.512656 0.598135
vt 0.512639 0.623279
vt 0.512407 0.625210
vt 0.512176 0.623279
vt 0.512639 0.572990
vt 0.512407 0.571060
vt 0.512407 0.598135
vt 0.512656 0.598135
vt 0.512176 0.572990
vt 0.512158 0.598135
vt 0.512176 0.623279
vt 0.512407 0.625210
vt 0.512639 0.623279
vn -0.482241 -0.468888 0.739991
vn -0.482241 -0.468888 0.739991
vn -0.482241 -0.468888 0.739991
vn -0.482241 -0.468888 0.739992
vn -0.181448 -0.533820 0.825901
vn -0.181448 -0.533820 0.825901
vn -0.181448 -0.533820 0.825901
vn -0.181448 -0.533820 0.825901
vn -0.197937 -0.186179 0.962371
vn -0.197937 -0.186179 0.962371
vn -0.197937 -0.186179 0.962371
vn -0.197937 -0.186179 0.962371
vn -0.539543 -0.172917 0.824011
vn -0.539543 -0.172917 0.824011
vn -0.539542 -0.172917 0.824011
vn -0.539543 -0.172917 0.824011
vn 0.181448 -0.533820 0.825901
vn 0.181448 -0.533820 0.825901
vn 0.181448 -0.533820 0.825901
vn 0.181448 -0.533820 0.825901
vn 0.482241 -0.468888 0.739992
vn 0.482241 -0.468888 0.739992
vn 0.482241 -0.468888 0.739992
vn 0.482241 -0.468888 0.739992
vn 0.539543 -0.172917 0.824011
vn 0.539543 -0.172917 0.824011
vn 0.539543 -0.172917 0.824011
vn 0.539543 -0.172917 0.824011
vn 0.197937 -0.186179 0.962371
vn 0.197937 -0.186179 0.962371
vn 0.197937 -0.186179 0.962371
vn 0.197937 -0.186179 0.962371
vn 0.197937 0.186179 0.962371
vn 0.197937 0.186179 0.962371
vn 0.197937 0.186179 0.962371
vn 0.197937 0.186179 0.962371
vn 0.539543 0.172917 0.824011
vn 0.539543 0.172917 0.824011
vn 0.539543 0.172917 0.824011
vn 0.539543 0.172917 0.824011
vn 0.482241 0.468888 0.739991
vn 0.482241 0.468888 0.739991
vn 0.482241 0.468888 0.739991
vn 0.482242 0.468888 0.739991
vn 0.181448 0.533820 0.825901
vn 0.181448 0.533820 0.825901
vn 0.181448 0.533820 0.825901
vn 0.181448 0.533820 0.825901
vn -0.539543 0.172917 0.824011
vn -0.539542 0.172917 0.824011
vn -0.539543 0.172917 0.824011
vn -0.539543 0.172917 0.824011
vn -0.197937 0.186179 0.962371
vn -0.197937 0.186179 0.962371
vn -0.197937 0.186179 0.962371
vn -0.197937 0.186179 0.962371
vn -0.181448 0.533820 0.825901
vn -0.181448 0.533820 0.825901
vn -0.181448 0.533820 0.825901
vn -0.181448 0.533820 0.825901
vn -0.482241 0.468888 0.739992
vn -0.482241 0.468888 0.739992
vn -0.482241 0.468888 0.739992
vn -0.482241 0.468888 0.739992
vn -0.488210 0.723396 0.488210
vn -0.488211 0.723396 0.488210
vn -0.488210 0.723396 0.488210
vn -0.488210 0.723396 0.488210
vn -0.179094 0.813130 0.553846
vn -0.179094 0.813130 0.553846
vn -0.179094 0.813130 0.553846
vn -0.179094 0.813130 0.553846
vn -0.196211 0.960730 0.196211
vn -0.196211 0.960730 0.196211
vn -0.196211 0.960730 0.196211
vn -0.196211 0.960730 0.196211
vn -0.553846 0.813130 0.179095
vn -0.553846 0.813130 0.179095
vn -0.553846 0.813130 0.179095
vn -0.553846 0.813130 0.179095
vn 0.179094 0.813130 0.553846
vn 0.179094 0.813130 0.553846
vn 0.179094 0.813130 0.553846
vn 0.179094 0.813130 0.553846
vn 0.488211 0.723395 0.488211
vn 0.488211 0.723395 0.488211
vn 0.488211 0.723395 0.488211
vn 0.488211 0.723395 0.488211
vn 0.553846 0.813130 0.179095
vn 0.553846 0.813130 0.179095
vn 0.553846 0.813130 0.179095
vn 0.553846 0.813130 0.179095
vn 0.196441 0.960636 0.196441
vn 0.196441 0.960636 0.196441
vn 0.196441 0.960636 0.196441
vn 0.196441 0.960636 0.196441
vn 0.196773 0.960500 -0.196773
vn 0.196773 0.960500 -0.196773
vn 0.196773 0.960500 -0.196773
vn 0.196773 0.960500 -0.196773
vn 0.553846 0.813130 -0.179094
vn 0.553846 0.813130 -0.179094
vn 0.553846 0.813130 -0.179094
vn 0.553846 0.813130 -0.179094
vn 0.488210 0.723396 -0.488210
vn 0.488210 0.723396 -0.488210
vn 0.488210 0.723396 -0.488210
vn 0.488210 0.723396 -0.488210
vn 0.179094 0.813130 -0.553845
vn 0.179094 0.813130 -0.553845
vn 0.179094 0.813130 -0.553845
vn 0.179094 0.813130 -0.553845
vn -0.553845 0.813130 -0.179095
vn -0.553845 0.813130 -0.179095
vn -0.553845 0.813130 -0.179095
vn -0.553845 0.813130 -0.179095
vn -0.196542 0.960595 -0.196542
vn -0.196542 0.960595 -0.196542
vn -0.196542 0.960595 -0.196542
vn -0.196542 0.960595 -0.196542
vn -0.179095 0.813130 -0.553845
vn -0.179095 0.813130 -0.553845
vn -0.179095 0.813130 -0.553845
vn -0.179095 0.813130 -0.553845
vn -0.488211 0.723396 -0.488210
vn -0.488211 0.723396 -0.488210
vn -0.488211 0.723396 -0.488210
vn -0.488211 0.723396 -0.488210
vn -0.482241 0.468888 -0.739991
vn -0.482241 0.468888 -0.739991
vn -0.482241 0.468888 -0.739991
vn -0.482241 0.468888 -0.739991
vn -0.181448 0.533820 -0.825901
vn -0.181448 0.533820 -0.825901
vn -0.181448 0.533820 -0.825901
vn -0.181448 0.533820 -0.825901
vn -0.197937 0.186179 -0.962371
vn -0.197937 0.186179 -0.962371
vn -0.197937 0.186179 -0.962371
vn -0.197937 0.186179 -0.962371
vn -0.539543 0.172917 -0.824010
vn -0.539543 0.172917 -0.824010
vn -0.539543 0.172917 -0.824010
vn -0.539543 0.172917 -0.824010
vn 0.181448 0.533820 -0.825901
vn 0.181448 0.533820 -0.825901
vn 0.181448 0.533820 -0.825901
vn 0.181448 0.533820 -0.825901
vn 0.482241 0.468888 -0.739991
vn 0.482241 0.468888 -0.739991
vn 0.482241 0.468888 -0.739991
vn 0.482241 0.468888 -0.739991
vn 0.539543 0.172917 -0.824010
vn 0.539543 0.172917 -0.824010
vn 0.539543 0.172917 -0.824010
vn 0.539543 0.172917 -0.824010
vn 0.197936 0.186180 -0.962371
vn 0.197936 0.186180 -0.962371
vn 0.197936 0.186180 -0.962371
vn 0.197936 0.186180 -0.962371
vn 0.197937 -0.186180 -0.962371
vn 0.197937 -0.186180 -0.962371
vn 0.197937 -0.186180 -0.962371
vn 0.197937 -0.186180 -0.962371
vn 0.539543 -0.172917 -0.824011
vn 0.539543 -0.172917 -0.824011
vn 0.539543 -0.172917 -0.824011
vn 0.539543 -0.172917 -0.824011
vn 0.482241 -0.468888 -0.739992
vn 0.482241 -0.468888 -0.739992
vn 0.482241 -0.468888 -0.739992
vn 0.482241 -0.468888 -0.739992
vn 0.181448 -0.533820 -0.825901
vn 0.181448 -0.533820 -0.825901
vn 0.181448 -0.533820 -0.825901
vn 0.181448 -0.533820 -0.825901
vn -0.539543 -0.172917 -0.824010
vn -0.539543 -0.172917 -0.824010
vn -0.539543 -0.172917 -0.824010
vn -0.539543 -0.172917 -0.824010
vn -0.197937 -0.186179 -0.962371
vn -0.197937 -0.186179 -0.962371
vn -0.197937 -0.186179 -0.962371
vn -0.197937 -0.186179 -0.962371
vn -0.181448 -0.533820 -0.825901
vn -0.181448 -0.533820 -0.825901
vn -0.181448 -0.533820 -0.825901
vn -0.181448 -0.533820 -0.825901
vn -0.482242 -0.468888 -0.739991
vn -0.482242 -0.468888 -0.739991
vn -0.482242 -0.468888 -0.739991
vn -0.482242 -0.468888 -0.739991
vn -0.488211 -0.723396 -0.488210
vn -0.488211 -0.723396 -0.488210
vn -0.488211 -0.723396 -0.488210
vn -0.488211 -0.723396 -0.488210
vn -0.179094 -0.813130 -0.553845
vn -0.179094 -0.813130 -0.553845
vn -0.179094 -0.813130 -0.553845
vn -0.179094 -0.813130 -0.553845
vn -0.196294 -0.960696 -0.196294
vn -0.196294 -0.960696 -0.196294
vn -0.196294 -0.960696 -0.196294
vn -0.196294 -0.960696 -0.196294
vn -0.553846 -0.813130 -0.179095
vn -0.553846 -0.813130 -0.179095
vn -0.553846 -0.813130 -0.179095
vn -0.553846 -0.813130 -0.179095
vn 0.179094 -0.813130 -0.553846
vn 0.179094 -0.813130 -0.553846
vn 0.179094 -0.813130 -0.553846
vn 0.179094 -0.813130 -0.553846
vn 0.488210 -0.723396 -0.488210
vn 0.488210 -0.723396 -0.488210
vn 0.488210 -0.723396 -0.488210
vn 0.488210 -0.723396 -0.488210
vn 0.553846 -0.813130 -0.179094
vn 0.553846 -0.813130 -0.179094
vn 0.553846 -0.813130 -0.179094
vn 0.553846 -0.813130 -0.179094
vn 0.196698 -0.960531 -0.196698
vn 0.196698 -0.960531 -0.196698
vn 0.196698 -0.960531 -0.196698
vn 0.196698 -0.960531 -0.196698
vn 0.196690 -0.960534 0.196690
vn 0.196690 -0.960534 0.196690
vn 0.196690 -0.960534 0.196690
vn 0.196690 -0.960534 0.196690
vn 0.553846 -0.813130 0.179094
vn 0.553846 -0.813130 0.179094
vn 0.553846 -0.813130 0.179094
vn 0.553846 -0.813130 0.179094
vn 0.488211 -0.723395 0.488210
vn 0.488211 -0.723396 0.488210
vn 0.488211 -0.723396 0.488210
vn 0.488211 -0.723395 0.488210
vn 0.179094 -0.813130 0.553846
vn 0.179094 -0.813130 0.553846
vn 0.179094 -0.813130 0.553846
vn 0.179094 -0.813130 0.553846
vn -0.553846 -0.813130 0.179094
vn -0.553846 -0.813130 0.179094
vn -0.553845 -0.813130 0.179094
vn -0.553846 -0.813130 0.179094
vn -0.196286 -0.960700 0.196286
vn -0.196286 -0.960700 0.196286
vn -0.196286 -0.960700 0.196286
vn -0.196286 -0.960700 0.196286
vn -0.179094 -0.813130 0.553846
vn -0.179094 -0.813130 0.553846
vn -0.179094 -0.813130 0.553846
vn -0.179094 -0.813130 0.553846
vn -0.488210 -0.723396 0.488211
vn -0.488210 -0.723396 0.488211
vn -0.488210 -0.723396 0.488211
vn -0.488210 -0.723396 0.488211
vn 0.739992 -0.468888 0.482241
vn 0.739992 -0.468888 0.482241
vn 0.739992 -0.468888 0.482241
vn 0.739992 -0.468888 0.482241
vn 0.825902 -0.533819 0.181448
vn 0.825902 -0.533820 0.181448
vn 0.825902 -0.533820 0.181448
vn 0.825902 -0.533820 0.181448
vn 0.962371 -0.186180 0.197937
vn 0.962371 -0.186180 0.197937
vn 0.962371 -0.186180 0.197937
vn 0.962371 -0.186180 0.197937
vn 0.824011 -0.172917 0.539543
vn 0.824011 -0.172917 0.539543
vn 0.824011 -0.172917 0.539543
vn 0.824011 -0.172917 0.539543
vn 0.825902 -0.533820 -0.181447
vn 0.825902 -0.533820 -0.181447
vn 0.825902 -0.533820 -0.181447
vn 0.825902 -0.533820 -0.181447
vn 0.739992 -0.468888 -0.482241
vn 0.739992 -0.468888 -0.482241
vn 0.739992 -0.468888 -0.482241
vn 0.739992 -0.468888 -0.482241
vn 0.824010 -0.172917 -0.539543
vn 0.824011 -0.172917 -0.539543
vn 0.824010 -0.172917 -0.539543
vn 0.824011 -0.172917 -0.539543
vn 0.962371 -0.186180 -0.197936
vn 0.962371 -0.186180 -0.197936
vn 0.962371 -0.186180 -0.197936
vn 0.962371 -0.186180 -0.197936
vn 0.962371 0.186180 -0.197936
vn 0.962371 0.186180 -0.197936
vn 0.962371 0.186180 -0.197936
vn 0.962371 0.186180 -0.197936
vn 0.824010 0.172917 -0.539543
vn 0.824011 0.172917 -0.539543
vn 0.824010 0.172917 -0.539543
vn 0.824011 0.172917 -0.539543
vn 0.739992 0.468888 -0.482241
vn 0.739992 0.468888 -0.482241
vn 0.739992 0.468888 -0.482241
vn 0.739992 0.468888 -0.482241
vn 0.825902 0.533820 -0.181447
vn 0.825902 0.533820 -0.181447
vn 0.825902 0.533820 -0.181447
vn 0.825902 0.533820 -0.181447
vn 0.824011 0.172917 0.539542
vn 0.824011 0.172917 0.539543
vn 0.824011 0.172917 0.539543
vn 0.824011 0.172917 0.539543
vn 0.962371 0.186179 0.197937
vn 0.962371 0.186179 0.197937
vn 0.962371 0.186179 0.197937
vn 0.962371 0.186179 0.197937
vn 0.825902 0.533820 0.181448
vn 0.825902 0.533820 0.181448
vn 0.825902 0.533820 0.181448
vn 0.825902 0.533820 0.181448
vn 0.739991 0.468888 0.482241
vn 0.739991 0.468888 0.482241
vn 0.739991 0.468888 0.482241
vn 0.739991 0.468888 0.482241
vn -0.739992 -0.468888 -0.482241
vn -0.739992 -0.468888 -0.482241
vn -0.739992 -0.468888 -0.482241
vn -0.739992 -0.468888 -0.482241
vn -0.825901 -0.533820 -0.181448
vn -0.825901 -0.533820 -0.181448
vn -0.825901 -0.533820 -0.181448
vn -0.825901 -0.533820 -0.181448
vn -0.962371 -0.186179 -0.197937
vn -0.962371 -0.186179 -0.197937
vn -0.962371 -0.186179 -0.197937
vn -0.962371 -0.186179 -0.197937
vn -0.824011 -0.172917 -0.539543
vn -0.824011 -0.172917 -0.539543
vn -0.824011 -0.172917 -0.539542
vn -0.824011 -0.172917 -0.539542
vn -0.825901 -0.533820 0.181448
vn -0.825901 -0.533820 0.181448
vn -0.825901 -0.533820 0.181448
vn -0.825901 -0.533820 0.181448
vn -0.739992 -0.468888 0.482241
vn -0.739992 -0.468888 0.482241
vn -0.739992 -0.468888 0.482241
vn -0.739992 -0.468888 0.482241
vn -0.824011 -0.172917 0.539543
vn -0.824011 -0.172917 0.539543
vn -0.824010 -0.172917 0.539543
vn -0.824011 -0.172917 0.539543
vn -0.962371 -0.186179 0.197937
vn -0.962371 -0.186179 0.197937
vn -0.962371 -0.186179 0.197937
vn -0.962371 -0.186179 0.197937
vn -0.962371 0.186179 0.197937
vn -0.962371 0.186179 0.197937
vn -0.962371 0.186179 0.197937
vn -0.962371 0.186179 0.197937
vn -0.824010 0.172917 0.539543
vn -0.824010 0.172917 0.539543
vn -0.824011 0.172917 0.539543
vn -0.824011 0.172917 0.539543
vn -0.739992 0.468888 0.482241
vn -0.739992 0.468888 0.482241
vn -0.739991 0.468888 0.482241
vn -0.739991 0.468888 0.482241
vn -0.825901 0.533820 0.181448
vn -0.825901 0.533820 0.181448
vn -0.825901 0.533820 0.181448
vn -0.825901 0.533820 0.181448
vn -0.824011 0.172917 -0.539542
vn -0.824011 0.172917 -0.539543
vn -0.824011 0.172917 -0.539543
vn -0.824011 0.172917 -0.539543
vn -0.962371 0.186179 -0.197937
vn -0.962371 0.186179 -0.197937
vn -0.962371 0.186179 -0.197937
vn -0.962371 0.186179 -0.197937
vn -0.825901 0.533820 -0.181448
vn -0.825901 0.533820 -0.181448
vn -0.825901 0.533820 -0.181448
vn -0.825901 0.533820 -0.181448
vn -0.739992 0.468888 -0.482241
vn -0.739992 0.468888 -0.482241
vn -0.739992 0.468888 -0.482241
vn -0.739992 0.468888 -0.482241
s off
f 1/1/1 73/2/2 75/3/3 74/4/4
f 73/2/5 19/5/6 27/6/7 75/3/8
f 75/3/9 27/6/10 21/7/11 28/8/12
f 74/4/13 75/3/14 28/8/15 20/9/16
f 19/5/17 29/10/18 76/11/19 27/6/20
f 29/10/21 2/12/22 30/13/23 76/11/24
f 76/11/25 30/13/26 9/14/27 31/15/28
f 27/6/29 76/11/30 31/15/31 21/7/32
f 21/7/33 31/15/34 77/16/35 32/17/36
f 31/15/37 9/14/38 33/18/39 77/16/40
f 77/16/41 33/18/42 4/19/43 34/20/44
f 32/17/45 77/16/46 34/20/47 10/21/48
f 20/9/49 28/8/50 78/22/51 35/23/52
f 28/8/53 21/7/54 32/17/55 78/22/56
f 78/22/57 32/17/58 10/21/59 36/24/60
f 35/23/61 78/22/62 36/24/63 3/25/64
f 3/25/65 36/24/66 79/26/67 37/27/68
f 36/24/69 10/21/70 38/28/71 79/26/72
f 79/26/73 38/28/74 22/29/75 39/30/76
f 37/27/77 79/26/78 39/30/79 11/31/80
f 10/21/81 34/20/82 80/32/83 38/28/84
f 34/20/85 4/19/86 40/33/87 80/32/88
f 80/32/89 40/33/90 12/34/91 41/35/92
f 38/28/93 80/32/94 41/35/95 22/29/96
f 22/29/97 41/35/98 81/36/99 42/37/100
f 41/35/101 12/34/102 43/38/103 81/36/104
f 81/36/105 43/38/106 6/39/107 44/40/108
f 42/37/109 81/36/110 44/40/111 13/41/112
f 11/31/113 39/30/114 82/42/115 45/43/116
f 39/30/117 22/29/118 42/37/119 82/42/120
f 82/42/121 42/37/122 13/41/123 46/44/124
f 45/43/125 82/42/126 46/44/127 5/45/128
f 5/45/129 46/44/130 83/46/131 47/47/132
f 46/44/133 13/41/134 48/48/135 83/46/136
f 83/46/137 48/48/138 23/49/139 49/50/140
f 47/47/141 83/46/142 49/50/143 14/51/144
f 13/41/145 44/40/146 84/52/147 48/48/148
f 44/40/149 6/39/150 50/53/151 84/52/152
f 84/52/153 50/53/154 15/54/155 51/55/156
f 48/48/157 84/52/158 51/55/159 23/49/160
f 23/49/161 51/55/162 85/56/163 52/57/164
f 51/55/165 15/54/166 53/58/167 85/56/168
f 85/56/169 53/58/170 8/59/171 54/60/172
f 52/57/173 85/56/174 54/60/175 16/61/176
f 14/51/177 49/50/178 86/62/179 55/63/180
f 49/50/181 23/49/182 52/57/183 86/62/184
f 86/62/185 52/57/186 16/61/187 56/64/188
f 55/63/189 86/62/190 56/64/191 7/65/192
f 7/65/193 56/64/194 87/66/195 57/67/196
f 56/64/197 16/61/198 58/68/199 87/66/200
f 87/66/201 58/68/202 24/69/203 59/70/204
f 57/67/205 87/66/206 59/70/207 17/71/208
f 16/61/209 54/60/210 88/72/211 58/68/212
f 54/60/213 8/59/214 60/73/215 88/72/216
f 88/72/217 60/73/218 18/74/219 61/75/220
f 58/68/221 88/72/222 61/75/223 24/69/224
f 24/69/225 61/75/226 89/76/227 62/77/228
f 61/75/229 18/74/230 63/78/231 89/76/232
f 89/76/233 63/78/234 2/12/235 29/10/236
f 62/77/237 89/76/238 29/10/239 19/5/240
f 17/71/241 59/70/242 90/79/243 64/80/244
f 59/70/245 24/69/246 62/77/247 90/79/248
f 90/79/249 62/77/250 19/5/251 73/2/252
f 64/80/253 90/79/254 73/2/255 1/1/256
f 2/12/257 63/78/258 91/81/259 30/13/260
f 63/78/261 18/74/262 65/82/263 91/81/264
f 91/81/265 65/82/266 25/83/267 66/84/268
f 30/13/269 91/81/270 66/84/271 9/14/272
f 18/74/273 60/73/274 92/85/275 65/82/276
f 60/73/277 8/59/278 53/58/279 92/85/280
f 92/85/281 53/58/282 15/54/283 67/86/284
f 65/82/285 92/85/286 67/86/287 25/83/288
f 25/83/289 67/86/290 93/87/291 68/88/292
f 67/86/293 15/54/294 50/53/295 93/87/296
f 93/87/297 50/53/298 6/39/299 43/38/300
f 68/88/301 93/87/302 43/38/303 12/34/304
f 9/14/305 66/84/306 94/89/307 33/18/308
f 66/84/309 25/83/310 68/88/311 94/89/312
f 94/89/313 68/88/314 12/34/315 40/33/316
f 33/18/317 94/89/318 40/33/319 4/19/320
f 7/65/321 57/67/322 95/90/323 55/63/324
f 57/67/325 17/71/326 69/91/327 95/90/328
f 95/90/329 69/91/330 26/92/331 70/93/332
f 55/63/333 95/90/334 70/93/335 14/51/336
f 17/71/337 64/80/338 96/94/339 69/91/340
f 64/80/341 1/1/342 74/4/343 96/94/344
f 96/94/345 74/4/346 20/9/347 71/95/348
f 69/91/349 96/94/350 71/95/351 26/92/352
f 26/92/353 71/95/354 97/96/355 72/97/356
f 71/95/357 20/9/358 35/23/359 97/96/360
f 97/96/361 35/23/362 3/25/363 37/27/364
f 72/97/365 97/96/366 37/27/367 11/31/368
f 14/51/369 70/93/370 98/98/371 47/47/372
f 70/93/373 26/92/374 72/97/375 98/98/376
f 98/98/377 72/97/378 11/31/379 45/43/380
f 47/47/381 98/98/382 45/43/383 5/45/384
