# This file uses centimeters as units for non-parametric coordinates.

v 14.512054 0.000000 5.121685
v 14.512054 2.900986 5.121685
v 14.512054 2.900986 -5.121693
v 14.512054 0.000000 -5.121693
v 14.512054 0.000000 -4.515057
v 14.512054 0.000000 4.515057
v 14.512054 2.419845 -4.515057
v 14.512054 2.419845 4.515057
v 0.000000 0.000000 -4.515057
v 0.000000 0.000000 4.515057
v 0.000000 2.419845 -4.515057
v 0.000000 2.419845 4.515057
v -14.512054 0.000000 5.121685
v -14.512054 2.900986 5.121685
v -14.512054 2.900986 -5.121693
v -14.512054 0.000000 -5.121693
v -14.512054 0.000000 -4.515057
v -14.512054 0.000000 4.515057
v -14.512054 2.419845 -4.515057
v -14.512054 2.419845 4.515057
v -14.056534 0.000000 23.384460
v 14.056564 0.000000 23.384460
v -11.437027 3.626232 12.804230
v 11.437057 3.626232 12.804230
v -11.437027 3.626232 -12.804241
v 11.437057 3.626232 -12.804241
v -14.056534 0.000000 -23.384460
v 14.056564 0.000000 -23.384460
v 14.056564 0.000000 -5.121693
v 11.437057 3.626232 -5.121693
v -11.437027 3.626232 -5.121693
v -14.056534 0.000000 -5.121693
v -11.437027 3.626232 5.121685
v 11.437057 3.626232 5.121685
v 14.056564 0.000000 5.121685
v -14.056534 0.000000 5.121685
v 11.960999 2.900986 5.121685
v 11.960999 2.900986 -5.121693
v -11.960922 2.900986 -5.121693
v -11.960922 2.900986 5.121685
v -2.971512 3.626232 3.326736
v -2.971512 3.626232 -3.326736
v 2.971542 3.626232 3.326736
v 2.971542 3.626232 -3.326736
v 2.971542 3.029029 3.326736
v 2.971542 3.029029 -3.326736
v -2.971512 3.029029 3.326736
v -2.971512 3.029029 -3.326736
v 2.971542 3.626232 12.804230
v 2.971542 0.000000 23.384460
v -2.971512 3.626232 12.804230
v -2.971512 0.000000 23.384460
v -2.971512 0.000000 12.804230
v 2.971542 0.000000 12.804230
v -2.971512 3.626232 -12.804241
v -2.971512 0.000000 -23.384460
v 2.971542 3.626232 -12.804241
v 2.971542 0.000000 -23.384460
v 2.971542 0.000000 -12.804241
v -2.971512 0.000000 -12.804241
v -9.743622 3.626232 -10.908440
v -9.743622 3.626232 10.908421
v 9.743698 3.626232 -10.908440
v 9.743698 3.626232 10.908421
v -9.123993 3.626232 -10.214699
v -9.123993 3.626232 10.214691
v 9.124039 3.626232 -10.214699
v 9.124039 3.626232 10.214691
vt 0.261742 0.063254
vt 0.297974 0.063254
vt 0.356903 0.062086
vt 0.261742 0.063254
vt 0.297974 0.063254
vt 0.297974 0.063254
vt 0.297974 0.063254
vt 0.261742 0.063254
vt 0.245890 0.063254
vt 0.261742 0.063254
vt 0.261742 0.063254
vt 0.268402 0.059291
vt 0.327087 0.061154
vt 0.261742 0.063254
vt 0.297974 0.063254
vt 0.261742 0.063254
vt 0.261742 0.063254
vt 0.261742 0.063254
vt 0.261742 0.063254
vt 0.297974 0.063254
vt 0.297974 0.063254
vt 0.261742 0.063254
vt 0.245890 0.063254
vt 0.245890 0.063254
vt 0.245890 0.063254
vt 0.297974 0.063254
vt 0.268402 0.059291
vt 0.261742 0.063254
vt 0.356903 0.062086
vt 0.356903 0.062086
vt 0.261742 0.063254
vt 0.261742 0.063254
vt 0.297974 0.063254
vt 0.297974 0.063254
vt 0.297974 0.063254
vt 0.297974 0.063254
vt 0.297974 0.063254
vt 0.297974 0.063254
vt 0.297974 0.063254
vt 0.297974 0.063254
vt 0.261742 0.063254
vt 0.261742 0.063254
vt 0.261742 0.063254
vt 0.261742 0.063254
vt 0.245890 0.063254
vt 0.245890 0.063254
vt 0.245890 0.063254
vt 0.245890 0.063254
vt 0.261742 0.063254
vt 0.261742 0.063254
vt 0.261742 0.063254
vt 0.261742 0.063254
vt 0.327087 0.061154
vt 0.329181 0.062752
vt 0.329181 0.062752
vt 0.301941 0.057427
vt 0.352810 0.062752
vt 0.352810 0.062752
vt 0.359711 0.061154
vt 0.359711 0.061154
vt 0.329181 0.062752
vt 0.327087 0.061154
vt 0.301941 0.057427
vt 0.329181 0.062752
vt 0.300260 0.062752
vt 0.300260 0.062752
vt 0.300260 0.062752
vt 0.300260 0.062752
vt 0.296356 0.062086
vt 0.296356 0.062086
vt 0.296356 0.062086
vt 0.296356 0.062086
vt 0.300260 0.062752
vt 0.300260 0.062752
vt 0.300260 0.062752
vt 0.300260 0.062752
vt 0.300260 0.062752
vt 0.352810 0.062752
vt 0.352810 0.062752
vt 0.352810 0.062752
vt 0.352810 0.062752
vt 0.352810 0.062752
vt 0.352810 0.062752
vt 0.298218 0.062086
vt 0.298218 0.062086
vt 0.298218 0.062086
vt 0.298218 0.062086
vt 0.355042 0.059291
vt 0.352810 0.062752
vt 0.352810 0.062752
vt 0.352810 0.062752
vt 0.355042 0.059291
vt 0.298218 0.062086
vt 0.352810 0.062752
vt 0.298218 0.062086
vt 0.298218 0.062086
vt 0.298218 0.062086
vt 0.298218 0.062086
vt 0.300260 0.062752
vt 0.300260 0.062752
vt 0.300260 0.062752
vt 0.300260 0.062752
vt 0.300260 0.062752
vt 0.233002 0.061154
vt 0.233002 0.061154
vt 0.233002 0.061154
vt 0.233002 0.061154
vt 0.355042 0.059291
vt 0.352810 0.062752
vt 0.355042 0.059291
vt 0.355042 0.059291
vt 0.352810 0.062752
vt 0.300079 0.061154
vt 0.300079 0.061154
vt 0.300079 0.061154
vt 0.300079 0.061154
vt 0.300079 0.061154
vt 0.300079 0.061154
vt 0.300079 0.061154
vt 0.300079 0.061154
vt 0.297974 0.059666
vt 0.297974 0.059666
vt 0.297974 0.059666
vt 0.297974 0.059666
vt 0.297974 0.059666
vt 0.297974 0.059666
vt 0.352810 0.059164
vt 0.356903 0.062086
vt 0.356903 0.062086
vt 0.356903 0.062086
vt 0.356903 0.062086
vt 0.356903 0.062086
vt 0.261742 0.063254
vt 0.261742 0.063254
vt 0.268402 0.059291
vt 0.268402 0.059291
vt 0.261742 0.063254
vt 0.261742 0.063254
vt 0.261742 0.063254
vt 0.261742 0.063254
vt 0.352810 0.062752
vt 0.262817 0.061154
vt 0.295780 0.062752
vt 0.352810 0.062752
vt 0.301941 0.057427
vt 0.327087 0.061154
vt 0.295780 0.062752
vt 0.301941 0.057427
vt 0.262817 0.061154
vt 0.262817 0.061154
vt 0.262817 0.061154
vt 0.329181 0.062752
vt 0.295780 0.062752
vt 0.329181 0.062752
vt 0.327087 0.061154
vt 0.327087 0.061154
vt 0.262817 0.061154
vt 0.352810 0.062752
vt 0.301941 0.057427
vt 0.301941 0.057427
vt 0.352810 0.062752
vt 0.327087 0.061154
vt 0.301941 0.057427
vt 0.301941 0.057427
vt 0.262817 0.061154
vt 0.262817 0.061154
vt 0.262817 0.061154
vt 0.329181 0.062752
vt 0.329181 0.062752
vt 0.301941 0.057427
vt 0.327087 0.061154
vt 0.359711 0.061154
vt 0.299142 0.216755
vt 0.359711 0.061154
vt 0.299142 0.216755
vt 0.352810 0.062752
vt 0.299142 0.216755
vt 0.352810 0.062752
vt 0.299142 0.216755
vt 0.352810 0.062752
vt 0.352810 0.062752
vt 0.299142 0.216755
vt 0.352810 0.062752
vt 0.299142 0.216755
vt 0.352810 0.062752
vt 0.355042 0.059291
vt 0.299142 0.216755
vt 0.297974 0.059666
vt 0.297974 0.059666
vt 0.352810 0.059164
vt 0.299142 0.216755
vt 0.352810 0.062752
vt 0.299142 0.216755
vt 0.299142 0.216755
vt 0.352810 0.060958
vt 0.299142 0.216755
vt 0.352810 0.062752
vt 0.352810 0.060958
vt 0.299142 0.216755
vt 0.299142 0.216755
vt 0.298218 0.062086
vt 0.352810 0.060958
vt 0.299142 0.216755
vt 0.352810 0.062752
vt 0.352810 0.060958
vt 0.352810 0.060958
vt 0.299142 0.216755
vt 0.352810 0.060958
vt 0.299142 0.216755
vt 0.352810 0.062752
vt 0.352810 0.059164
vt 0.352810 0.059164
vt 0.352810 0.059164
vt 0.352810 0.059164
vt 0.352810 0.059164
vt 0.352810 0.059164
vt 0.352810 0.059164
vt 0.352810 0.059164
vt 0.270264 0.059291
vt 0.270264 0.059291
vt 0.270264 0.059291
vt 0.270264 0.059291
vt 0.270264 0.059291
vt 0.270264 0.059291
vt 0.270264 0.059291
vt 0.270264 0.059291
vn 1.000000 0.000000 0.000000
vn 1.000000 0.000000 0.000000
vn 1.000000 0.000000 0.000000
vn 1.000000 0.000000 0.000000
vn 1.000000 0.000002 0.000000
vn 1.000000 0.000002 0.000000
vn 1.000000 0.000002 0.000000
vn 1.000000 0.000002 0.000000
vn 1.000000 0.000000 0.000000
vn 1.000000 0.000000 0.000000
vn 1.000000 0.000000 0.000000
vn 1.000000 0.000000 0.000000
vn 0.000000 0.000000 1.000000
vn 0.000000 0.000000 1.000000
vn 0.000000 0.000000 1.000000
vn 0.000000 0.000000 1.000000
vn 0.000000 -1.000000 0.000000
vn 0.000000 -1.000000 0.000000
vn 0.000000 -1.000000 0.000000
vn 0.000000 -1.000000 0.000000
vn 0.000000 0.000000 -1.000000
vn 0.000000 0.000000 -1.000000
vn 0.000000 0.000000 -1.000000
vn 0.000000 0.000000 -1.000000
vn 0.000000 0.000000 1.000000
vn 0.000000 0.000000 1.000000
vn 0.000000 0.000000 1.000000
vn 0.000000 0.000000 1.000000
vn 0.000000 0.000000 -1.000000
vn 0.000000 0.000000 -1.000000
vn 0.000000 0.000000 -1.000000
vn 0.000000 0.000000 -1.000000
vn -1.000000 0.000000 0.000000
vn -1.000000 0.000000 0.000000
vn -1.000000 0.000000 0.000000
vn -1.000000 0.000000 0.000000
vn -1.000000 0.000000 0.000000
vn -1.000000 0.000000 0.000000
vn -1.000000 0.000000 0.000000
vn -1.000000 0.000000 0.000000
vn -1.000000 0.000000 0.000000
vn -1.000000 0.000000 0.000000
vn -1.000000 0.000000 0.000000
vn -1.000000 0.000000 0.000000
vn 0.000000 0.000000 1.000000
vn 0.000000 0.000000 1.000000
vn 0.000000 0.000000 1.000000
vn 0.000000 0.000000 1.000000
vn 0.000000 -1.000000 0.000000
vn 0.000000 -1.000000 0.000000
vn 0.000000 -1.000000 0.000000
vn 0.000000 -1.000000 0.000000
vn 0.000000 0.000000 -1.000000
vn 0.000000 0.000000 -1.000000
vn 0.000000 0.000000 -1.000000
vn 0.000000 0.000000 -1.000000
vn 0.000000 0.945981 0.324222
vn 0.000000 0.945981 0.324222
vn 0.000000 0.945981 0.324222
vn 0.000000 0.945981 0.324222
vn 0.000000 1.000000 -0.000000
vn 0.000000 1.000000 0.000000
vn 0.000000 1.000000 0.000000
vn 0.000000 1.000000 -0.000000
vn 0.000000 0.945981 -0.324223
vn 0.000000 0.945981 -0.324223
vn 0.000000 0.945981 -0.324223
vn 0.000000 0.945981 -0.324223
vn 0.810618 0.585575 0.000001
vn 0.810618 0.585575 -0.000001
vn 0.810617 0.585577 -0.000001
vn 0.810617 0.585577 0.000001
vn -0.810620 0.585572 0.000000
vn -0.810620 0.585573 0.000000
vn -0.810620 0.585573 -0.000000
vn -0.810620 0.585573 -0.000000
vn 0.810617 0.585577 -0.000001
vn 0.810618 0.585575 -0.000001
vn 0.810620 0.585573 -0.000001
vn 0.810620 0.585573 -0.000001
vn 0.810620 0.585573 -0.000001
vn 0.000000 1.000000 0.000000
vn 0.000000 1.000000 0.000000
vn 0.000000 1.000000 0.000000
vn 0.000000 1.000000 0.000000
vn -0.810620 0.585573 0.000000
vn -0.810620 0.585573 0.000000
vn -0.810620 0.585573 0.000000
vn -0.810620 0.585572 0.000000
vn -0.810620 0.585573 0.000000
vn 0.000000 1.000000 -0.000000
vn 0.000000 1.000000 -0.000000
vn 0.000000 1.000000 -0.000000
vn 0.000000 1.000000 -0.000000
vn 0.810620 0.585573 0.000001
vn 0.810620 0.585573 0.000001
vn 0.810618 0.585575 0.000001
vn 0.810617 0.585577 0.000001
vn 0.810620 0.585573 0.000001
vn -0.810620 0.585573 -0.000000
vn -0.810620 0.585573 -0.000000
vn -0.810620 0.585573 -0.000000
vn -0.810620 0.585573 -0.000000
vn -0.810620 0.585573 -0.000000
vn 0.000000 1.000000 0.000000
vn 0.000000 1.000000 0.000000
vn 0.000000 1.000000 0.000000
vn 0.000000 1.000000 0.000000
vn 0.000000 1.000000 0.000000
vn 0.000000 1.000000 0.000000
vn 0.000000 1.000000 -0.000000
vn 0.000000 1.000000 -0.000000
vn -1.000000 0.000000 0.000000
vn -1.000000 0.000000 0.000000
vn -1.000000 0.000000 0.000000
vn -1.000000 0.000000 0.000000
vn 0.000000 0.000000 1.000000
vn 0.000000 0.000000 1.000000
vn 0.000000 0.000000 1.000000
vn 0.000000 0.000000 1.000000
vn 0.000000 0.000000 -1.000000
vn 0.000000 0.000000 -1.000000
vn 0.000000 0.000000 -1.000000
vn 0.000000 0.000000 -1.000000
vn 1.000000 0.000000 0.000000
vn 1.000000 0.000000 0.000000
vn 1.000000 0.000000 0.000000
vn 1.000000 0.000000 0.000000
vn 0.000000 1.000000 0.000000
vn 0.000000 1.000000 0.000000
vn 0.000000 1.000000 0.000000
vn 0.000000 1.000000 0.000000
vn 0.000000 1.000000 0.000000
vn 0.000000 1.000000 0.000000
vn 0.000000 1.000000 0.000000
vn 0.000000 1.000000 0.000000
vn 0.000000 0.000000 1.000000
vn 0.000000 0.000000 1.000000
vn 0.000000 0.000000 1.000000
vn 0.000000 0.000000 1.000000
vn 0.000000 0.000000 -1.000000
vn 0.000000 0.000000 -1.000000
vn 0.000000 0.000000 -1.000000
vn 0.000000 0.000000 -1.000000
vn 0.000000 0.945981 0.324222
vn 0.000000 0.945981 0.324222
vn 0.000000 0.945981 0.324222
vn 0.000000 0.945981 0.324222
vn 1.000000 0.000000 0.000000
vn 1.000000 0.000000 0.000000
vn 1.000000 0.000000 0.000000
vn -1.000000 0.000000 0.000000
vn -1.000000 0.000000 0.000000
vn -1.000000 0.000000 0.000000
vn 0.000000 0.000000 1.000000
vn 0.000000 0.000000 1.000000
vn 0.000000 0.000000 1.000000
vn 0.000000 0.000000 1.000000
vn 0.000000 0.945981 -0.324223
vn 0.000000 0.945981 -0.324223
vn 0.000000 0.945981 -0.324223
vn 0.000000 0.945981 -0.324223
vn -1.000000 0.000000 0.000000
vn -1.000000 0.000000 0.000000
vn -1.000000 0.000000 0.000000
vn 1.000000 0.000000 0.000000
vn 1.000000 0.000000 0.000000
vn 1.000000 0.000000 0.000000
vn 0.000000 0.000000 -1.000000
vn 0.000000 0.000000 -1.000000
vn 0.000000 0.000000 -1.000000
vn 0.000000 0.000000 -1.000000
vn 0.000000 1.000000 0.000000
vn 0.000000 1.000000 0.000000
vn 0.000000 1.000000 0.000000
vn 0.000000 1.000000 0.000000
vn 0.000000 1.000000 0.000000
vn 0.000000 1.000000 0.000000
vn 0.000000 1.000000 0.000000
vn 0.000000 1.000000 0.000000
vn 0.000000 1.000000 0.000000
vn 0.000000 1.000000 0.000000
vn 0.000000 1.000000 0.000000
vn 0.000000 1.000000 0.000000
vn 0.000000 1.000000 0.000000
vn 0.000000 1.000000 0.000000
vn 0.000000 1.000000 0.000000
vn 0.000000 1.000000 0.000000
vn 0.000000 1.000000 0.000000
vn 0.000000 1.000000 0.000000
vn 0.000000 1.000000 0.000000
vn 0.000000 1.000000 0.000000
vn 0.000000 1.000000 0.000000
vn 0.000000 1.000000 0.000000
vn 0.000000 1.000000 0.000000
vn 0.000000 1.000000 -0.000000
vn 0.000000 1.000000 -0.000000
vn 0.000000 1.000000 -0.000000
vn 0.000000 1.000000 -0.000000
vn 0.000000 1.000000 0.000000
vn 0.000000 1.000000 0.000000
vn 0.000000 1.000000 0.000000
vn 0.000000 1.000000 0.000000
vn 0.000000 1.000000 0.000000
vn 0.000000 1.000000 0.000000
vn 0.000000 1.000000 0.000000
vn 0.000000 1.000000 0.000000
vn 0.000000 1.000000 0.000000
vn 0.000000 1.000000 0.000000
vn 0.000000 1.000000 0.000000
vn 0.000000 1.000000 0.000000
vn 0.000000 1.000000 0.000000
vn 0.000000 1.000000 0.000000
vn 0.000000 1.000000 0.000000
vn 0.000000 1.000000 0.000000
vn 0.000000 1.000000 0.000000
vn 0.000000 1.000000 -0.000000
vn 0.000000 1.000000 -0.000000
vn 0.000000 1.000000 -0.000000
vn 0.000000 1.000000 -0.000000
vn 0.000000 1.000000 0.000001
vn 0.000000 1.000000 0.000001
vn 0.000000 1.000000 0.000001
vn 0.000000 1.000000 0.000001
vn 0.000000 1.000000 0.000000
vn 0.000000 1.000000 0.000000
vn 0.000000 1.000000 0.000000
vn 0.000000 1.000000 0.000000
s off
f 4/5/1 3/6/2 7/188/3 5/20/4
f 3/122/5 2/2/6 8/189/7 7/26/8
f 2/121/9 1/21/10 6/7/11 8/15/12
f 5/8/13 7/18/14 11/16/15 9/17/16
f 7/9/17 8/25/18 12/23/19 11/24/20
f 8/10/21 6/19/22 10/11/23 12/14/24
f 2/22/25 37/137/26 35/138/27 1/1/28
f 39/133/29 32/134/30 16/31/31 15/32/32
f 16/33/33 17/34/34 19/35/35 15/125/36
f 15/36/37 19/123/38 20/37/39 14/126/40
f 14/38/41 20/124/42 18/39/43 13/40/44
f 17/41/45 9/42/46 11/43/47 19/44/48
f 19/45/49 11/46/50 12/47/51 20/48/52
f 20/49/53 12/50/54 10/51/55 18/52/56
f 49/152/57 50/154/58 22/54/59 24/55/60
f 41/57/61 42/58/62 65/181/63 66/192/64
f 25/61/65 55/169/66 56/168/67 27/64/68
f 37/65/69 38/66/70 30/67/71 34/68/72
f 31/69/73 39/70/74 40/71/75 33/72/76
f 30/73/77 38/74/78 29/75/79 28/76/80 26/77/81
f 65/185/82 42/79/83 44/80/84 67/183/85
f 27/84/86 32/85/87 39/86/88 31/87/89 25/93/90
f 66/88/91 68/92/92 43/108/93 41/110/94
f 22/95/95 35/96/96 37/97/97 34/98/98 24/201/99
f 33/99/100 40/100/101 36/101/102 21/102/103 23/103/104
f 46/104/105 48/105/106 47/106/107 45/107/108
f 67/111/109 44/186/110 43/108/111 68/92/112
f 45/113/113 43/114/114 44/115/115 46/116/116
f 46/219/117 44/220/118 42/221/119 48/222/120
f 45/223/121 47/224/122 41/225/123 43/226/124
f 47/119/125 48/118/126 42/117/127 41/120/128
f 40/3/129 39/29/130 15/30/131 14/128/132
f 3/129/133 38/130/134 37/131/135 2/132/136
f 36/12/137 40/27/138 14/135/139 13/136/140
f 4/28/141 29/4/142 38/140/143 3/139/144
f 21/13/145 52/53/146 51/62/147 23/146/148
f 51/56/149 52/63/150 53/145/151
f 50/147/152 49/143/153 54/153/154
f 53/142/155 54/149/156 49/150/157 51/151/158
f 58/155/159 57/156/160 26/162/161 28/171/162
f 57/148/163 58/159/164 59/160/165
f 56/163/166 55/164/167 60/170/168
f 59/157/169 60/165/170 55/166/171 57/167/172
f 31/59/173 33/60/174 62/172/175 61/174/176
f 30/210/177 26/81/178 63/127/179
f 26/206/180 57/82/181 63/190/182
f 57/205/183 55/161/184 61/218/185 63/212/186
f 55/204/187 25/158/188 61/217/189
f 25/202/190 31/83/191 61/78/192
f 23/176/193 51/89/194 62/215/195
f 51/198/196 49/144/197 64/214/198 62/211/199
f 49/197/200 24/141/201 64/213/202
f 24/195/203 34/90/204 64/91/205
f 33/178/206 23/94/207 62/216/208
f 34/208/209 30/112/210 63/109/211 64/180/212
f 61/193/213 62/173/214 66/209/215 65/182/216
f 63/199/217 61/175/218 65/203/219 67/200/220
f 62/184/221 64/177/222 68/196/223 66/194/224
f 64/187/225 63/179/226 67/207/227 68/191/228
