# This file uses centimeters as units for non-parametric coordinates.

v -29.036392 -29.113808 29.036398
v 29.036394 -29.113806 29.036398
v -29.036392 29.113808 29.036398
v 29.036388 29.113806 29.036392
v -29.036392 29.113815 -29.036388
v 29.036404 29.113819 -29.036392
v -29.036392 -29.113811 -29.036388
v 29.036407 -29.113819 -29.036392
v 35.466732 0.000000 35.466740
v 0.000003 35.733730 35.629318
v -35.629307 35.733738 0.000009
v 35.629318 35.733730 0.000008
v 0.000004 35.733738 -35.629314
v -35.466732 0.000000 -35.466732
v 35.466755 0.000000 -35.466740
v 0.000004 -35.733730 -35.629307
v -35.629307 -35.733738 0.000009
v 35.629314 -35.733727 0.000008
v 0.000003 -35.733727 35.629318
v -35.466732 0.000000 35.466743
v 0.000003 -0.000000 50.161392
v 0.023546 50.884399 -0.033865
v 0.000004 -0.000000 -50.161392
v 0.041246 -50.884399 -0.000856
v 50.161385 -0.000000 0.000007
v -50.161388 -0.000000 0.000009
v 0.000003 -19.751537 46.198120
v -19.686199 -0.000000 45.970242
v 17.033260 -33.554287 33.534580
v 33.433613 -16.846218 33.433617
v 19.686203 -0.000000 45.970238
v 0.000003 19.751537 46.198120
v 33.433617 16.846218 33.433617
v 17.033258 33.554287 33.534580
v -33.433609 16.846222 33.433620
v -17.033255 33.554287 33.534580
v -33.534573 33.554287 17.033262
v 0.000004 46.578575 19.920910
v -19.920897 46.578575 0.000009
v 33.534576 33.554287 17.033264
v 19.920902 46.578575 0.000008
v 0.000004 46.578575 -19.920893
v 33.534588 33.554295 -17.033253
v 17.033262 33.554295 -33.534573
v -33.534573 33.554295 -17.033249
v -17.033255 33.554295 -33.534569
v -33.433613 16.846224 -33.433605
v 0.000004 19.751543 -46.198112
v -19.686203 -0.000000 -45.970238
v 33.433628 16.846228 -33.433613
v 19.686214 -0.000000 -45.970249
v 0.000004 -19.751545 -46.198112
v 33.433628 -16.846228 -33.433613
v 17.033262 -33.554295 -33.534569
v -33.433613 -16.846222 -33.433605
v -17.033255 -33.554298 -33.534569
v -33.534569 -33.554287 -17.033251
v 0.000004 -46.578575 -19.920893
v -19.920898 -46.578575 0.000009
v 33.534588 -33.554298 -17.033253
v 19.920902 -46.578575 0.000008
v 0.000004 -46.578575 19.920910
v 33.534576 -33.554287 17.033266
v -33.534573 -33.554295 17.033266
v 46.198105 -19.751537 0.000008
v 45.970230 -0.000000 19.686207
v 45.970261 -0.000000 -19.686203
v 46.198109 19.751537 0.000008
v -46.198109 -19.751539 0.000009
v -45.970234 0.000000 -19.686197
v -45.970234 -0.000000 19.686211
v -46.198120 19.751539 0.000009
v -17.033255 -33.554287 33.534576
v -33.433609 -16.846222 33.433620
v -18.319981 -18.343334 42.844719
v 18.319988 -18.343334 42.844719
v 18.319988 18.343334 42.844719
v -18.319981 18.343334 42.844719
v -18.520655 43.307682 18.520664
v 18.520662 43.307678 18.520668
v 18.520664 43.307686 -18.520653
v -18.520657 43.307678 -18.520653
v -18.319984 18.343338 -42.844715
v 18.319994 18.343340 -42.844723
v 18.319992 -18.343338 -42.844715
v -18.319984 -18.343338 -42.844723
v -18.520657 -43.307682 -18.520653
v 18.520664 -43.307686 -18.520653
v 18.520662 -43.307678 18.520668
v -18.520655 -43.307682 18.520666
v 42.844707 -18.343334 18.319992
v 42.844730 -18.343340 -18.319981
v 42.844730 18.343340 -18.319981
v 42.844711 18.343330 18.319992
v -42.844711 -18.343334 -18.319979
v -42.844707 -18.343334 18.319996
v -42.844711 18.343334 18.319996
v -42.844711 18.343334 -18.319979
vt 0.485612 0.376753
vt 0.485612 0.376753
vt 0.485612 0.376753
vt 0.485612 0.376753
vt 0.485612 0.376753
vt 0.485612 0.376753
vt 0.485612 0.376753
vt 0.485612 0.376753
vt 0.485612 0.376753
vt 0.485612 0.376753
vt 0.485612 0.376753
vt 0.485612 0.376753
vt 0.485612 0.376753
vt 0.485612 0.376753
vt 0.485612 0.376753
vt 0.485612 0.376753
vt 0.485612 0.376753
vt 0.485612 0.376753
vt 0.485612 0.376753
vt 0.485612 0.376753
vt 0.485612 0.376753
vt 0.485612 0.376753
vt 0.485612 0.376753
vt 0.485612 0.376753
vt 0.485612 0.376753
vt 0.485612 0.376753
vt 0.485612 0.376753
vt 0.485612 0.376753
vt 0.485612 0.376753
vt 0.485612 0.376753
vt 0.485612 0.376753
vt 0.485612 0.376753
vt 0.485612 0.376753
vt 0.485612 0.376753
vt 0.485612 0.376753
vt 0.485612 0.376753
vt 0.485612 0.376753
vt 0.485612 0.376753
vt 0.485612 0.376753
vt 0.485612 0.376753
vt 0.485612 0.376753
vt 0.485612 0.376753
vt 0.485612 0.376753
vt 0.485612 0.376753
vt 0.485612 0.376753
vt 0.485612 0.376753
vt 0.485612 0.376753
vt 0.485612 0.376753
vt 0.485612 0.376753
vt 0.485612 0.376753
vt 0.485612 0.376753
vt 0.485612 0.376753
vt 0.485612 0.376753
vt 0.485612 0.376753
vt 0.485612 0.376753
vt 0.485612 0.376753
vt 0.485612 0.376753
vt 0.485612 0.376753
vt 0.485612 0.376753
vt 0.485612 0.376753
vt 0.485612 0.376753
vt 0.485612 0.376753
vt 0.485612 0.376753
vt 0.485612 0.376753
vt 0.485612 0.376753
vt 0.485612 0.376753
vt 0.485612 0.376753
vt 0.485612 0.376753
vt 0.485612 0.376753
vt 0.485612 0.376753
vt 0.485612 0.376753
vt 0.485612 0.376753
vt 0.485612 0.376753
vt 0.485612 0.376753
vt 0.485612 0.376753
vt 0.485612 0.376753
vt 0.485612 0.376753
vt 0.485612 0.376753
vt 0.485612 0.376753
vt 0.485612 0.376753
vt 0.485612 0.376753
vt 0.485612 0.376753
vt 0.485612 0.376753
vt 0.485612 0.376753
vt 0.485612 0.376753
vt 0.485612 0.376753
vt 0.485612 0.376753
vt 0.485612 0.376753
vt 0.485612 0.376753
vt 0.485612 0.376753
vt 0.485612 0.376753
vt 0.485612 0.376753
vt 0.485612 0.376753
vt 0.485612 0.376753
vt 0.485612 0.376753
vt 0.485612 0.376753
vt 0.485612 0.376753
vt 0.485612 0.376753
vn -0.482241 -0.468888 0.739991
vn -0.482241 -0.468888 0.739991
vn -0.482241 -0.468888 0.739991
vn -0.482241 -0.468888 0.739991
vn -0.181448 -0.533820 0.825901
vn -0.181448 -0.533820 0.825901
vn -0.181448 -0.533820 0.825901
vn -0.181448 -0.533820 0.825901
vn -0.197937 -0.186179 0.962371
vn -0.197937 -0.186179 0.962371
vn -0.197937 -0.186179 0.962371
vn -0.197937 -0.186179 0.962371
vn -0.539543 -0.172917 0.824011
vn -0.539543 -0.172917 0.824011
vn -0.539543 -0.172917 0.824011
vn -0.539543 -0.172917 0.824011
vn 0.181448 -0.533820 0.825901
vn 0.181448 -0.533820 0.825901
vn 0.181448 -0.533820 0.825901
vn 0.181448 -0.533820 0.825901
vn 0.482241 -0.468888 0.739991
vn 0.482241 -0.468888 0.739991
vn 0.482241 -0.468888 0.739991
vn 0.482241 -0.468888 0.739991
vn 0.539543 -0.172917 0.824011
vn 0.539543 -0.172917 0.824011
vn 0.539543 -0.172917 0.824011
vn 0.539543 -0.172917 0.824011
vn 0.197937 -0.186179 0.962371
vn 0.197937 -0.186179 0.962371
vn 0.197937 -0.186179 0.962371
vn 0.197937 -0.186179 0.962371
vn 0.197937 0.186179 0.962371
vn 0.197937 0.186179 0.962371
vn 0.197937 0.186179 0.962371
vn 0.197937 0.186179 0.962371
vn 0.539543 0.172917 0.824011
vn 0.539543 0.172917 0.824011
vn 0.539543 0.172917 0.824011
vn 0.539543 0.172917 0.824011
vn 0.482242 0.468888 0.739991
vn 0.482241 0.468888 0.739991
vn 0.482242 0.468888 0.739991
vn 0.482241 0.468888 0.739991
vn 0.181448 0.533820 0.825901
vn 0.181448 0.533820 0.825901
vn 0.181448 0.533820 0.825901
vn 0.181448 0.533820 0.825901
vn -0.539543 0.172917 0.824011
vn -0.539543 0.172917 0.824011
vn -0.539543 0.172917 0.824011
vn -0.539543 0.172917 0.824011
vn -0.197937 0.186179 0.962371
vn -0.197937 0.186179 0.962371
vn -0.197937 0.186179 0.962371
vn -0.197937 0.186179 0.962371
vn -0.181448 0.533820 0.825901
vn -0.181448 0.533820 0.825901
vn -0.181448 0.533820 0.825901
vn -0.181448 0.533820 0.825901
vn -0.482241 0.468888 0.739991
vn -0.482241 0.468888 0.739991
vn -0.482241 0.468888 0.739991
vn -0.482241 0.468888 0.739991
vn -0.488211 0.723396 0.488210
vn -0.488210 0.723396 0.488210
vn -0.488210 0.723396 0.488210
vn -0.488210 0.723396 0.488210
vn -0.179094 0.813130 0.553846
vn -0.179095 0.813130 0.553846
vn -0.179095 0.813130 0.553846
vn -0.179094 0.813130 0.553846
vn -0.196211 0.960730 0.196211
vn -0.196211 0.960730 0.196211
vn -0.196211 0.960730 0.196211
vn -0.196211 0.960730 0.196211
vn -0.553846 0.813130 0.179095
vn -0.553846 0.813130 0.179095
vn -0.553846 0.813130 0.179095
vn -0.553846 0.813130 0.179095
vn 0.179095 0.813130 0.553846
vn 0.179095 0.813130 0.553846
vn 0.179095 0.813130 0.553846
vn 0.179095 0.813130 0.553846
vn 0.488211 0.723395 0.488211
vn 0.488211 0.723395 0.488211
vn 0.488211 0.723395 0.488211
vn 0.488211 0.723395 0.488211
vn 0.553846 0.813130 0.179094
vn 0.553846 0.813130 0.179094
vn 0.553846 0.813130 0.179094
vn 0.553846 0.813130 0.179094
vn 0.196441 0.960636 0.196441
vn 0.196441 0.960636 0.196441
vn 0.196441 0.960636 0.196441
vn 0.196441 0.960636 0.196441
vn 0.196773 0.960500 -0.196773
vn 0.196773 0.960500 -0.196773
vn 0.196773 0.960500 -0.196773
vn 0.196773 0.960500 -0.196773
vn 0.553845 0.813130 -0.179094
vn 0.553846 0.813130 -0.179094
vn 0.553845 0.813130 -0.179094
vn 0.553845 0.813130 -0.179094
vn 0.488210 0.723396 -0.488210
vn 0.488210 0.723396 -0.488211
vn 0.488210 0.723396 -0.488211
vn 0.488210 0.723396 -0.488210
vn 0.179094 0.813130 -0.553845
vn 0.179095 0.813130 -0.553845
vn 0.179095 0.813130 -0.553845
vn 0.179095 0.813130 -0.553845
vn -0.553845 0.813130 -0.179095
vn -0.553845 0.813130 -0.179095
vn -0.553845 0.813130 -0.179095
vn -0.553845 0.813130 -0.179095
vn -0.196542 0.960595 -0.196542
vn -0.196542 0.960595 -0.196542
vn -0.196542 0.960595 -0.196542
vn -0.196542 0.960595 -0.196542
vn -0.179095 0.813130 -0.553845
vn -0.179095 0.813130 -0.553845
vn -0.179095 0.813130 -0.553845
vn -0.179095 0.813130 -0.553845
vn -0.488210 0.723396 -0.488210
vn -0.488210 0.723396 -0.488210
vn -0.488210 0.723396 -0.488210
vn -0.488210 0.723396 -0.488210
vn -0.482241 0.468888 -0.739991
vn -0.482241 0.468888 -0.739991
vn -0.482241 0.468888 -0.739991
vn -0.482241 0.468888 -0.739991
vn -0.181448 0.533820 -0.825901
vn -0.181448 0.533820 -0.825901
vn -0.181448 0.533820 -0.825901
vn -0.181448 0.533820 -0.825901
vn -0.197937 0.186179 -0.962371
vn -0.197937 0.186179 -0.962371
vn -0.197937 0.186179 -0.962371
vn -0.197937 0.186179 -0.962371
vn -0.539543 0.172917 -0.824010
vn -0.539543 0.172917 -0.824010
vn -0.539543 0.172917 -0.824010
vn -0.539543 0.172917 -0.824010
vn 0.181448 0.533820 -0.825901
vn 0.181448 0.533820 -0.825901
vn 0.181448 0.533820 -0.825901
vn 0.181448 0.533820 -0.825901
vn 0.482241 0.468889 -0.739991
vn 0.482241 0.468889 -0.739991
vn 0.482241 0.468889 -0.739991
vn 0.482241 0.468889 -0.739991
vn 0.539543 0.172917 -0.824010
vn 0.539543 0.172917 -0.824010
vn 0.539543 0.172917 -0.824011
vn 0.539543 0.172917 -0.824010
vn 0.197937 0.186180 -0.962371
vn 0.197937 0.186180 -0.962371
vn 0.197937 0.186180 -0.962371
vn 0.197937 0.186180 -0.962371
vn 0.197937 -0.186180 -0.962371
vn 0.197937 -0.186180 -0.962371
vn 0.197937 -0.186180 -0.962371
vn 0.197937 -0.186180 -0.962371
vn 0.539543 -0.172917 -0.824010
vn 0.539543 -0.172917 -0.824010
vn 0.539543 -0.172917 -0.824011
vn 0.539543 -0.172917 -0.824010
vn 0.482241 -0.468888 -0.739992
vn 0.482241 -0.468888 -0.739992
vn 0.482241 -0.468888 -0.739992
vn 0.482241 -0.468888 -0.739992
vn 0.181448 -0.533820 -0.825901
vn 0.181448 -0.533820 -0.825901
vn 0.181448 -0.533820 -0.825901
vn 0.181448 -0.533820 -0.825901
vn -0.539543 -0.172917 -0.824010
vn -0.539543 -0.172917 -0.824010
vn -0.539543 -0.172917 -0.824010
vn -0.539543 -0.172917 -0.824010
vn -0.197937 -0.186179 -0.962371
vn -0.197937 -0.186179 -0.962371
vn -0.197937 -0.186179 -0.962371
vn -0.197937 -0.186179 -0.962371
vn -0.181448 -0.533820 -0.825901
vn -0.181448 -0.533820 -0.825901
vn -0.181448 -0.533820 -0.825901
vn -0.181448 -0.533820 -0.825901
vn -0.482241 -0.468888 -0.739991
vn -0.482242 -0.468888 -0.739991
vn -0.482242 -0.468888 -0.739991
vn -0.482242 -0.468888 -0.739991
vn -0.488211 -0.723396 -0.488210
vn -0.488211 -0.723396 -0.488210
vn -0.488211 -0.723396 -0.488210
vn -0.488211 -0.723396 -0.488210
vn -0.179094 -0.813130 -0.553846
vn -0.179094 -0.813130 -0.553846
vn -0.179094 -0.813130 -0.553846
vn -0.179094 -0.813130 -0.553846
vn -0.196294 -0.960696 -0.196294
vn -0.196294 -0.960696 -0.196294
vn -0.196294 -0.960696 -0.196294
vn -0.196294 -0.960696 -0.196294
vn -0.553846 -0.813130 -0.179095
vn -0.553846 -0.813130 -0.179095
vn -0.553846 -0.813130 -0.179095
vn -0.553846 -0.813130 -0.179095
vn 0.179094 -0.813130 -0.553846
vn 0.179094 -0.813130 -0.553846
vn 0.179094 -0.813130 -0.553846
vn 0.179094 -0.813130 -0.553846
vn 0.488210 -0.723396 -0.488211
vn 0.488210 -0.723396 -0.488211
vn 0.488210 -0.723396 -0.488211
vn 0.488210 -0.723396 -0.488211
vn 0.553846 -0.813130 -0.179094
vn 0.553846 -0.813130 -0.179094
vn 0.553846 -0.813130 -0.179094
vn 0.553846 -0.813130 -0.179094
vn 0.196698 -0.960531 -0.196698
vn 0.196698 -0.960531 -0.196698
vn 0.196698 -0.960531 -0.196698
vn 0.196698 -0.960531 -0.196698
vn 0.196690 -0.960534 0.196690
vn 0.196690 -0.960534 0.196690
vn 0.196690 -0.960534 0.196690
vn 0.196690 -0.960534 0.196690
vn 0.553846 -0.813130 0.179094
vn 0.553846 -0.813130 0.179094
vn 0.553846 -0.813130 0.179094
vn 0.553846 -0.813130 0.179094
vn 0.488211 -0.723395 0.488211
vn 0.488211 -0.723395 0.488211
vn 0.488211 -0.723395 0.488211
vn 0.488211 -0.723395 0.488211
vn 0.179094 -0.813130 0.553846
vn 0.179094 -0.813130 0.553846
vn 0.179094 -0.813130 0.553846
vn 0.179094 -0.813130 0.553846
vn -0.553846 -0.813130 0.179095
vn -0.553845 -0.813130 0.179095
vn -0.553845 -0.813130 0.179095
vn -0.553846 -0.813130 0.179095
vn -0.196286 -0.960700 0.196286
vn -0.196286 -0.960700 0.196286
vn -0.196286 -0.960700 0.196286
vn -0.196286 -0.960700 0.196286
vn -0.179094 -0.813130 0.553846
vn -0.179094 -0.813130 0.553846
vn -0.179094 -0.813130 0.553846
vn -0.179094 -0.813130 0.553846
vn -0.488210 -0.723395 0.488211
vn -0.488210 -0.723395 0.488211
vn -0.488210 -0.723395 0.488211
vn -0.488210 -0.723395 0.488211
vn 0.739992 -0.468888 0.482241
vn 0.739992 -0.468888 0.482241
vn 0.739992 -0.468888 0.482241
vn 0.739992 -0.468888 0.482241
vn 0.825902 -0.533819 0.181448
vn 0.825902 -0.533819 0.181448
vn 0.825902 -0.533819 0.181448
vn 0.825902 -0.533819 0.181448
vn 0.962371 -0.186179 0.197937
vn 0.962371 -0.186179 0.197937
vn 0.962371 -0.186179 0.197937
vn 0.962371 -0.186179 0.197937
vn 0.824011 -0.172917 0.539543
vn 0.824011 -0.172917 0.539543
vn 0.824011 -0.172917 0.539543
vn 0.824011 -0.172917 0.539543
vn 0.825902 -0.533820 -0.181447
vn 0.825902 -0.533820 -0.181447
vn 0.825902 -0.533820 -0.181447
vn 0.825902 -0.533820 -0.181447
vn 0.739992 -0.468888 -0.482241
vn 0.739992 -0.468888 -0.482241
vn 0.739992 -0.468888 -0.482241
vn 0.739992 -0.468888 -0.482241
vn 0.824011 -0.172917 -0.539543
vn 0.824011 -0.172917 -0.539543
vn 0.824011 -0.172917 -0.539543
vn 0.824011 -0.172917 -0.539543
vn 0.962371 -0.186180 -0.197936
vn 0.962371 -0.186180 -0.197936
vn 0.962371 -0.186180 -0.197936
vn 0.962371 -0.186180 -0.197936
vn 0.962371 0.186179 -0.197936
vn 0.962371 0.186179 -0.197936
vn 0.962371 0.186179 -0.197936
vn 0.962371 0.186179 -0.197936
vn 0.824011 0.172917 -0.539543
vn 0.824011 0.172917 -0.539543
vn 0.824011 0.172917 -0.539543
vn 0.824011 0.172917 -0.539543
vn 0.739991 0.468888 -0.482241
vn 0.739991 0.468888 -0.482241
vn 0.739991 0.468888 -0.482241
vn 0.739991 0.468888 -0.482241
vn 0.825902 0.533820 -0.181447
vn 0.825902 0.533820 -0.181447
vn 0.825902 0.533820 -0.181447
vn 0.825902 0.533820 -0.181447
vn 0.824011 0.172917 0.539542
vn 0.824011 0.172917 0.539543
vn 0.824011 0.172917 0.539543
vn 0.824011 0.172917 0.539543
vn 0.962371 0.186179 0.197937
vn 0.962371 0.186179 0.197937
vn 0.962371 0.186179 0.197937
vn 0.962371 0.186179 0.197937
vn 0.825902 0.533820 0.181448
vn 0.825902 0.533820 0.181448
vn 0.825902 0.533819 0.181448
vn 0.825902 0.533819 0.181448
vn 0.739991 0.468888 0.482241
vn 0.739991 0.468888 0.482241
vn 0.739991 0.468888 0.482241
vn 0.739991 0.468888 0.482241
vn -0.739992 -0.468888 -0.482241
vn -0.739992 -0.468888 -0.482241
vn -0.739992 -0.468888 -0.482241
vn -0.739992 -0.468888 -0.482241
vn -0.825901 -0.533819 -0.181448
vn -0.825901 -0.533819 -0.181448
vn -0.825902 -0.533819 -0.181448
vn -0.825902 -0.533820 -0.181448
vn -0.962371 -0.186180 -0.197937
vn -0.962371 -0.186180 -0.197937
vn -0.962371 -0.186180 -0.197937
vn -0.962371 -0.186180 -0.197937
vn -0.824011 -0.172917 -0.539543
vn -0.824011 -0.172917 -0.539543
vn -0.824011 -0.172917 -0.539543
vn -0.824011 -0.172917 -0.539543
vn -0.825901 -0.533820 0.181448
vn -0.825901 -0.533820 0.181448
vn -0.825901 -0.533820 0.181448
vn -0.825902 -0.533820 0.181448
vn -0.739991 -0.468888 0.482241
vn -0.739991 -0.468888 0.482241
vn -0.739991 -0.468888 0.482241
vn -0.739991 -0.468888 0.482241
vn -0.824011 -0.172917 0.539543
vn -0.824011 -0.172917 0.539543
vn -0.824011 -0.172917 0.539543
vn -0.824011 -0.172917 0.539543
vn -0.962371 -0.186180 0.197937
vn -0.962371 -0.186180 0.197937
vn -0.962371 -0.186180 0.197937
vn -0.962371 -0.186180 0.197937
vn -0.962371 0.186179 0.197937
vn -0.962371 0.186179 0.197937
vn -0.962371 0.186179 0.197938
vn -0.962371 0.186179 0.197937
vn -0.824010 0.172917 0.539543
vn -0.824011 0.172917 0.539543
vn -0.824011 0.172917 0.539543
vn -0.824011 0.172917 0.539543
vn -0.739991 0.468888 0.482241
vn -0.739991 0.468888 0.482241
vn -0.739991 0.468888 0.482241
vn -0.739991 0.468888 0.482241
vn -0.825901 0.533820 0.181448
vn -0.825901 0.533820 0.181448
vn -0.825901 0.533820 0.181448
vn -0.825901 0.533820 0.181448
vn -0.824011 0.172917 -0.539543
vn -0.824011 0.172917 -0.539543
vn -0.824011 0.172917 -0.539543
vn -0.824011 0.172917 -0.539543
vn -0.962371 0.186179 -0.197937
vn -0.962371 0.186179 -0.197937
vn -0.962371 0.186179 -0.197937
vn -0.962371 0.186179 -0.197937
vn -0.825901 0.533820 -0.181448
vn -0.825901 0.533820 -0.181448
vn -0.825901 0.533820 -0.181448
vn -0.825901 0.533820 -0.181448
vn -0.739992 0.468888 -0.482241
vn -0.739992 0.468888 -0.482241
vn -0.739992 0.468888 -0.482241
vn -0.739992 0.468888 -0.482241
s off
f 1/1/1 73/2/2 75/3/3 74/4/4
f 73/2/5 19/5/6 27/6/7 75/3/8
f 75/3/9 27/6/10 21/7/11 28/8/12
f 74/4/13 75/3/14 28/8/15 20/9/16
f 19/5/17 29/10/18 76/11/19 27/6/20
f 29/10/21 2/12/22 30/13/23 76/11/24
f 76/11/25 30/13/26 9/14/27 31/15/28
f 27/6/29 76/11/30 31/15/31 21/7/32
f 21/7/33 31/15/34 77/16/35 32/17/36
f 31/15/37 9/14/38 33/18/39 77/16/40
f 77/16/41 33/18/42 4/19/43 34/20/44
f 32/17/45 77/16/46 34/20/47 10/21/48
f 20/9/49 28/8/50 78/22/51 35/23/52
f 28/8/53 21/7/54 32/17/55 78/22/56
f 78/22/57 32/17/58 10/21/59 36/24/60
f 35/23/61 78/22/62 36/24/63 3/25/64
f 3/25/65 36/24/66 79/26/67 37/27/68
f 36/24/69 10/21/70 38/28/71 79/26/72
f 79/26/73 38/28/74 22/29/75 39/30/76
f 37/27/77 79/26/78 39/30/79 11/31/80
f 10/21/81 34/20/82 80/32/83 38/28/84
f 34/20/85 4/19/86 40/33/87 80/32/88
f 80/32/89 40/33/90 12/34/91 41/35/92
f 38/28/93 80/32/94 41/35/95 22/29/96
f 22/29/97 41/35/98 81/36/99 42/37/100
f 41/35/101 12/34/102 43/38/103 81/36/104
f 81/36/105 43/38/106 6/39/107 44/40/108
f 42/37/109 81/36/110 44/40/111 13/41/112
f 11/31/113 39/30/114 82/42/115 45/43/116
f 39/30/117 22/29/118 42/37/119 82/42/120
f 82/42/121 42/37/122 13/41/123 46/44/124
f 45/43/125 82/42/126 46/44/127 5/45/128
f 5/45/129 46/44/130 83/46/131 47/47/132
f 46/44/133 13/41/134 48/48/135 83/46/136
f 83/46/137 48/48/138 23/49/139 49/50/140
f 47/47/141 83/46/142 49/50/143 14/51/144
f 13/41/145 44/40/146 84/52/147 48/48/148
f 44/40/149 6/39/150 50/53/151 84/52/152
f 84/52/153 50/53/154 15/54/155 51/55/156
f 48/48/157 84/52/158 51/55/159 23/49/160
f 23/49/161 51/55/162 85/56/163 52/57/164
f 51/55/165 15/54/166 53/58/167 85/56/168
f 85/56/169 53/58/170 8/59/171 54/60/172
f 52/57/173 85/56/174 54/60/175 16/61/176
f 14/51/177 49/50/178 86/62/179 55/63/180
f 49/50/181 23/49/182 52/57/183 86/62/184
f 86/62/185 52/57/186 16/61/187 56/64/188
f 55/63/189 86/62/190 56/64/191 7/65/192
f 7/65/193 56/64/194 87/66/195 57/67/196
f 56/64/197 16/61/198 58/68/199 87/66/200
f 87/66/201 58/68/202 24/69/203 59/70/204
f 57/67/205 87/66/206 59/70/207 17/71/208
f 16/61/209 54/60/210 88/72/211 58/68/212
f 54/60/213 8/59/214 60/73/215 88/72/216
f 88/72/217 60/73/218 18/74/219 61/75/220
f 58/68/221 88/72/222 61/75/223 24/69/224
f 24/69/225 61/75/226 89/76/227 62/77/228
f 61/75/229 18/74/230 63/78/231 89/76/232
f 89/76/233 63/78/234 2/12/235 29/10/236
f 62/77/237 89/76/238 29/10/239 19/5/240
f 17/71/241 59/70/242 90/79/243 64/80/244
f 59/70/245 24/69/246 62/77/247 90/79/248
f 90/79/249 62/77/250 19/5/251 73/2/252
f 64/80/253 90/79/254 73/2/255 1/1/256
f 2/12/257 63/78/258 91/81/259 30/13/260
f 63/78/261 18/74/262 65/82/263 91/81/264
f 91/81/265 65/82/266 25/83/267 66/84/268
f 30/13/269 91/81/270 66/84/271 9/14/272
f 18/74/273 60/73/274 92/85/275 65/82/276
f 60/73/277 8/59/278 53/58/279 92/85/280
f 92/85/281 53/58/282 15/54/283 67/86/284
f 65/82/285 92/85/286 67/86/287 25/83/288
f 25/83/289 67/86/290 93/87/291 68/88/292
f 67/86/293 15/54/294 50/53/295 93/87/296
f 93/87/297 50/53/298 6/39/299 43/38/300
f 68/88/301 93/87/302 43/38/303 12/34/304
f 9/14/305 66/84/306 94/89/307 33/18/308
f 66/84/309 25/83/310 68/88/311 94/89/312
f 94/89/313 68/88/314 12/34/315 40/33/316
f 33/18/317 94/89/318 40/33/319 4/19/320
f 7/65/321 57/67/322 95/90/323 55/63/324
f 57/67/325 17/71/326 69/91/327 95/90/328
f 95/90/329 69/91/330 26/92/331 70/93/332
f 55/63/333 95/90/334 70/93/335 14/51/336
f 17/71/337 64/80/338 96/94/339 69/91/340
f 64/80/341 1/1/342 74/4/343 96/94/344
f 96/94/345 74/4/346 20/9/347 71/95/348
f 69/91/349 96/94/350 71/95/351 26/92/352
f 26/92/353 71/95/354 97/96/355 72/97/356
f 71/95/357 20/9/358 35/23/359 97/96/360
f 97/96/361 35/23/362 3/25/363 37/27/364
f 72/97/365 97/96/366 37/27/367 11/31/368
f 14/51/369 70/93/370 98/98/371 47/47/372
f 70/93/373 26/92/374 72/97/375 98/98/376
f 98/98/377 72/97/378 11/31/379 45/43/380
f 47/47/381 98/98/382 45/43/383 5/45/384
