# This file uses centimeters as units for non-parametric coordinates.

v 0.000000 0.000000 0.000005
v 0.000000 0.000000 -19.999994
v 20.000000 0.000000 0.000005
v 20.000000 0.000000 -19.999994
v 0.692801 0.000000 -19.999994
v 0.692800 0.000000 0.000005
v 19.307199 0.000000 -19.999994
v 19.307199 0.000000 0.000005
v 18.646244 0.000000 -19.999994
v 18.646244 0.000000 0.000005
v 1.353756 0.000000 -19.999994
v 1.353756 0.000000 0.000005
v 8.380000 0.000000 -19.999994
v 8.380000 0.000000 0.000005
v 11.620000 0.000000 -19.999994
v 11.620000 0.000000 0.000005
v 11.296000 0.000000 -19.999994
v 11.296000 0.000000 0.000005
v 8.704000 0.000000 -19.999994
v 8.704000 0.000000 0.000005
vt 0.362390 0.061482
vt 0.362390 0.061482
vt 0.362390 0.061482
vt 0.362390 0.061482
vt 0.297098 0.219615
vt 0.362390 0.061482
vt 0.362390 0.061482
vt 0.297098 0.219615
vt 0.297098 0.219615
vt 0.362390 0.061482
vt 0.362390 0.061482
vt 0.297098 0.219615
vt 0.362390 0.061482
vt 0.362390 0.061482
vt 0.362390 0.061482
vt 0.362390 0.061482
vt 0.362390 0.061482
vt 0.362390 0.061482
vt 0.362390 0.061482
vt 0.362390 0.061482
vt 0.297098 0.219615
vt 0.362390 0.061482
vt 0.362390 0.061482
vt 0.362390 0.061482
vt 0.297098 0.219615
vt 0.362390 0.061482
vt 0.297098 0.219615
vt 0.297098 0.219615
vt 0.235953 0.181020
vt 0.235953 0.181020
vt 0.235953 0.181020
vt 0.235953 0.181020
vt 0.235953 0.181020
vt 0.235953 0.181020
vt 0.235953 0.181020
vt 0.235953 0.181020
vn 0.000000 1.000000 0.000000
vn 0.000000 1.000000 0.000000
vn 0.000000 1.000000 0.000000
vn 0.000000 1.000000 0.000000
vn 0.000000 1.000000 0.000000
vn 0.000000 1.000000 0.000000
vn -0.000000 1.000000 -0.000000
vn -0.000000 1.000000 0.000000
vn -0.000000 1.000000 0.000000
vn 0.000000 1.000000 0.000000
vn 0.000000 1.000000 0.000000
vn 0.000000 1.000000 0.000000
vn 0.000000 1.000000 0.000000
vn 0.000000 1.000000 0.000000
vn 0.000000 1.000000 0.000000
vn 0.000000 1.000000 0.000000
vn 0.000000 1.000000 0.000000
vn 0.000000 1.000000 0.000000
vn 0.000000 1.000000 0.000000
vn 0.000000 1.000000 0.000000
s 1
f 17/17/1 19/19/2 20/20/3 18/18/4
f 7/7/5 8/26/6 3/4/7 4/1/8
f 1/3/9 6/6/10 5/23/11 2/2/12
f 9/9/13 10/25/14 8/8/6 7/27/5
f 15/15/15 16/16/16 10/10/14 9/24/13
f 5/5/11 6/28/10 12/12/17 11/21/18
f 11/11/18 12/22/17 14/14/19 13/13/20
f 17/29/1 18/30/4 16/31/16 15/32/15
f 13/33/20 14/34/19 20/35/3 19/36/2
