# This file uses centimeters as units for non-parametric coordinates.

v 0.615391 0.242181 1.049039
v 0.615391 0.242181 -1.049040
v 0.615391 1.227035 -1.049040
v 0.615391 1.227035 1.049039
v 0.615391 1.227035 -0.516436
v 0.615391 0.242181 -0.516436
v 0.615391 1.061812 -0.410810
v 0.615391 0.407405 -0.410810
v 0.615391 1.061812 0.410810
v 0.615391 0.407405 0.410810
v 0.615391 1.227035 0.516436
v 0.615391 0.242181 0.516436
v 0.615391 1.030064 0.937960
v 0.615391 1.030064 -0.937960
v 0.615391 0.439152 0.937960
v 0.615391 0.439152 -0.937960
v 0.615391 1.030064 -1.049040
v 0.615391 0.439152 1.049039
v 0.615391 1.030064 1.049039
v 0.615391 0.439152 -1.049040
v 0.615391 0.119217 -1.075660
v 0.615391 1.350000 1.075660
v 0.615391 1.350000 -1.075660
v 0.615391 0.119217 1.075660
v -0.615391 0.119217 1.075660
v -0.615391 1.350000 1.075660
v -0.615391 1.350000 -1.075660
v -0.615391 0.119217 -1.075660
v -0.615391 0.119217 1.322578
v 0.615391 0.119217 1.322578
v 0.615391 1.350000 1.322578
v -0.615391 1.350000 1.322578
v -0.615391 1.350000 -1.322578
v 0.615391 1.350000 -1.322578
v 0.615391 0.119217 -1.322578
v -0.615391 0.119217 -1.322578
v -0.615391 0.000000 1.075660
v 0.615391 0.000000 1.075660
v 0.615391 0.000000 1.322578
v -0.615391 0.000000 1.322578
v -0.615391 1.469217 1.075660
v 0.615391 1.469217 1.075660
v -0.615391 1.469217 1.322578
v 0.615391 1.469217 1.322578
v -0.615391 1.469217 -1.075660
v 0.615391 1.469217 -1.075660
v 0.615391 1.469217 -1.322578
v -0.615391 1.469217 -1.322578
v -0.615391 0.000000 -1.075660
v 0.615391 0.000000 -1.075660
v -0.615391 0.000000 -1.322578
v 0.615391 0.000000 -1.322578
v -0.485332 1.350000 0.993281
v 0.485332 1.350000 0.993281
v 0.485332 1.350000 -0.993281
v -0.485332 1.350000 -0.993281
v -0.447456 1.350000 0.953720
v 0.447456 1.350000 0.953720
v 0.447456 1.350000 -0.953721
v -0.447456 1.350000 -0.953721
v -0.497440 0.237168 1.322578
v 0.497440 0.237168 1.322578
v 0.497440 1.232049 1.322578
v -0.497440 1.232049 1.322578
v -0.497440 1.232049 -1.322578
v 0.497440 1.232049 -1.322578
v 0.497440 0.237168 -1.322578
v -0.497440 0.237168 -1.322578
vt 0.388461 0.482108
vt 0.388461 0.482108
vt 0.388461 0.482108
vt 0.388461 0.482108
vt 0.388461 0.482108
vt 0.388461 0.482108
vt 0.388461 0.482108
vt 0.388461 0.482108
vt 0.388461 0.482108
vt 0.388461 0.482108
vt 0.388461 0.482108
vt 0.388461 0.482108
vt 0.388461 0.482108
vt 0.388461 0.482108
vt 0.388461 0.482108
vt 0.388461 0.482108
vt 0.388461 0.482108
vt 0.388461 0.482108
vt 0.388461 0.482108
vt 0.388461 0.482108
vt 0.388461 0.482108
vt 0.388461 0.482108
vt 0.388461 0.482108
vt 0.388461 0.482108
vt 0.388461 0.482108
vt 0.388461 0.482108
vt 0.388461 0.482108
vt 0.388461 0.482108
vt 0.388461 0.482108
vt 0.388461 0.482108
vt 0.388461 0.482108
vt 0.388461 0.482108
vt 0.388461 0.482108
vt 0.388461 0.482108
vt 0.388461 0.482108
vt 0.388461 0.482108
vt 0.361193 0.482108
vt 0.361193 0.482108
vt 0.361193 0.482108
vt 0.361193 0.482108
vt 0.361193 0.482108
vt 0.361193 0.482108
vt 0.361193 0.482108
vt 0.361193 0.482108
vt 0.422766 0.483867
vt 0.422766 0.483867
vt 0.422766 0.483867
vt 0.422766 0.483867
vt 0.361193 0.482108
vt 0.361193 0.482108
vt 0.361193 0.482108
vt 0.361193 0.482108
vt 0.361193 0.482108
vt 0.361193 0.482108
vt 0.361193 0.482108
vt 0.361193 0.482108
vt 0.295495 0.482108
vt 0.295495 0.482108
vt 0.295495 0.482108
vt 0.295495 0.482108
vt 0.388461 0.482108
vt 0.388461 0.482108
vt 0.388461 0.482108
vt 0.388461 0.482108
vt 0.388461 0.482108
vt 0.388461 0.482108
vt 0.388461 0.482108
vt 0.388461 0.482108
vt 0.388461 0.482108
vt 0.388461 0.482108
vt 0.388461 0.482108
vt 0.388461 0.482108
vt 0.388461 0.482108
vt 0.388461 0.482108
vt 0.388461 0.482108
vt 0.388461 0.482108
vt 0.295495 0.482108
vt 0.295495 0.482108
vt 0.295495 0.482108
vt 0.295495 0.482108
vt 0.422766 0.483867
vt 0.422766 0.483867
vt 0.422766 0.483867
vt 0.422766 0.483867
vt 0.422766 0.483867
vt 0.422766 0.483867
vt 0.422766 0.483867
vt 0.422766 0.483867
vt 0.295495 0.482108
vt 0.295495 0.482108
vt 0.295495 0.482108
vt 0.295495 0.482108
vt 0.355565 0.482108
vt 0.355565 0.482108
vt 0.355565 0.482108
vt 0.355565 0.482108
vt 0.361193 0.482108
vt 0.361193 0.482108
vt 0.361193 0.482108
vt 0.361193 0.482108
vt 0.361193 0.482108
vt 0.361193 0.482108
vt 0.361193 0.482108
vt 0.361193 0.482108
vt 0.355565 0.482108
vt 0.355565 0.482108
vt 0.355565 0.482108
vt 0.355565 0.482108
vt 0.292454 0.480923
vt 0.292454 0.480923
vt 0.292454 0.480923
vt 0.292454 0.480923
vt 0.292454 0.480923
vt 0.292454 0.480923
vt 0.292454 0.480923
vt 0.292454 0.480923
vt 0.292454 0.480923
vt 0.292454 0.480923
vt 0.292454 0.480923
vt 0.292454 0.480923
vt 0.292454 0.480923
vt 0.292454 0.480923
vt 0.292454 0.480923
vt 0.292454 0.480923
vt 0.292454 0.480923
vt 0.292454 0.480923
vt 0.292454 0.480923
vt 0.292454 0.480923
vt 0.422766 0.483867
vt 0.422766 0.483867
vt 0.422766 0.483867
vt 0.422766 0.483867
vt 0.394161 0.483867
vt 0.394161 0.483867
vt 0.394161 0.483867
vt 0.394161 0.483867
vt 0.111111 0.472626
vt 0.111111 0.472626
vt 0.111111 0.472626
vt 0.111111 0.472626
vt 0.111111 0.472626
vt 0.111111 0.472626
vt 0.111111 0.472626
vt 0.111111 0.472626
vt 0.361193 0.482108
vt 0.361193 0.482108
vt 0.361193 0.482108
vt 0.361193 0.482108
vt 0.361193 0.482108
vt 0.361193 0.482108
vt 0.361193 0.482108
vt 0.361193 0.482108
vt 0.333939 0.480922
vt 0.333939 0.480922
vt 0.333939 0.480922
vt 0.333939 0.480922
vt 0.333939 0.480922
vt 0.333939 0.480922
vt 0.333939 0.480922
vt 0.333939 0.480922
vt 0.422766 0.483867
vt 0.422766 0.483867
vt 0.422766 0.483867
vt 0.422766 0.483867
vt 0.422766 0.483867
vt 0.422766 0.483867
vt 0.422766 0.483867
vt 0.422766 0.483867
vt 0.361193 0.482108
vt 0.361193 0.482108
vt 0.361193 0.482108
vt 0.361193 0.482108
vt 0.361193 0.482108
vt 0.361193 0.482108
vt 0.361193 0.482108
vt 0.361193 0.482108
vt 0.361193 0.482108
vt 0.361193 0.482108
vt 0.361193 0.482108
vt 0.361193 0.482108
vt 0.361193 0.482108
vt 0.361193 0.482108
vt 0.361193 0.482108
vt 0.361193 0.482108
vt 0.361193 0.482108
vt 0.361193 0.482108
vt 0.361193 0.482108
vt 0.361193 0.482108
vt 0.361193 0.482108
vt 0.361193 0.482108
vt 0.361193 0.482108
vt 0.361193 0.482108
vn 1.000000 0.000000 0.000000
vn 1.000000 0.000000 0.000000
vn 1.000000 0.000000 0.000000
vn 1.000000 0.000000 0.000000
vn 1.000000 0.000000 0.000000
vn 1.000000 0.000000 0.000000
vn 1.000000 0.000000 0.000000
vn 1.000000 0.000000 0.000000
vn 1.000000 -0.000000 0.000000
vn 1.000000 -0.000000 0.000000
vn 1.000000 0.000000 0.000000
vn 1.000000 0.000000 0.000000
vn 1.000000 -0.000000 0.000000
vn 1.000000 0.000000 0.000000
vn 1.000000 0.000000 0.000000
vn 1.000000 0.000000 0.000000
vn 1.000000 0.000000 0.000000
vn 1.000000 0.000000 0.000000
vn 1.000000 0.000000 0.000000
vn 1.000000 0.000000 0.000000
vn 1.000000 0.000000 0.000000
vn 1.000000 0.000000 0.000000
vn 1.000000 0.000000 0.000000
vn 1.000000 0.000000 0.000000
vn 1.000000 0.000000 0.000000
vn 1.000000 0.000000 0.000000
vn 1.000000 -0.000000 0.000000
vn 1.000000 -0.000000 0.000000
vn 1.000000 -0.000000 0.000000
vn 1.000000 0.000000 0.000000
vn 1.000000 0.000000 0.000000
vn 1.000000 0.000000 0.000000
vn 1.000000 0.000000 0.000000
vn 1.000000 0.000000 0.000000
vn 1.000000 0.000000 0.000000
vn 1.000000 0.000000 0.000000
vn 1.000000 0.000000 0.000000
vn 1.000000 0.000000 0.000000
vn 1.000000 0.000000 0.000000
vn 1.000000 0.000000 0.000000
vn 1.000000 0.000000 0.000000
vn 1.000000 0.000000 0.000000
vn 1.000000 0.000000 0.000000
vn 1.000000 0.000000 0.000000
vn 1.000000 0.000000 0.000000
vn 1.000000 0.000000 0.000000
vn 1.000000 0.000000 0.000000
vn 1.000000 0.000000 0.000000
vn 1.000000 0.000000 0.000000
vn 1.000000 0.000000 0.000000
vn 1.000000 0.000000 0.000000
vn 1.000000 0.000000 0.000000
vn 1.000000 0.000000 0.000000
vn 1.000000 0.000000 0.000000
vn 1.000000 0.000000 0.000000
vn 1.000000 0.000000 0.000000
vn 1.000000 0.000000 0.000000
vn 1.000000 0.000000 0.000000
vn 1.000000 0.000000 0.000000
vn 1.000000 0.000000 0.000000
vn 1.000000 0.000000 0.000000
vn 1.000000 0.000000 0.000000
vn 1.000000 0.000000 0.000000
vn 1.000000 -0.000001 0.000000
vn 1.000000 -0.000001 0.000000
vn 1.000000 -0.000001 0.000000
vn 1.000000 0.000000 0.000000
vn 1.000000 0.000000 0.000000
vn 1.000000 0.000000 0.000000
vn 1.000000 0.000001 0.000000
vn 1.000000 0.000001 0.000000
vn 1.000000 0.000001 0.000000
vn 1.000000 0.000000 0.000000
vn 1.000000 0.000000 0.000000
vn 1.000000 0.000000 0.000000
vn 1.000000 0.000000 0.000000
vn 1.000000 0.000000 0.000000
vn 1.000000 0.000000 0.000000
vn 1.000000 0.000000 0.000000
vn 1.000000 0.000000 0.000000
vn 1.000000 0.000000 0.000000
vn 1.000000 0.000000 0.000000
vn 1.000000 0.000000 0.000000
vn 1.000000 0.000000 0.000000
vn 1.000000 0.000000 0.000000
vn 1.000000 0.000000 0.000000
vn 1.000000 0.000000 0.000000
vn 1.000000 0.000000 0.000000
vn 1.000000 0.000000 0.000000
vn 1.000000 0.000000 0.000000
vn 1.000000 0.000000 0.000000
vn 1.000000 0.000000 0.000000
vn 1.000000 0.000000 0.000000
vn 1.000000 0.000000 0.000000
vn 1.000000 0.000000 0.000000
vn 1.000000 0.000000 0.000000
vn 1.000000 0.000000 0.000000
vn 1.000000 0.000000 0.000000
vn 1.000000 0.000000 0.000000
vn 1.000000 0.000000 0.000000
vn 0.000000 0.000000 1.000000
vn 0.000000 0.000000 1.000000
vn 0.000000 0.000000 1.000000
vn 0.000000 0.000000 1.000000
vn 0.000000 1.000000 0.000000
vn 0.000000 1.000000 0.000000
vn 0.000000 1.000000 0.000000
vn 0.000000 1.000000 0.000000
vn 0.000000 0.000000 -1.000000
vn 0.000000 0.000000 -1.000000
vn 0.000000 0.000000 -1.000000
vn 0.000000 0.000000 -1.000000
vn -0.000000 -1.000000 0.000000
vn -0.000000 -1.000000 0.000000
vn -0.000000 -1.000000 0.000000
vn -0.000000 -1.000000 0.000000
vn -1.000000 0.000000 0.000000
vn -1.000000 0.000000 0.000000
vn -1.000000 0.000000 0.000000
vn -1.000000 0.000000 0.000000
vn 0.000000 -1.000000 0.000000
vn 0.000000 -1.000000 0.000000
vn 0.000000 -1.000000 0.000000
vn 0.000000 -1.000000 0.000000
vn 1.000000 0.000000 0.000000
vn 1.000000 0.000000 0.000000
vn 1.000000 0.000000 0.000000
vn 1.000000 0.000000 0.000000
vn 0.000000 1.000000 0.000000
vn 0.000000 1.000000 0.000000
vn 0.000000 1.000000 0.000000
vn 0.000000 1.000000 0.000000
vn -1.000000 0.000000 0.000000
vn -1.000000 0.000000 0.000000
vn -1.000000 0.000000 0.000000
vn -1.000000 0.000000 0.000000
vn 0.000000 1.000000 0.000000
vn 0.000000 1.000000 0.000000
vn 0.000000 1.000000 0.000000
vn 0.000000 1.000000 0.000000
vn 1.000000 0.000000 0.000000
vn 1.000000 0.000000 0.000000
vn 1.000000 0.000000 0.000000
vn 1.000000 0.000000 0.000000
vn 0.000000 -1.000000 0.000000
vn 0.000000 -1.000000 0.000000
vn 0.000000 -1.000000 0.000000
vn 0.000000 -1.000000 0.000000
vn -1.000000 0.000000 0.000000
vn -1.000000 0.000000 0.000000
vn -1.000000 0.000000 0.000000
vn -1.000000 0.000000 0.000000
vn 0.000000 0.000000 -1.000000
vn 0.000000 0.000000 -1.000000
vn 0.000000 0.000000 -1.000000
vn 0.000000 0.000000 -1.000000
vn 1.000000 0.000000 0.000000
vn 1.000000 0.000000 0.000000
vn 1.000000 0.000000 0.000000
vn 1.000000 0.000000 0.000000
vn 0.000000 0.000000 1.000000
vn 0.000000 0.000000 1.000000
vn 0.000000 0.000000 1.000000
vn 0.000000 0.000000 1.000000
vn -1.000000 0.000000 0.000000
vn -1.000000 0.000000 0.000000
vn -1.000000 0.000000 0.000000
vn -1.000000 0.000000 0.000000
vn 0.000000 0.000000 -1.000000
vn 0.000000 0.000000 -1.000000
vn 0.000000 0.000000 -1.000000
vn 0.000000 0.000000 -1.000000
vn -1.000000 0.000000 0.000000
vn -1.000000 0.000000 0.000000
vn -1.000000 0.000000 0.000000
vn -1.000000 0.000000 0.000000
vn 0.000000 0.000000 1.000000
vn 0.000000 0.000000 1.000000
vn 0.000000 0.000000 1.000000
vn 0.000000 0.000000 1.000000
vn 1.000000 0.000000 0.000000
vn 1.000000 0.000000 0.000000
vn 1.000000 0.000000 0.000000
vn 1.000000 0.000000 0.000000
vn 0.000000 0.000000 1.000000
vn 0.000000 0.000000 1.000000
vn 0.000000 0.000000 1.000000
vn 0.000000 0.000000 1.000000
vn 1.000000 0.000000 0.000000
vn 1.000000 0.000000 0.000000
vn 1.000000 0.000000 0.000000
vn 1.000000 0.000000 0.000000
vn 0.000000 0.000000 -1.000000
vn 0.000000 0.000000 -1.000000
vn 0.000000 0.000000 -1.000000
vn 0.000000 0.000000 -1.000000
vn -1.000000 0.000000 0.000000
vn -1.000000 0.000000 0.000000
vn -1.000000 0.000000 0.000000
vn -1.000000 0.000000 0.000000
vn 0.000000 0.000000 1.000000
vn 0.000000 0.000000 1.000000
vn 0.000000 0.000000 1.000000
vn 0.000000 0.000000 1.000000
vn -1.000000 0.000000 0.000000
vn -1.000000 0.000000 0.000000
vn -1.000000 0.000000 0.000000
vn -1.000000 0.000000 0.000000
vn 0.000000 0.000000 -1.000000
vn 0.000000 0.000000 -1.000000
vn 0.000000 0.000000 -1.000000
vn 0.000000 0.000000 -1.000000
vn 1.000000 0.000000 0.000000
vn 1.000000 0.000000 0.000000
vn 1.000000 0.000000 0.000000
vn 1.000000 0.000000 0.000000
vn 0.000000 1.000000 0.000001
vn 0.000000 1.000000 0.000001
vn 0.000000 1.000000 0.000001
vn 0.000000 1.000000 0.000001
vn 0.000000 1.000000 0.000000
vn 0.000000 1.000000 0.000000
vn 0.000000 1.000000 0.000000
vn 0.000000 1.000000 0.000000
vn 0.000000 1.000000 -0.000001
vn 0.000000 1.000000 -0.000001
vn 0.000000 1.000000 -0.000001
vn 0.000000 1.000000 -0.000001
vn 0.000000 1.000000 0.000000
vn 0.000000 1.000000 0.000000
vn 0.000000 1.000000 0.000000
vn 0.000000 1.000000 0.000000
vn 0.000000 1.000000 -0.000001
vn 0.000000 1.000000 -0.000001
vn 0.000000 1.000000 -0.000001
vn 0.000000 1.000000 -0.000001
vn 0.000000 1.000000 0.000000
vn 0.000000 1.000000 0.000000
vn 0.000000 1.000000 0.000000
vn 0.000000 1.000000 0.000000
vn 0.000000 1.000000 0.000001
vn 0.000000 1.000000 0.000001
vn 0.000000 1.000000 0.000001
vn 0.000000 1.000000 0.000001
vn 0.000000 1.000000 0.000000
vn 0.000000 1.000000 0.000000
vn 0.000000 1.000000 0.000000
vn 0.000000 1.000000 0.000000
vn 0.000000 0.000000 1.000000
vn 0.000000 0.000000 1.000000
vn 0.000000 0.000000 1.000000
vn 0.000000 0.000000 1.000000
vn 0.000000 0.000000 1.000000
vn 0.000000 0.000000 1.000000
vn 0.000000 0.000000 1.000000
vn 0.000000 0.000000 1.000000
vn 0.000000 0.000000 1.000000
vn 0.000000 0.000000 1.000000
vn 0.000000 0.000000 1.000000
vn 0.000000 0.000000 1.000000
vn -0.000001 0.000000 1.000000
vn -0.000001 0.000000 1.000000
vn -0.000001 0.000000 1.000000
vn -0.000001 0.000000 1.000000
vn 0.000000 0.000000 -1.000000
vn 0.000000 0.000000 -1.000000
vn 0.000000 0.000000 -1.000000
vn 0.000000 0.000000 -1.000000
vn 0.000001 0.000000 -1.000000
vn 0.000001 0.000000 -1.000000
vn 0.000001 0.000000 -1.000000
vn 0.000001 0.000000 -1.000000
vn 0.000000 0.000000 -1.000000
vn 0.000000 0.000000 -1.000000
vn 0.000000 0.000000 -1.000000
vn 0.000000 0.000000 -1.000000
vn -0.000001 0.000000 -1.000000
vn -0.000001 0.000000 -1.000000
vn -0.000001 0.000000 -1.000000
vn -0.000001 0.000000 -1.000000
s off
f 5/109/1 14/110/2 3/111/3
f 13/112/4 11/113/5 4/114/6
f 11/113/7 13/112/8 15/115/9 12/116/10
f 9/117/11 11/113/12 12/116/13 10/118/14
f 7/119/15 9/117/16 10/118/17 8/120/18
f 5/109/19 7/119/20 8/120/21 6/121/22
f 16/122/23 14/110/24 5/109/25 6/121/26
f 1/123/27 12/116/28 15/115/29
f 6/121/30 2/124/31 16/122/32
f 3/111/33 14/110/34 17/125/35
f 1/123/36 15/115/37 18/126/38
f 13/112/39 4/114/40 19/127/41
f 16/122/42 2/124/43 20/128/44
f 11/12/45 9/15/46 7/9/47 5/1/48
f 17/6/49 14/2/50 16/4/51 20/8/52
f 13/22/53 19/23/54 18/30/55 15/28/56
f 10/16/57 12/17/58 6/5/59 8/10/60
f 2/11/61 6/5/62 21/14/63
f 4/18/64 11/12/65 22/13/66
f 5/1/67 3/3/68 23/7/69
f 12/17/70 1/29/71 24/21/72
f 3/3/73 17/6/74 23/7/75
f 1/29/76 18/30/77 24/21/78
f 19/23/79 4/18/80 22/13/81
f 20/8/82 2/11/83 21/14/84
f 11/12/85 5/1/86 23/7/87 22/13/88
f 17/6/89 20/8/90 21/14/91 23/7/92
f 18/30/93 19/23/94 22/13/95 24/21/96
f 6/5/97 12/17/98 24/21/99 21/14/100
f 61/153/101 62/154/102 63/155/103 64/156/104
f 57/133/105 58/134/106 59/135/107 60/136/108
f 65/157/109 66/158/110 67/159/111 68/160/112
f 28/57/113 21/58/114 24/59/115 25/60/116
f 28/61/117 25/62/118 26/63/119 27/64/120
f 37/77/121 38/78/122 39/79/123 40/80/124
f 24/21/125 22/13/126 31/31/127 30/32/128
f 42/81/129 41/82/130 43/83/131 44/84/132
f 26/63/133 25/62/134 29/65/135 32/66/136
f 45/85/137 46/86/138 47/87/139 48/88/140
f 23/7/141 21/14/142 35/19/143 34/20/144
f 50/89/145 49/90/146 51/91/147 52/92/148
f 28/61/149 27/64/150 33/67/151 36/68/152
f 25/93/153 24/94/154 38/95/155 37/96/156
f 24/21/157 30/32/158 39/35/159 38/36/160
f 30/189/161 29/191/162 40/41/163 39/42/164
f 29/65/165 25/62/166 37/69/167 40/70/168
f 22/97/169 26/98/170 41/99/171 42/100/172
f 26/63/173 32/66/174 43/71/175 41/72/176
f 32/184/177 31/187/178 44/43/179 43/44/180
f 31/31/181 22/13/182 42/33/183 44/34/184
f 27/101/185 23/102/186 46/103/187 45/104/188
f 23/7/189 34/20/190 47/26/191 46/27/192
f 34/177/193 33/179/194 48/53/195 47/54/196
f 33/67/197 27/64/198 45/73/199 48/74/200
f 21/105/201 28/106/202 49/107/203 50/108/204
f 28/61/205 36/68/206 51/75/207 49/76/208
f 36/172/209 35/175/210 52/55/211 51/56/212
f 35/19/213 21/14/214 50/24/215 52/25/216
f 26/45/217 22/167/218 54/165/219 53/129/220
f 22/46/221 23/166/222 55/163/223 54/130/224
f 23/47/225 27/164/226 56/162/227 55/131/228
f 27/48/229 26/168/230 53/161/231 56/132/232
f 53/137/233 54/138/234 58/139/235 57/140/236
f 54/138/237 55/141/238 59/142/239 58/139/240
f 55/141/241 56/143/242 60/144/243 59/142/244
f 56/143/245 53/137/246 57/140/247 60/144/248
f 29/37/249 30/190/250 62/186/251 61/145/252
f 30/38/253 31/188/254 63/183/255 62/146/256
f 31/39/257 32/185/258 64/182/259 63/147/260
f 32/40/261 29/192/262 61/181/263 64/148/264
f 33/49/265 34/178/266 66/174/267 65/149/268
f 34/50/269 35/176/270 67/171/271 66/150/272
f 35/51/273 36/173/274 68/170/275 67/151/276
f 36/52/277 33/180/278 65/169/279 68/152/280
