# This file uses centimeters as units for non-parametric coordinates.

v 0.095778 0.381353 10.000006
v 0.373835 0.381353 10.000006
v 0.095778 0.659410 10.000006
v 0.373835 0.659410 10.000006
v 0.095778 0.659410 0.000005
v 0.373835 0.659410 0.000005
v 0.095778 0.381353 0.000005
v 0.373835 0.381353 0.000005
v -0.373835 0.381353 10.000006
v -0.095778 0.381353 10.000006
v -0.373835 0.659410 10.000006
v -0.095778 0.659410 10.000006
v -0.373835 0.659410 0.000005
v -0.095778 0.659410 0.000005
v -0.373835 0.381353 0.000005
v -0.095778 0.381353 0.000005
v -0.486979 0.000000 7.526188
v 0.486979 0.000000 7.526188
v -0.486979 0.866968 7.526188
v 0.486979 0.866968 7.526188
v -0.486979 0.866968 7.117710
v 0.486979 0.866968 7.117710
v -0.486979 0.000000 7.117710
v 0.486979 0.000000 7.117710
v -0.486979 0.000000 2.882300
v 0.486979 0.000000 2.882300
v -0.486979 0.866968 2.882300
v 0.486979 0.866968 2.882300
v -0.486979 0.866968 2.473823
v 0.486979 0.866968 2.473823
v -0.486979 0.000000 2.473823
v 0.486979 0.000000 2.473823
vt 0.327435 0.471960
vt 0.392875 0.471960
vt 0.327435 0.471960
vt 0.392875 0.471960
vt 0.297802 0.471960
vt 0.297802 0.471960
vt 0.297802 0.471960
vt 0.327435 0.471960
vt 0.327435 0.471960
vt 0.327435 0.471960
vt 0.327435 0.471960
vt 0.392875 0.471960
vt 0.392875 0.471960
vt 0.327435 0.471960
vt 0.327435 0.471960
vt 0.297802 0.471960
vt 0.392875 0.471960
vt 0.392875 0.471960
vt 0.392875 0.471960
vt 0.392875 0.471960
vt 0.297802 0.471960
vt 0.297802 0.471960
vt 0.297802 0.471960
vt 0.297802 0.471960
vt 0.327435 0.471960
vt 0.327435 0.471960
vt 0.327435 0.471960
vt 0.327435 0.471960
vt 0.327435 0.471960
vt 0.327435 0.471960
vt 0.327435 0.471960
vt 0.327435 0.471960
vt 0.268409 0.060193
vt 0.268409 0.060193
vt 0.268409 0.060193
vt 0.268409 0.060193
vt 0.298454 0.060193
vt 0.298454 0.060193
vt 0.298454 0.060193
vt 0.298454 0.060193
vt 0.268409 0.060193
vt 0.268409 0.060193
vt 0.268409 0.060193
vt 0.268409 0.060193
vt 0.233014 0.060193
vt 0.233014 0.060193
vt 0.233014 0.060193
vt 0.233014 0.060193
vt 0.233014 0.060193
vt 0.233014 0.060193
vt 0.233014 0.060193
vt 0.233014 0.060193
vt 0.268409 0.060193
vt 0.268409 0.060193
vt 0.268409 0.060193
vt 0.268409 0.060193
vt 0.298454 0.060193
vt 0.298454 0.060193
vt 0.298454 0.060193
vt 0.298454 0.060193
vt 0.268409 0.060193
vt 0.268409 0.060193
vt 0.268409 0.060193
vt 0.268409 0.060193
vt 0.233014 0.060193
vt 0.233014 0.060193
vt 0.233014 0.060193
vt 0.233014 0.060193
vt 0.233014 0.060193
vt 0.233014 0.060193
vt 0.233014 0.060193
vt 0.233014 0.060193
vn 0.000000 1.000000 0.000000
vn 0.000000 1.000000 0.000000
vn 0.000000 1.000000 0.000000
vn 0.000000 1.000000 0.000000
vn 0.000000 -1.000000 0.000000
vn 0.000000 -1.000000 0.000000
vn 0.000000 -1.000000 0.000000
vn 0.000000 -1.000000 0.000000
vn 1.000000 0.000000 0.000000
vn 1.000000 0.000000 0.000000
vn 1.000000 0.000000 0.000000
vn 1.000000 0.000000 0.000000
vn -1.000000 0.000000 0.000000
vn -1.000000 0.000000 0.000000
vn -1.000000 0.000000 0.000000
vn -1.000000 0.000000 0.000000
vn 0.000000 1.000000 0.000000
vn 0.000000 1.000000 0.000000
vn 0.000000 1.000000 0.000000
vn 0.000000 1.000000 0.000000
vn 0.000000 -1.000000 0.000000
vn 0.000000 -1.000000 0.000000
vn 0.000000 -1.000000 0.000000
vn 0.000000 -1.000000 0.000000
vn 1.000000 0.000000 0.000000
vn 1.000000 0.000000 0.000000
vn 1.000000 0.000000 0.000000
vn 1.000000 0.000000 0.000000
vn -1.000000 0.000000 0.000000
vn -1.000000 0.000000 0.000000
vn -1.000000 0.000000 0.000000
vn -1.000000 0.000000 0.000000
vn 0.000000 0.000000 1.000000
vn 0.000000 0.000000 1.000000
vn 0.000000 0.000000 1.000000
vn 0.000000 0.000000 1.000000
vn 0.000000 1.000000 0.000000
vn 0.000000 1.000000 0.000000
vn 0.000000 1.000000 0.000000
vn 0.000000 1.000000 0.000000
vn 0.000000 0.000000 -1.000000
vn 0.000000 0.000000 -1.000000
vn 0.000000 0.000000 -1.000000
vn 0.000000 0.000000 -1.000000
vn 1.000000 0.000000 0.000000
vn 1.000000 0.000000 0.000000
vn 1.000000 0.000000 0.000000
vn 1.000000 0.000000 0.000000
vn -1.000000 0.000000 0.000000
vn -1.000000 0.000000 0.000000
vn -1.000000 0.000000 0.000000
vn -1.000000 0.000000 0.000000
vn 0.000000 0.000000 1.000000
vn 0.000000 0.000000 1.000000
vn 0.000000 0.000000 1.000000
vn 0.000000 0.000000 1.000000
vn 0.000000 1.000000 0.000000
vn 0.000000 1.000000 0.000000
vn 0.000000 1.000000 0.000000
vn 0.000000 1.000000 0.000000
vn 0.000000 0.000000 -1.000000
vn 0.000000 0.000000 -1.000000
vn 0.000000 0.000000 -1.000000
vn 0.000000 0.000000 -1.000000
vn 1.000000 0.000000 0.000000
vn 1.000000 0.000000 0.000000
vn 1.000000 0.000000 0.000000
vn 1.000000 0.000000 0.000000
vn -1.000000 0.000000 0.000000
vn -1.000000 0.000000 0.000000
vn -1.000000 0.000000 0.000000
vn -1.000000 0.000000 0.000000
s off
f 3/2/1 4/12/2 6/4/3 5/13/4
f 7/5/5 8/16/6 2/7/7 1/6/8
f 2/14/9 8/8/10 6/9/11 4/3/12
f 7/10/13 1/1/14 3/15/15 5/11/16
f 11/17/17 12/18/18 14/19/19 13/20/20
f 15/21/21 16/22/22 10/23/23 9/24/24
f 10/25/25 16/26/26 14/27/27 12/28/28
f 15/29/29 9/30/30 11/31/31 13/32/32
f 17/33/33 18/34/34 20/35/35 19/36/36
f 19/37/37 20/38/38 22/39/39 21/40/40
f 21/41/41 22/42/42 24/43/43 23/44/44
f 18/45/45 24/46/46 22/47/47 20/48/48
f 23/49/49 17/50/50 19/51/51 21/52/52
f 25/53/53 26/54/54 28/55/55 27/56/56
f 27/57/57 28/58/58 30/59/59 29/60/60
f 29/61/61 30/62/62 32/63/63 31/64/64
f 26/65/65 32/66/66 30/67/67 28/68/68
f 31/69/69 25/70/70 27/71/71 29/72/72
