# This file uses centimeters as units for non-parametric coordinates.

v -0.066551 -1.134204 0.026630
v -0.013298 -1.134204 0.026630
v -0.142799 3.097682 0.102882
v 0.062958 3.097682 0.102882
v -0.142799 3.097682 -0.102879
v 0.062958 3.097682 -0.102879
v -0.066551 -1.134204 -0.026623
v -0.013298 -1.134204 -0.026623
v -0.142799 2.677543 -0.102879
v -0.142799 2.677544 0.102882
v 0.062958 2.677544 0.102882
v 0.062958 2.677543 -0.102879
v -0.112289 2.474881 -0.072357
v -0.112289 2.474884 0.072357
v 0.032433 2.474884 0.072357
v 0.032433 2.474881 -0.072357
v -0.182007 2.474881 -0.142082
v -0.182007 2.474884 0.142082
v -0.182007 2.677544 0.142082
v -0.182007 2.677543 -0.142082
v 0.102158 2.474884 0.142082
v 0.102158 2.677544 0.142082
v 0.102158 2.474881 -0.142082
v 0.102158 2.677543 -0.142082
v -0.209461 0.253557 -0.169533
v -0.209461 0.253557 0.169533
v 0.129616 0.253557 0.169533
v 0.129616 0.253557 -0.169533
v 0.032433 1.226390 0.072357
v -0.112282 1.226390 0.072357
v -0.112282 1.226389 -0.072357
v 0.032433 1.226389 -0.072357
v -0.271355 0.253557 -0.231438
v -0.271355 0.253557 0.231441
v -0.180374 1.226390 0.140450
v -0.180374 1.226389 -0.140446
v 0.191513 0.253557 0.231441
v 0.100517 1.226390 0.140450
v 0.191513 0.253557 -0.231438
v 0.100517 1.226389 -0.140446
vt 0.236534 0.479696
vt 0.265455 0.479696
vt 0.478104 0.479696
vt 0.425553 0.479696
vt 0.454475 0.479696
vt 0.478104 0.479696
vt 0.201452 0.479530
vt 0.265455 0.479696
vt 0.201452 0.479530
vt 0.201452 0.479530
vt 0.236534 0.479696
vt 0.425553 0.479696
vt 0.236534 0.479696
vt 0.425553 0.479696
vt 0.478104 0.479696
vt 0.454475 0.479696
vt 0.454475 0.479696
vt 0.478104 0.479696
vt 0.236534 0.479696
vt 0.265456 0.479696
vt 0.454475 0.479696
vt 0.425554 0.479696
vt 0.201452 0.479530
vt 0.265456 0.479696
vt 0.425553 0.479696
vt 0.296276 0.479696
vt 0.294081 0.479696
vt 0.454475 0.479696
vt 0.296276 0.479696
vt 0.425553 0.479696
vt 0.454475 0.479696
vt 0.294081 0.479696
vt 0.200147 0.479696
vt 0.265456 0.479696
vt 0.236534 0.479696
vt 0.203870 0.479696
vt 0.265455 0.479696
vt 0.200147 0.479696
vt 0.203870 0.479696
vt 0.236534 0.479696
vt 0.236534 0.479696
vt 0.200147 0.479696
vt 0.236534 0.479696
vt 0.294081 0.479696
vt 0.203870 0.479696
vt 0.203870 0.479696
vt 0.265455 0.479696
vt 0.265456 0.479696
vt 0.200147 0.479696
vt 0.200147 0.479696
vt 0.236534 0.479696
vt 0.236534 0.479696
vt 0.296276 0.479696
vt 0.265455 0.479696
vt 0.203870 0.479696
vt 0.265456 0.479696
vt 0.294081 0.479696
vt 0.296276 0.479696
vt 0.236534 0.479696
vt 0.265456 0.479696
vt 0.296276 0.479696
vt 0.294081 0.479696
vt 0.425553 0.479696
vt 0.296276 0.479696
vt 0.294081 0.479696
vt 0.296276 0.479696
vt 0.454475 0.479696
vt 0.294081 0.479696
vt 0.454475 0.479696
vt 0.294081 0.479696
vt 0.425554 0.479696
vt 0.296276 0.479696
vt 0.236534 0.479696
vt 0.265455 0.479696
vt 0.200147 0.479696
vt 0.203870 0.479696
vt 0.265455 0.479696
vt 0.236534 0.479696
vt 0.265455 0.479696
vt 0.200147 0.479696
vt 0.236534 0.479696
vt 0.265456 0.479696
vt 0.236534 0.479696
vt 0.203870 0.479696
vt 0.265456 0.479696
vt 0.200147 0.479696
vt 0.236534 0.479696
vt 0.203870 0.479696
vt 0.204914 0.479696
vt 0.265456 0.479696
vt 0.236534 0.479696
vt 0.197182 0.479696
vt 0.265455 0.479696
vt 0.204914 0.479696
vt 0.197182 0.479696
vt 0.236534 0.479696
vt 0.297231 0.479696
vt 0.236534 0.479696
vt 0.293126 0.479696
vt 0.265456 0.479696
vt 0.236534 0.479696
vt 0.297231 0.479696
vt 0.265455 0.479696
vt 0.293126 0.479696
vt 0.236534 0.479696
vt 0.204914 0.479696
vt 0.236534 0.479696
vt 0.293126 0.479696
vt 0.197182 0.479696
vt 0.197182 0.479696
vt 0.265455 0.479696
vt 0.265456 0.479696
vt 0.204914 0.479696
vt 0.204914 0.479696
vt 0.236534 0.479696
vt 0.236534 0.479696
vt 0.297231 0.479696
vt 0.265455 0.479696
vt 0.197182 0.479696
vt 0.265456 0.479696
vt 0.236534 0.479696
vt 0.265456 0.479696
vt 0.293126 0.479696
vt 0.297231 0.479696
vt 0.297231 0.479696
vt 0.293126 0.479696
vt 0.236534 0.479696
vt 0.297231 0.479696
vt 0.293126 0.479696
vt 0.297231 0.479696
vt 0.265455 0.479696
vt 0.293126 0.479696
vt 0.265456 0.479696
vt 0.293126 0.479696
vt 0.236534 0.479696
vt 0.297231 0.479696
vt 0.236534 0.479696
vt 0.265455 0.479696
vt 0.204914 0.479696
vt 0.197182 0.479696
vt 0.265455 0.479696
vt 0.236534 0.479696
vt 0.265455 0.479696
vt 0.204914 0.479696
vt 0.236534 0.479696
vt 0.265456 0.479696
vt 0.236534 0.479696
vt 0.197182 0.479696
vt 0.265456 0.479696
vt 0.204914 0.479696
vt 0.236534 0.479696
vt 0.197182 0.479696
vn 0.000000 0.000000 1.000000
vn 0.000000 0.000000 1.000000
vn 0.000000 0.000000 1.000000
vn 0.000000 0.000000 1.000000
vn 0.000000 1.000000 0.000000
vn 0.000000 1.000000 0.000000
vn 0.000000 1.000000 0.000000
vn 0.000000 1.000000 0.000000
vn 0.000000 0.000000 -1.000000
vn 0.000000 0.000000 -1.000000
vn 0.000000 0.000000 -1.000000
vn 0.000000 0.000000 -1.000000
vn 0.000000 -1.000000 0.000000
vn 0.000000 -1.000000 0.000000
vn 0.000000 -1.000000 0.000000
vn 0.000000 -1.000000 0.000000
vn 1.000000 0.000000 0.000000
vn 1.000000 0.000000 0.000000
vn 1.000000 0.000000 0.000000
vn 1.000000 0.000000 0.000000
vn -1.000000 0.000000 0.000000
vn -1.000000 0.000000 0.000000
vn -1.000000 0.000000 0.000000
vn -1.000000 0.000000 0.000000
vn -1.000000 0.000000 0.000000
vn -1.000000 0.000000 0.000000
vn -1.000000 0.000000 0.000000
vn -1.000000 0.000000 0.000000
vn 0.000000 0.000000 1.000000
vn 0.000000 0.000000 1.000000
vn 0.000000 0.000000 1.000000
vn 0.000000 0.000000 1.000000
vn 1.000000 0.000000 0.000000
vn 1.000000 0.000000 0.000000
vn 1.000000 0.000000 0.000000
vn 1.000000 0.000000 0.000000
vn 0.000000 0.000000 -1.000000
vn 0.000000 0.000000 -1.000000
vn 0.000000 0.000000 -1.000000
vn 0.000000 0.000000 -1.000000
vn -0.995655 0.093115 -0.000000
vn -0.995655 0.093115 -0.000000
vn -0.995655 0.093115 -0.000000
vn -0.995655 0.093115 -0.000000
vn 0.000000 0.093127 0.995654
vn 0.000000 0.093127 0.995654
vn 0.000000 0.093127 0.995654
vn 0.000000 0.093127 0.995654
vn 0.995654 0.093130 -0.000000
vn 0.995654 0.093130 -0.000000
vn 0.995654 0.093130 -0.000000
vn 0.995654 0.093130 -0.000000
vn 0.000000 0.093127 -0.995654
vn 0.000000 0.093127 -0.995654
vn 0.000000 0.093127 -0.995654
vn 0.000000 0.093127 -0.995654
vn 0.000000 -1.000000 0.000013
vn 0.000000 -1.000000 0.000013
vn 0.000000 -1.000000 0.000013
vn 0.000000 -1.000000 0.000013
vn 0.000000 1.000000 -0.000007
vn 0.000000 1.000000 -0.000007
vn 0.000000 1.000000 -0.000007
vn 0.000000 1.000000 -0.000007
vn 0.000000 -1.000000 0.000002
vn 0.000000 -1.000000 0.000002
vn 0.000000 -1.000000 0.000002
vn 0.000000 -1.000000 0.000002
vn 0.000000 1.000000 -0.000003
vn 0.000000 1.000000 -0.000003
vn 0.000000 1.000000 -0.000003
vn 0.000000 1.000000 -0.000003
vn 0.000000 -1.000000 0.000013
vn 0.000000 -1.000000 0.000013
vn 0.000000 -1.000000 0.000013
vn 0.000000 -1.000000 0.000013
vn -0.000000 1.000000 -0.000007
vn -0.000000 1.000000 -0.000007
vn -0.000000 1.000000 -0.000007
vn -0.000000 1.000000 -0.000007
vn 0.000000 1.000000 0.000005
vn 0.000000 1.000000 0.000005
vn 0.000000 1.000000 0.000005
vn 0.000000 1.000000 0.000005
vn 0.000000 -1.000000 0.000000
vn 0.000000 -1.000000 0.000000
vn 0.000000 -1.000000 0.000000
vn 0.000000 -1.000000 0.000000
vn -0.994739 -0.102437 0.000000
vn -0.994739 -0.102437 0.000000
vn -0.994739 -0.102437 0.000000
vn -0.994740 -0.102437 0.000000
vn 0.000000 -0.102432 0.994740
vn 0.000000 -0.102432 0.994740
vn 0.000000 -0.102432 0.994740
vn 0.000000 -0.102432 0.994740
vn 0.994739 -0.102440 0.000000
vn 0.994739 -0.102440 0.000000
vn 0.994739 -0.102440 0.000000
vn 0.994739 -0.102440 0.000000
vn 0.000000 -0.102437 -0.994740
vn 0.000000 -0.102437 -0.994739
vn 0.000000 -0.102437 -0.994739
vn 0.000000 -0.102437 -0.994739
vn 0.000000 0.000000 1.000000
vn 0.000000 0.000000 1.000000
vn 0.000000 0.000000 1.000000
vn 0.000000 0.000000 1.000000
vn -1.000000 -0.000006 0.000000
vn -1.000000 -0.000006 0.000000
vn -1.000000 -0.000006 0.000000
vn -1.000000 -0.000006 0.000000
vn 0.000000 0.000000 -1.000000
vn 0.000000 0.000000 -1.000000
vn 0.000000 0.000000 -1.000000
vn 0.000000 0.000000 -1.000000
vn 1.000000 0.000000 0.000000
vn 1.000000 0.000000 0.000000
vn 1.000000 0.000000 0.000000
vn 1.000000 0.000000 0.000000
vn 0.000000 -1.000000 0.000002
vn 0.000000 -1.000000 0.000002
vn 0.000000 -1.000000 0.000002
vn 0.000000 -1.000000 0.000002
vn -0.000000 1.000000 -0.000007
vn -0.000000 1.000000 -0.000007
vn -0.000000 1.000000 -0.000007
vn -0.000000 1.000000 -0.000007
vn 0.000000 -1.000000 -0.000000
vn 0.000000 -1.000000 -0.000000
vn 0.000000 -1.000000 -0.000000
vn 0.000000 -1.000000 -0.000000
vn 0.000000 1.000000 0.000001
vn 0.000000 1.000000 0.000001
vn 0.000000 1.000000 0.000001
vn 0.000000 1.000000 0.000001
vn -0.000000 -1.000000 0.000002
vn -0.000000 -1.000000 0.000002
vn -0.000000 -1.000000 0.000002
vn -0.000000 -1.000000 0.000002
vn 0.000000 1.000000 -0.000007
vn 0.000000 1.000000 -0.000007
vn 0.000000 1.000000 -0.000007
vn 0.000000 1.000000 -0.000007
vn 0.000000 1.000000 0.000000
vn 0.000000 1.000000 0.000000
vn 0.000000 1.000000 0.000000
vn 0.000000 1.000000 0.000000
vn 0.000000 -1.000000 0.000000
vn 0.000000 -1.000000 0.000000
vn 0.000000 -1.000000 0.000000
vn 0.000000 -1.000000 0.000000
s off
f 10/28/1 11/67/2 4/21/3 3/17/4
f 3/3/5 4/15/6 6/6/7 5/18/8
f 5/5/9 6/16/10 12/31/11 9/69/12
f 7/7/13 8/23/14 2/10/15 1/9/16
f 11/30/17 12/63/18 6/12/19 4/4/20
f 9/25/21 10/71/22 3/22/23 5/14/24
f 17/41/25 18/81/26 19/43/27 20/59/28
f 18/82/29 21/77/30 22/47/31 19/48/32
f 21/78/33 23/73/34 24/51/35 22/52/36
f 20/60/37 24/54/38 23/74/39 17/56/40
f 33/105/41 34/145/42 35/107/43 36/121/44
f 34/146/45 37/141/46 38/111/47 35/112/48
f 37/142/49 39/137/50 40/115/51 38/116/52
f 36/122/53 40/118/54 39/138/55 33/120/56
f 13/33/57 14/86/58 18/42/59 17/75/60
f 10/27/61 9/70/62 20/44/63 19/65/64
f 14/36/65 15/84/66 21/46/67 18/45/68
f 11/29/69 10/72/70 19/66/71 22/61/72
f 15/38/73 16/80/74 23/50/75 21/49/76
f 12/32/77 11/68/78 22/62/79 24/57/80
f 9/26/81 12/64/82 24/58/83 20/53/84
f 16/39/85 13/88/86 17/76/87 23/55/88
f 7/13/89 1/1/90 26/91/91 25/151/92
f 1/20/93 2/2/94 27/93/95 26/149/96
f 2/19/97 8/11/98 28/96/99 27/147/100
f 25/90/101 28/143/102 8/8/103 7/24/104
f 30/100/105 29/131/106 15/37/107 14/85/108
f 31/101/109 30/135/110 14/35/111 13/87/112
f 13/34/113 16/79/114 32/103/115 31/133/116
f 29/98/117 32/127/118 16/40/119 15/83/120
f 25/89/121 26/150/122 34/106/123 33/139/124
f 30/99/125 31/134/126 36/108/127 35/129/128
f 26/92/129 27/148/130 37/110/131 34/109/132
f 29/97/133 30/136/134 35/130/135 38/125/136
f 27/94/137 28/144/138 39/114/139 37/113/140
f 32/104/141 29/132/142 38/126/143 40/123/144
f 31/102/145 32/128/146 40/124/147 36/117/148
f 28/95/149 25/152/150 33/140/151 39/119/152
