# This file uses centimeters as units for non-parametric coordinates.

v -0.600540 0.000000 0.600546
v 0.600540 0.000000 0.600546
v -0.600540 0.861524 0.600546
v 0.600540 0.861524 0.600546
v -0.600540 0.861524 -0.600535
v 0.600540 0.861524 -0.600535
v -0.600540 0.000000 -0.600535
v 0.600540 0.000000 -0.600535
vt 0.233014 0.060193
vt 0.268409 0.060193
vt 0.298454 0.060193
vt 0.233014 0.060193
vt 0.268409 0.060193
vt 0.298454 0.060193
vt 0.268409 0.060193
vt 0.233014 0.060193
vt 0.233014 0.060193
vt 0.233014 0.060193
vt 0.233014 0.060193
vt 0.298454 0.060193
vt 0.268409 0.060193
vt 0.268409 0.060193
vt 0.298454 0.060193
vt 0.233014 0.060193
vt 0.268409 0.060193
vt 0.268409 0.060193
vt 0.233014 0.060193
vt 0.268409 0.060193
vn 0.000000 0.000000 1.000000
vn 0.000000 0.000000 1.000000
vn 0.000000 0.000000 1.000000
vn 0.000000 0.000000 1.000000
vn 0.000000 1.000000 0.000000
vn 0.000000 1.000000 0.000000
vn 0.000000 1.000000 0.000000
vn 0.000000 1.000000 0.000000
vn 0.000000 0.000000 -1.000000
vn 0.000000 0.000000 -1.000000
vn 0.000000 0.000000 -1.000000
vn 0.000000 0.000000 -1.000000
vn 1.000000 0.000000 0.000000
vn 1.000000 0.000000 0.000000
vn 1.000000 0.000000 0.000000
vn 1.000000 0.000000 0.000000
vn -1.000000 0.000000 0.000000
vn -1.000000 0.000000 0.000000
vn -1.000000 0.000000 0.000000
vn -1.000000 0.000000 0.000000
s off
f 1/17/1 2/2/2 4/18/3 3/14/4
f 3/3/5 4/12/6 6/6/7 5/15/8
f 5/5/9 6/13/10 8/7/11 7/20/12
f 2/16/13 8/8/14 6/9/15 4/4/16
f 7/10/17 1/1/18 3/19/19 5/11/20
