# This file uses centimeters as units for non-parametric coordinates.

v 0.266125 0.213001 -0.460936
v -0.266125 0.213001 -0.460936
v -0.532240 0.213001 -0.000001
v -0.266125 0.213001 0.460936
v 0.266125 0.213001 0.460936
v 0.532240 0.213001 -0.000001
v 0.266125 1.679722 -0.460936
v -0.266125 1.679722 -0.460936
v -0.532240 1.679722 -0.000001
v -0.266125 1.679722 0.460936
v 0.266125 1.679722 0.460936
v 0.532240 1.679722 -0.000001
v 0.191392 0.000000 -0.331503
v -0.191396 0.000000 -0.331503
v -0.000003 0.000000 -0.000001
v -0.382786 0.000000 -0.000001
v -0.191396 0.000000 0.331502
v 0.191392 0.000000 0.331502
v 0.382782 0.000000 -0.000001
v 0.191392 1.892723 -0.331503
v -0.191396 1.892723 -0.331503
v -0.382786 1.892723 -0.000001
v -0.191396 1.892723 0.331502
v 0.191392 1.892723 0.331502
v 0.382782 1.892723 -0.000001
v 0.532240 0.633710 -0.000001
v 0.266125 0.633710 0.460936
v -0.266125 0.633710 0.460936
v -0.532240 0.633710 -0.000001
v -0.266125 0.633710 -0.460936
v 0.266125 0.633710 -0.460936
v 0.532240 1.547385 -0.000001
v 0.266125 1.547385 0.460936
v -0.266125 1.547385 0.460936
v -0.532240 1.547385 -0.000001
v -0.266125 1.547385 -0.460936
v 0.266125 1.547385 -0.460936
v 0.164591 1.892723 -0.285083
v -0.164595 1.892723 -0.285083
v -0.000003 1.892723 -0.000001
v -0.329185 1.892723 -0.000001
v -0.164595 1.892723 0.285082
v 0.164591 1.892723 0.285082
v 0.329181 1.892723 -0.000001
vt 0.237764 0.182096
vt 0.272303 0.182096
vt 0.268961 0.179868
vt 0.303500 0.179868
vt 0.237764 0.182096
vt 0.303500 0.179868
vt 0.272303 0.182096
vt 0.268961 0.179868
vt 0.237764 0.182096
vt 0.303500 0.179868
vt 0.272303 0.182096
vt 0.268961 0.179868
vt 0.198768 0.182096
vt 0.237764 0.182096
vt 0.198768 0.182096
vt 0.198768 0.182096
vt 0.198768 0.182096
vt 0.198768 0.182096
vt 0.198768 0.182096
vt 0.176820 0.182238
vt 0.176820 0.182238
vt 0.232193 0.179868
vt 0.176820 0.182238
vt 0.176820 0.182238
vt 0.176820 0.182238
vt 0.176820 0.182238
vt 0.268961 0.179868
vt 0.303500 0.179868
vt 0.268961 0.179868
vt 0.303500 0.179868
vt 0.268961 0.179868
vt 0.303500 0.179868
vt 0.268961 0.179868
vt 0.303500 0.179868
vt 0.303500 0.179868
vt 0.268961 0.179868
vt 0.303500 0.179868
vt 0.268961 0.179868
vt 0.366108 0.485663
vt 0.331568 0.485663
vt 0.366108 0.485664
vt 0.331568 0.485664
vt 0.366108 0.485664
vt 0.331568 0.485664
vt 0.366108 0.485664
vt 0.331568 0.485664
vt 0.366108 0.485664
vt 0.331568 0.485663
vt 0.366108 0.485663
vt 0.331568 0.485663
vt 0.366108 0.485663
vt 0.331568 0.485663
vt 0.232193 0.179868
vt 0.176820 0.182238
vt 0.176820 0.182238
vt 0.176820 0.182238
vt 0.176820 0.182238
vt 0.176820 0.182238
vt 0.176820 0.182238
vt 0.232193 0.179868
vt 0.176820 0.182238
vt 0.176820 0.182238
vt 0.176820 0.182238
vt 0.232193 0.179868
vt 0.301272 0.179868
vt 0.176820 0.182238
vt 0.176820 0.182238
vt 0.232193 0.179868
vt 0.335811 0.179868
vt 0.176820 0.182238
vt 0.176820 0.182238
vt 0.232193 0.179868
vt 0.301272 0.179868
vt 0.176820 0.182238
vt 0.176820 0.182238
vt 0.232193 0.179868
vt 0.335811 0.179868
vt 0.176820 0.182238
vt 0.301272 0.179868
vt 0.176820 0.182238
vt 0.335811 0.179868
vt 0.176820 0.182238
vt 0.268961 0.179868
vt 0.366108 0.485663
vt 0.303500 0.179868
vt 0.335811 0.179868
vt 0.303500 0.179868
vt 0.335811 0.179868
vt 0.301272 0.179868
vt 0.268961 0.179868
vt 0.366108 0.485663
vt 0.303500 0.179868
vt 0.331568 0.485663
vt 0.335811 0.179868
vt 0.303500 0.179868
vt 0.335811 0.179868
vt 0.301272 0.179868
vt 0.366108 0.485663
vt 0.268961 0.179868
vt 0.303500 0.179868
vt 0.331568 0.485663
vt 0.335811 0.179868
vt 0.303500 0.179868
vt 0.335811 0.179868
vt 0.301272 0.179868
vt 0.331568 0.485664
vt 0.303500 0.179868
vt 0.268961 0.179868
vt 0.331568 0.485664
vt 0.303500 0.179868
vt 0.366108 0.485664
vt 0.268961 0.179868
vt 0.303500 0.179868
vt 0.331568 0.485664
vt 0.366108 0.485664
vt 0.268961 0.179868
vt 0.301272 0.179868
vt 0.335811 0.179868
vt 0.301272 0.179868
vt 0.335811 0.179868
vt 0.301272 0.179868
vt 0.335811 0.179868
vt 0.272303 0.182096
vt 0.272303 0.182096
vt 0.303500 0.179868
vt 0.268961 0.179868
vt 0.303500 0.179868
vt 0.272303 0.182096
vt 0.272303 0.182096
vt 0.272303 0.182096
vt 0.303500 0.179868
vt 0.268961 0.179868
vt 0.303500 0.179868
vt 0.272303 0.182096
vt 0.272303 0.182096
vt 0.272303 0.182096
vt 0.303500 0.179868
vt 0.268961 0.179868
vt 0.303500 0.179868
vt 0.272303 0.182096
vt 0.232193 0.179868
vt 0.232193 0.179868
vt 0.232193 0.179868
vt 0.232193 0.179868
vt 0.232193 0.179868
vt 0.232193 0.179868
vt 0.232193 0.179868
vt 0.232193 0.179868
vt 0.232193 0.179868
vt 0.232193 0.179868
vt 0.232193 0.179868
vt 0.198768 0.182096
vt 0.237764 0.182096
vt 0.198768 0.182096
vt 0.198768 0.182096
vt 0.198768 0.182096
vt 0.198768 0.182096
vt 0.198768 0.182096
vt 0.198768 0.182096
vt 0.198768 0.182096
vt 0.198768 0.182096
vt 0.237764 0.182096
vt 0.198768 0.182096
vt 0.237764 0.182096
vt 0.198768 0.182096
vt 0.237764 0.182096
vt 0.198768 0.182096
vt 0.237764 0.182096
vt 0.237764 0.182096
vt 0.268961 0.179868
vt 0.237764 0.182096
vt 0.268961 0.179868
vt 0.237764 0.182096
vt 0.268961 0.179868
vt 0.268961 0.179868
vt 0.301272 0.179868
vt 0.268961 0.179868
vt 0.301272 0.179868
vt 0.268961 0.179868
vt 0.301272 0.179868
vn 0.000000 0.000000 -1.000000
vn 0.000000 0.000000 -1.000000
vn 0.000000 0.000000 -1.000000
vn 0.000000 0.000000 -1.000000
vn -0.866030 0.000000 -0.499992
vn -0.866030 0.000000 -0.499992
vn -0.866030 0.000000 -0.499992
vn -0.866030 0.000000 -0.499992
vn -0.866031 0.000000 0.499990
vn -0.866031 0.000000 0.499990
vn -0.866031 0.000000 0.499990
vn -0.866031 0.000000 0.499990
vn 0.000000 0.000000 1.000000
vn 0.000000 0.000000 1.000000
vn 0.000000 0.000000 1.000000
vn 0.000000 0.000000 1.000000
vn 0.866031 0.000000 0.499990
vn 0.866031 0.000000 0.499990
vn 0.866031 0.000000 0.499990
vn 0.866031 0.000000 0.499990
vn 0.866030 0.000000 -0.499992
vn 0.866030 0.000000 -0.499992
vn 0.866030 0.000000 -0.499992
vn 0.866030 0.000000 -0.499992
vn 0.000000 -1.000000 0.000000
vn 0.000000 -1.000000 0.000000
vn 0.000000 -1.000000 0.000000
vn 0.000000 -1.000000 0.000000
vn 0.000000 -1.000000 0.000000
vn 0.000000 -1.000000 0.000000
vn 0.000000 -1.000000 0.000000
vn 0.000000 -1.000000 0.000000
vn 0.000000 -1.000000 0.000000
vn 0.000000 -1.000000 0.000000
vn 0.000000 -1.000000 0.000000
vn 0.000000 -1.000000 0.000000
vn 0.000000 -1.000000 0.000000
vn 0.000000 -1.000000 0.000000
vn 0.000000 -1.000000 0.000000
vn 0.000000 -1.000000 0.000000
vn 0.000000 -1.000000 0.000000
vn 0.000000 -1.000000 0.000000
vn 0.000000 1.000000 0.000000
vn 0.000000 1.000000 -0.000000
vn 0.000000 1.000000 0.000000
vn 0.000000 1.000000 -0.000000
vn 0.000000 1.000000 0.000000
vn 0.000000 1.000000 0.000000
vn 0.000000 1.000000 0.000000
vn 0.000000 1.000000 0.000001
vn 0.000000 1.000000 0.000000
vn 0.000000 1.000000 0.000001
vn 0.000000 1.000000 -0.000000
vn 0.000000 1.000000 0.000000
vn 0.000000 1.000000 -0.000000
vn 0.000000 1.000000 -0.000000
vn 0.000000 1.000000 0.000000
vn 0.000000 1.000000 -0.000000
vn 0.000000 1.000000 0.000000
vn 0.000000 1.000000 0.000000
vn 0.000000 -0.519305 -0.854589
vn 0.000000 -0.519305 -0.854589
vn 0.000000 -0.519305 -0.854589
vn 0.000000 -0.519305 -0.854589
vn -0.740101 -0.519301 -0.427290
vn -0.740101 -0.519301 -0.427290
vn -0.740101 -0.519301 -0.427290
vn -0.740101 -0.519301 -0.427290
vn -0.740101 -0.519302 0.427289
vn -0.740101 -0.519302 0.427289
vn -0.740101 -0.519302 0.427289
vn -0.740101 -0.519302 0.427289
vn 0.000000 -0.519308 0.854587
vn 0.000000 -0.519308 0.854587
vn 0.000000 -0.519308 0.854587
vn 0.000000 -0.519308 0.854587
vn 0.740096 -0.519313 0.427286
vn 0.740096 -0.519312 0.427286
vn 0.740096 -0.519312 0.427286
vn 0.740096 -0.519313 0.427286
vn 0.740095 -0.519312 -0.427287
vn 0.740095 -0.519312 -0.427287
vn 0.740095 -0.519312 -0.427287
vn 0.740095 -0.519312 -0.427287
vn 0.000000 0.519306 -0.854589
vn 0.000000 0.519305 -0.854589
vn 0.000000 0.519306 -0.854589
vn 0.000000 0.519305 -0.854589
vn -0.740101 0.519302 -0.427290
vn -0.740101 0.519302 -0.427290
vn -0.740101 0.519302 -0.427290
vn -0.740101 0.519302 -0.427290
vn -0.740101 0.519303 0.427288
vn -0.740101 0.519303 0.427288
vn -0.740101 0.519303 0.427288
vn -0.740101 0.519303 0.427288
vn 0.000000 0.519308 0.854587
vn 0.000000 0.519308 0.854587
vn 0.000000 0.519308 0.854587
vn 0.000000 0.519308 0.854587
vn 0.740095 0.519313 0.427285
vn 0.740095 0.519313 0.427285
vn 0.740095 0.519313 0.427285
vn 0.740095 0.519313 0.427285
vn 0.740095 0.519312 -0.427287
vn 0.740095 0.519312 -0.427287
vn 0.740095 0.519312 -0.427287
vn 0.740095 0.519312 -0.427287
vn 0.866031 0.000000 0.499990
vn 0.866031 0.000000 0.499990
vn 0.866031 0.000000 0.499990
vn 0.866031 0.000000 0.499990
vn 0.000000 0.000000 1.000000
vn 0.000000 0.000000 1.000000
vn 0.000000 0.000000 1.000000
vn 0.000000 0.000000 1.000000
vn -0.866031 0.000000 0.499990
vn -0.866031 0.000000 0.499990
vn -0.866031 0.000000 0.499990
vn -0.866031 0.000000 0.499990
vn -0.866030 0.000000 -0.499992
vn -0.866030 0.000000 -0.499992
vn -0.866030 0.000000 -0.499992
vn -0.866030 0.000000 -0.499992
vn 0.000000 0.000000 -1.000000
vn 0.000000 0.000000 -1.000000
vn 0.000000 0.000000 -1.000000
vn 0.000000 0.000000 -1.000000
vn 0.866030 0.000000 -0.499992
vn 0.866030 0.000000 -0.499992
vn 0.866030 0.000000 -0.499992
vn 0.866030 0.000000 -0.499992
vn 0.866031 0.000000 0.499990
vn 0.866031 0.000000 0.499990
vn 0.866031 0.000000 0.499990
vn 0.866031 0.000000 0.499990
vn 0.000000 0.000000 1.000000
vn 0.000000 0.000000 1.000000
vn 0.000000 0.000000 1.000000
vn 0.000000 0.000000 1.000000
vn -0.866031 0.000000 0.499990
vn -0.866031 0.000000 0.499990
vn -0.866031 0.000000 0.499990
vn -0.866031 0.000000 0.499990
vn -0.866030 0.000000 -0.499992
vn -0.866030 0.000000 -0.499992
vn -0.866030 0.000000 -0.499992
vn -0.866030 0.000000 -0.499992
vn 0.000000 0.000000 -1.000000
vn 0.000000 0.000000 -1.000000
vn 0.000000 0.000000 -1.000000
vn 0.000000 0.000000 -1.000000
vn 0.866030 0.000000 -0.499992
vn 0.866030 0.000000 -0.499992
vn 0.866030 0.000000 -0.499992
vn 0.866030 0.000000 -0.499992
vn 0.000000 1.000000 0.000001
vn 0.000000 1.000000 0.000001
vn 0.000000 1.000000 0.000001
vn 0.000000 1.000000 0.000001
vn 0.000000 1.000000 -0.000001
vn 0.000000 1.000000 -0.000001
vn 0.000000 1.000000 -0.000001
vn 0.000000 1.000000 -0.000001
vn 0.000000 1.000000 0.000001
vn 0.000000 1.000000 0.000001
vn 0.000000 1.000000 0.000001
vn 0.000000 1.000000 0.000001
vn 0.000000 1.000000 0.000001
vn 0.000000 1.000000 0.000001
vn 0.000000 1.000000 0.000001
vn 0.000000 1.000000 0.000001
vn 0.000000 1.000000 0.000001
vn 0.000000 1.000000 0.000001
vn 0.000000 1.000000 0.000001
vn 0.000000 1.000000 0.000001
vn 0.000000 1.000000 0.000000
vn 0.000000 1.000000 0.000000
vn 0.000000 1.000000 0.000000
vn 0.000000 1.000000 0.000000
s off
f 1/139/1 2/137/2 30/107/3 31/4/4
f 2/138/5 3/172/6 29/112/7 30/3/8
f 3/133/9 4/131/10 28/110/11 29/6/12
f 4/132/13 5/170/14 27/116/15 28/8/16
f 5/127/17 6/125/18 26/113/19 27/10/20
f 6/126/21 1/174/22 31/108/23 26/12/24
f 14/167/25 13/154/26 15/156/27
f 16/165/28 14/13/29 15/157/30
f 17/163/31 16/16/32 15/158/33
f 18/161/34 17/17/35 15/159/36
f 19/152/37 18/18/38 15/160/39
f 13/155/40 19/19/41 15/15/42
f 38/142/43 39/76/44 40/146/45
f 39/151/46 41/72/47 40/145/48
f 41/150/49 42/68/50 40/144/51
f 42/149/52 43/64/53 40/143/54
f 43/148/55 44/60/56 40/22/57
f 44/141/58 38/53/59 40/147/60
f 2/2/61 1/140/62 13/135/63 14/136/64
f 3/5/65 2/173/66 14/168/67 16/166/68
f 4/7/69 3/134/70 16/129/71 17/130/72
f 5/9/73 4/171/74 17/164/75 18/162/76
f 6/11/77 5/128/78 18/123/79 19/124/80
f 1/1/81 6/169/82 19/153/83 13/14/84
f 7/86/85 8/88/86 21/122/87 20/81/88
f 8/89/89 9/178/90 22/119/91 21/79/92
f 9/94/93 10/96/94 23/120/95 22/77/96
f 10/97/97 11/176/98 24/117/99 23/73/100
f 11/102/101 12/104/102 25/118/103 24/69/104
f 12/105/105 7/180/106 20/121/107 25/65/108
f 27/115/109 26/41/110 32/98/111 33/49/112
f 28/109/113 27/42/114 33/101/115 34/50/116
f 29/111/117 28/43/118 34/91/119 35/51/120
f 30/106/121 29/44/122 35/93/123 36/52/124
f 31/47/125 30/45/126 36/84/127 37/39/128
f 26/114/129 31/46/130 37/40/131 32/48/132
f 33/100/133 32/34/134 12/32/135 11/103/136
f 34/90/137 33/33/138 11/31/139 10/177/140
f 35/92/141 34/35/142 10/30/143 9/95/144
f 36/83/145 35/36/146 9/29/147 8/179/148
f 37/85/149 36/37/150 8/28/151 7/87/152
f 32/99/153 37/38/154 7/27/155 12/175/156
f 20/20/157 21/80/158 39/75/159 38/61/160
f 21/21/161 22/78/162 41/71/163 39/54/164
f 22/23/165 23/74/166 42/67/167 41/55/168
f 23/24/169 24/70/170 43/63/171 42/56/172
f 24/25/173 25/66/174 44/59/175 43/57/176
f 25/26/177 20/82/178 38/62/179 44/58/180
