# This file uses centimeters as units for non-parametric coordinates.

v 1.356659 1.952858 1.049198
v 1.356659 1.952858 2.752243
v 1.507568 2.125993 1.049198
v 1.507568 2.125993 2.752243
v 1.430862 2.192867 1.181690
v 1.430862 2.192867 2.620060
v -1.507568 4.449564 1.049198
v -1.507568 4.449564 2.752243
v -1.356659 4.622699 1.049198
v -1.356659 4.622699 2.752243
v -1.280121 4.555980 1.181690
v -1.280121 4.555980 2.620060
v 0.134109 3.323235 1.049198
v -0.016815 3.150099 1.049198
v -0.016815 3.150099 2.752243
v 0.134109 3.323235 2.752243
v 0.134109 3.323235 2.620060
v 0.134109 3.323235 1.181690
v 0.016891 3.425399 1.049198
v -0.134018 3.252263 1.049198
v -0.134018 3.252263 2.752243
v 0.016891 3.425399 2.752243
v 0.016754 3.425536 2.620060
v 0.016754 3.425536 1.181690
v 1.356659 1.952858 -0.849148
v 1.356659 1.952858 0.853893
v 1.507568 2.125993 -0.849148
v 1.507568 2.125993 0.853893
v 1.430862 2.192867 -0.716658
v 1.430862 2.192867 0.721712
v -1.507568 4.449564 -0.849148
v -1.507568 4.449564 0.853893
v -1.356659 4.622699 -0.849148
v -1.356659 4.622699 0.853893
v -1.280121 4.555980 -0.716658
v -1.280121 4.555980 0.721712
v 0.134109 3.323235 -0.849148
v -0.016815 3.150099 -0.849148
v -0.016815 3.150099 0.853893
v 0.134109 3.323235 0.853893
v 0.134109 3.323235 0.721712
v 0.134109 3.323235 -0.716658
v 0.016891 3.425399 -0.849148
v -0.134018 3.252263 -0.849148
v -0.134018 3.252263 0.853893
v 0.016891 3.425399 0.853893
v 0.016754 3.425536 0.721712
v 0.016754 3.425536 -0.716658
v 1.356659 1.952858 -2.752243
v 1.356659 1.952858 -1.049198
v 1.507568 2.125993 -2.752243
v 1.507568 2.125993 -1.049198
v 1.430862 2.192867 -2.619753
v 1.430862 2.192867 -1.181379
v -1.507568 4.449564 -2.752243
v -1.507568 4.449564 -1.049198
v -1.356659 4.622699 -2.752243
v -1.356659 4.622699 -1.049198
v -1.280121 4.555980 -2.619753
v -1.280121 4.555980 -1.181379
v 0.134109 3.323235 -2.752243
v -0.016815 3.150099 -2.752243
v -0.016815 3.150099 -1.049198
v 0.134109 3.323235 -1.049198
v 0.134109 3.323235 -1.181379
v 0.134109 3.323235 -2.619753
v 0.016891 3.425399 -2.752243
v -0.134018 3.252263 -2.752243
v -0.134018 3.252263 -1.049198
v 0.016891 3.425399 -1.049198
v 0.016754 3.425536 -1.181379
v 0.016754 3.425536 -2.619753
v -0.546234 3.151923 2.303123
v -0.077881 2.743669 2.303123
v -0.314484 3.417798 2.303123
v 0.153885 3.009544 2.303123
v -0.314484 3.417798 -2.344265
v 0.153885 3.009544 -2.344265
v -0.546234 3.151923 -2.344265
v -0.077881 2.743669 -2.344265
v -0.470383 0.412007 0.104624
v -0.132477 0.412007 0.104624
v -0.470383 3.125838 0.104624
v -0.132477 3.125838 0.104624
v -0.470383 3.125838 -0.233294
v -0.132477 3.125838 -0.233294
v -0.470383 0.412007 -0.233294
v -0.132477 0.412007 -0.233294
v -0.869949 0.412007 -1.110775
v 0.267090 0.412007 -1.110775
v 0.267090 0.412007 0.982103
v -0.869949 0.412007 0.982103
v -0.869949 -0.000000 -1.110775
v 0.267090 -0.000000 -1.110775
v 0.267090 -0.000000 0.982103
v -0.869949 -0.000000 0.982103
v -0.815048 1.325668 0.305901
v -0.470383 1.325668 0.305901
v -0.815048 2.461007 0.305901
v -0.470383 2.461007 0.305901
v -0.815048 2.461007 -0.477102
v -0.470383 2.461007 -0.477102
v -0.815048 1.325668 -0.477102
v -0.470383 1.325668 -0.477102
vt 0.178250 0.481453
vt 0.206542 0.481453
vt 0.240129 0.483281
vt 0.240129 0.483281
vt 0.857826 0.932597
vt 0.857826 0.932597
vt 0.169762 0.483281
vt 0.169762 0.483281
vt 0.240129 0.483281
vt 0.240129 0.483281
vt 0.178250 0.481453
vt 0.206542 0.481453
vt 0.240129 0.483281
vt 0.240129 0.483281
vt 0.240129 0.483281
vt 0.240129 0.483281
vt 0.169762 0.483281
vt 0.169762 0.483281
vt 0.857826 0.932597
vt 0.857826 0.932597
vt 0.206542 0.481453
vt 0.206542 0.481453
vt 0.206542 0.481453
vt 0.206542 0.481453
vt 0.206542 0.481453
vt 0.240129 0.483281
vt 0.206542 0.481453
vt 0.169762 0.483281
vt 0.169762 0.483281
vt 0.206542 0.481453
vt 0.240129 0.483281
vt 0.206542 0.481453
vt 0.226259 0.468071
vt 0.240129 0.483281
vt 0.240129 0.483281
vt 0.857826 0.932597
vt 0.206542 0.481453
vt 0.240129 0.483281
vt 0.206542 0.481453
vt 0.169762 0.483281
vt 0.169762 0.483281
vt 0.206542 0.481453
vt 0.240129 0.483281
vt 0.206542 0.481453
vt 0.226259 0.468071
vt 0.240129 0.483281
vt 0.240129 0.483281
vt 0.226259 0.468071
vt 0.857826 0.932597
vt 0.857826 0.932597
vt 0.226259 0.468071
vt 0.857826 0.932597
vt 0.178250 0.481453
vt 0.206542 0.481453
vt 0.178250 0.481453
vt 0.206542 0.481453
vt 0.240129 0.483281
vt 0.240129 0.483281
vt 0.240129 0.483281
vt 0.240129 0.483281
vt 0.240129 0.483281
vt 0.240129 0.483281
vt 0.169762 0.483281
vt 0.169762 0.483281
vt 0.206542 0.481453
vt 0.206542 0.481453
vt 0.206542 0.481453
vt 0.206542 0.481453
vt 0.240129 0.483281
vt 0.240129 0.483281
vt 0.240129 0.483281
vt 0.240129 0.483281
vt 0.857826 0.932597
vt 0.857826 0.932597
vt 0.857826 0.932597
vt 0.857826 0.932597
vt 0.240129 0.483281
vt 0.240129 0.483281
vt 0.240129 0.483281
vt 0.240129 0.483281
vt 0.206542 0.481453
vt 0.206542 0.481453
vt 0.206542 0.481453
vt 0.206542 0.481453
vt 0.206542 0.481453
vt 0.206542 0.481453
vt 0.169762 0.483281
vt 0.169762 0.483281
vt 0.169762 0.483281
vt 0.169762 0.483281
vt 0.206542 0.481453
vt 0.206542 0.481453
vt 0.240129 0.483281
vt 0.240129 0.483281
vt 0.857826 0.932597
vt 0.857826 0.932597
vt 0.857826 0.932597
vt 0.857826 0.932597
vt 0.240129 0.483281
vt 0.240129 0.483281
vt 0.226259 0.468071
vt 0.226259 0.468071
vt 0.226259 0.468071
vt 0.226259 0.468071
vt 0.178250 0.481453
vt 0.206542 0.481453
vt 0.178250 0.481453
vt 0.206542 0.481453
vt 0.240129 0.483281
vt 0.240129 0.483281
vt 0.240129 0.483281
vt 0.240129 0.483281
vt 0.169762 0.483281
vt 0.169762 0.483281
vt 0.169762 0.483281
vt 0.169762 0.483281
vt 0.206542 0.481453
vt 0.206542 0.481453
vt 0.206542 0.481453
vt 0.206542 0.481453
vt 0.240129 0.483281
vt 0.240129 0.483281
vt 0.240129 0.483281
vt 0.240129 0.483281
vt 0.857826 0.932597
vt 0.857826 0.932597
vt 0.857826 0.932597
vt 0.857826 0.932597
vt 0.240129 0.483281
vt 0.240129 0.483281
vt 0.240129 0.483281
vt 0.240129 0.483281
vt 0.206542 0.481453
vt 0.206542 0.481453
vt 0.206542 0.481453
vt 0.206542 0.481453
vt 0.206542 0.481453
vt 0.206542 0.481453
vt 0.169762 0.483281
vt 0.169762 0.483281
vt 0.169762 0.483281
vt 0.169762 0.483281
vt 0.206542 0.481453
vt 0.206542 0.481453
vt 0.240129 0.483281
vt 0.240129 0.483281
vt 0.857826 0.932597
vt 0.857826 0.932597
vt 0.857826 0.932597
vt 0.857826 0.932597
vt 0.240129 0.483281
vt 0.240129 0.483281
vt 0.226259 0.468071
vt 0.226259 0.468071
vt 0.226259 0.468071
vt 0.226259 0.468071
vt 0.262243 0.061915
vt 0.228683 0.061915
vt 0.176986 0.061915
vt 0.228683 0.061915
vt 0.176986 0.061915
vt 0.193435 0.061915
vt 0.176986 0.061915
vt 0.228683 0.061915
vt 0.262243 0.061916
vt 0.262243 0.061916
vt 0.228683 0.061915
vt 0.228683 0.061915
vt 0.228683 0.061915
vt 0.193435 0.061915
vt 0.262243 0.061916
vt 0.262243 0.061916
vt 0.176986 0.061916
vt 0.228683 0.061916
vt 0.193435 0.061916
vt 0.228683 0.061916
vt 0.228683 0.061916
vt 0.193435 0.061916
vt 0.193435 0.061916
vt 0.228683 0.061916
vt 0.228683 0.061916
vt 0.176986 0.061916
vt 0.228683 0.061915
vt 0.262243 0.061915
vt 0.228683 0.061915
vt 0.193435 0.061915
vt 0.228683 0.061916
vt 0.176986 0.061916
vt 0.262243 0.061915
vt 0.262243 0.061915
vt 0.193435 0.061915
vt 0.262243 0.061915
vt 0.262243 0.061916
vt 0.262243 0.061916
vt 0.262243 0.061916
vt 0.262243 0.061916
vt 0.262243 0.061916
vt 0.262243 0.061916
vt 0.228683 0.061916
vt 0.262243 0.061916
vt 0.262243 0.061916
vt 0.262243 0.061916
vt 0.193435 0.061916
vt 0.262243 0.061916
vt 0.228683 0.061916
vt 0.262243 0.061916
vt 0.193435 0.061916
vt 0.262243 0.061916
vt 0.262243 0.061915
vt 0.193435 0.061915
vt 0.262243 0.061915
vt 0.262243 0.061915
vt 0.193435 0.061915
vt 0.193435 0.061916
vt 0.228683 0.061915
vt 0.193435 0.061916
vt 0.193435 0.061916
vt 0.193435 0.061915
vt 0.193435 0.061916
vt 0.228683 0.061915
vt 0.193435 0.061916
vt 0.228683 0.061916
vt 0.193435 0.061916
vt 0.228683 0.061916
vt 0.193435 0.061916
vt 0.193435 0.061916
vt 0.193435 0.061916
vt 0.228683 0.061916
vt 0.193435 0.061915
vt 0.193435 0.061916
vt 0.228683 0.061915
vt 0.228683 0.061916
vt 0.228683 0.061916
vt 0.193435 0.061915
vt 0.193435 0.061916
vt 0.193435 0.061915
vt 0.193435 0.061915
vt 0.193435 0.061915
vt 0.228683 0.061915
vt 0.193435 0.061915
vt 0.193435 0.061915
vt 0.193435 0.061915
vt 0.228683 0.061915
vt 0.193435 0.061915
vt 0.176986 0.061916
vt 0.228683 0.061916
vt 0.228683 0.061916
vt 0.176986 0.061916
vt 0.228683 0.061916
vt 0.176986 0.061916
vt 0.176986 0.061916
vt 0.176986 0.061916
vt 0.228683 0.061915
vt 0.176986 0.061915
vt 0.228683 0.061915
vt 0.228683 0.061915
vt 0.178250 0.481453
vt 0.206542 0.481453
vt 0.206542 0.481453
vt 0.178250 0.481453
vt 0.178250 0.481453
vt 0.206542 0.481453
vt 0.206542 0.481453
vt 0.178250 0.481453
vt 0.178250 0.481453
vt 0.206542 0.481453
vt 0.206542 0.481453
vt 0.178250 0.481453
vt 0.169762 0.483281
vt 0.169762 0.483281
vt 0.169762 0.483281
vt 0.169762 0.483281
vt 0.169762 0.483281
vt 0.169762 0.483281
vt 0.240129 0.483281
vt 0.240129 0.483281
vt 0.169762 0.483281
vt 0.169762 0.483281
vt 0.169762 0.483281
vt 0.169762 0.483281
vn 0.753836 -0.657062 0.000000
vn 0.753836 -0.657062 0.000000
vn 0.753836 -0.657062 0.000000
vn 0.753836 -0.657062 0.000000
vn 0.657147 0.753762 0.000000
vn 0.657147 0.753762 0.000000
vn 0.657147 0.753762 0.000000
vn 0.657147 0.753762 0.000000
vn -0.657087 -0.753814 0.000000
vn -0.657087 -0.753814 0.000000
vn -0.657087 -0.753815 0.000000
vn -0.657087 -0.753815 0.000000
vn 0.000000 0.000000 -1.000000
vn 0.000000 0.000000 -1.000000
vn 0.000000 0.000000 -1.000000
vn 0.000000 0.000000 -1.000000
vn 0.657083 0.753818 -0.000039
vn 0.657083 0.753818 -0.000039
vn 0.657084 0.753818 -0.000039
vn 0.657084 0.753818 -0.000039
vn 0.657083 0.753819 0.000000
vn 0.657083 0.753819 0.000000
vn 0.657081 0.753820 0.000000
vn 0.657081 0.753820 0.000000
vn 0.657083 0.753818 0.000040
vn 0.657083 0.753818 0.000040
vn 0.657084 0.753817 0.000039
vn 0.657084 0.753817 0.000039
vn 0.000000 0.000000 1.000000
vn 0.000000 0.000000 1.000000
vn 0.000000 0.000000 1.000000
vn 0.000000 0.000000 1.000000
vn -0.753836 0.657062 0.000000
vn -0.753836 0.657062 0.000000
vn -0.753836 0.657062 0.000000
vn -0.753836 0.657062 0.000000
vn 0.657102 0.753802 0.000000
vn 0.657102 0.753802 0.000000
vn 0.657102 0.753802 0.000000
vn 0.657102 0.753802 0.000000
vn 0.000000 0.000000 -1.000000
vn 0.000000 0.000000 -1.000000
vn 0.000000 0.000000 -1.000000
vn 0.000000 0.000000 -1.000000
vn -0.657089 -0.753813 0.000000
vn -0.657089 -0.753813 0.000000
vn -0.657090 -0.753813 0.000000
vn -0.657090 -0.753813 0.000000
vn 0.000000 0.000000 1.000000
vn 0.000000 0.000000 1.000000
vn 0.000000 0.000000 1.000000
vn 0.000000 0.000000 1.000000
vn 0.657092 0.753811 0.000026
vn 0.657092 0.753811 0.000026
vn 0.657090 0.753812 0.000028
vn 0.657090 0.753812 0.000028
vn 0.657090 0.753812 0.000000
vn 0.657090 0.753812 0.000000
vn 0.657092 0.753811 0.000000
vn 0.657092 0.753811 0.000000
vn 0.657092 0.753810 -0.000026
vn 0.657092 0.753810 -0.000026
vn 0.657091 0.753812 -0.000028
vn 0.657091 0.753812 -0.000028
vn 0.000000 0.000000 -1.000000
vn 0.000000 0.000000 -1.000000
vn 0.000000 0.000000 -1.000000
vn 0.000000 0.000000 -1.000000
vn -0.657090 -0.753813 0.000000
vn -0.657090 -0.753813 0.000000
vn -0.657087 -0.753814 0.000000
vn -0.657087 -0.753814 0.000000
vn 0.000000 0.000000 1.000000
vn 0.000000 0.000000 1.000000
vn 0.000000 0.000000 1.000000
vn 0.000000 0.000000 1.000000
vn 0.657090 0.753812 0.000028
vn 0.657090 0.753812 0.000028
vn 0.657083 0.753818 0.000040
vn 0.657083 0.753818 0.000040
vn 0.657092 0.753811 0.000000
vn 0.657092 0.753811 0.000000
vn 0.657083 0.753819 0.000000
vn 0.657083 0.753819 0.000000
vn 0.657091 0.753812 -0.000028
vn 0.657091 0.753812 -0.000028
vn 0.657083 0.753818 -0.000039
vn 0.657083 0.753818 -0.000039
vn 0.753836 -0.657062 0.000000
vn 0.753836 -0.657062 0.000000
vn 0.753836 -0.657062 0.000000
vn 0.753836 -0.657062 0.000000
vn 0.657147 0.753763 0.000000
vn 0.657147 0.753763 0.000000
vn 0.657147 0.753763 0.000000
vn 0.657147 0.753763 0.000000
vn -0.657087 -0.753814 0.000000
vn -0.657087 -0.753814 0.000000
vn -0.657087 -0.753815 0.000000
vn -0.657087 -0.753815 0.000000
vn 0.000000 0.000000 -1.000000
vn 0.000000 0.000000 -1.000000
vn 0.000000 0.000000 -1.000000
vn 0.000000 0.000000 -1.000000
vn 0.657083 0.753818 -0.000039
vn 0.657083 0.753818 -0.000039
vn 0.657084 0.753817 -0.000039
vn 0.657084 0.753817 -0.000039
vn 0.657083 0.753819 0.000000
vn 0.657083 0.753819 0.000000
vn 0.657081 0.753820 0.000000
vn 0.657081 0.753820 0.000000
vn 0.657083 0.753818 0.000040
vn 0.657083 0.753818 0.000040
vn 0.657084 0.753817 0.000039
vn 0.657084 0.753817 0.000039
vn -0.000000 0.000000 1.000000
vn -0.000000 0.000000 1.000000
vn 0.000000 0.000000 1.000000
vn 0.000000 0.000000 1.000000
vn -0.753836 0.657062 0.000000
vn -0.753836 0.657062 0.000000
vn -0.753836 0.657062 0.000000
vn -0.753836 0.657062 0.000000
vn 0.657102 0.753801 0.000000
vn 0.657102 0.753801 0.000000
vn 0.657102 0.753802 0.000000
vn 0.657102 0.753801 0.000000
vn 0.000000 0.000000 -1.000000
vn 0.000000 0.000000 -1.000000
vn 0.000000 0.000000 -1.000000
vn 0.000000 0.000000 -1.000000
vn -0.657090 -0.753813 0.000000
vn -0.657090 -0.753813 0.000000
vn -0.657090 -0.753812 0.000000
vn -0.657090 -0.753812 0.000000
vn 0.000000 0.000000 1.000000
vn 0.000000 0.000000 1.000000
vn -0.000000 0.000000 1.000000
vn -0.000000 0.000000 1.000000
vn 0.657092 0.753810 0.000026
vn 0.657092 0.753810 0.000026
vn 0.657091 0.753812 0.000028
vn 0.657091 0.753812 0.000028
vn 0.657090 0.753812 0.000000
vn 0.657090 0.753812 0.000000
vn 0.657092 0.753811 0.000000
vn 0.657092 0.753811 0.000000
vn 0.657092 0.753810 -0.000026
vn 0.657092 0.753810 -0.000026
vn 0.657091 0.753812 -0.000028
vn 0.657091 0.753812 -0.000028
vn 0.000000 0.000000 -1.000000
vn 0.000000 0.000000 -1.000000
vn 0.000000 0.000000 -1.000000
vn 0.000000 0.000000 -1.000000
vn -0.657090 -0.753812 0.000000
vn -0.657090 -0.753812 0.000000
vn -0.657087 -0.753814 0.000000
vn -0.657087 -0.753814 0.000000
vn -0.000000 0.000000 1.000000
vn -0.000000 0.000000 1.000000
vn -0.000000 0.000000 1.000000
vn -0.000000 0.000000 1.000000
vn 0.657091 0.753812 0.000028
vn 0.657091 0.753812 0.000028
vn 0.657083 0.753818 0.000040
vn 0.657083 0.753818 0.000040
vn 0.657092 0.753811 0.000000
vn 0.657092 0.753811 0.000000
vn 0.657083 0.753819 0.000000
vn 0.657083 0.753819 0.000000
vn 0.657091 0.753812 -0.000028
vn 0.657091 0.753812 -0.000028
vn 0.657083 0.753818 -0.000039
vn 0.657083 0.753818 -0.000039
vn 0.753836 -0.657062 0.000000
vn 0.753836 -0.657062 0.000000
vn 0.753836 -0.657062 0.000000
vn 0.753836 -0.657062 0.000000
vn 0.657147 0.753763 0.000000
vn 0.657147 0.753762 0.000000
vn 0.657147 0.753762 0.000000
vn 0.657147 0.753762 0.000000
vn -0.657087 -0.753814 0.000000
vn -0.657087 -0.753814 0.000000
vn -0.657087 -0.753815 0.000000
vn -0.657087 -0.753815 0.000000
vn 0.000000 0.000000 -1.000000
vn 0.000000 0.000000 -1.000000
vn 0.000000 0.000000 -1.000000
vn 0.000000 0.000000 -1.000000
vn 0.657084 0.753818 -0.000039
vn 0.657084 0.753818 -0.000039
vn 0.657084 0.753817 -0.000039
vn 0.657084 0.753817 -0.000039
vn 0.657083 0.753819 0.000000
vn 0.657083 0.753819 0.000000
vn 0.657081 0.753820 0.000000
vn 0.657081 0.753820 0.000000
vn 0.657083 0.753818 0.000040
vn 0.657083 0.753818 0.000040
vn 0.657084 0.753818 0.000039
vn 0.657084 0.753818 0.000039
vn -0.000000 0.000000 1.000000
vn -0.000000 0.000000 1.000000
vn 0.000000 0.000000 1.000000
vn 0.000000 0.000000 1.000000
vn -0.753836 0.657062 0.000000
vn -0.753836 0.657062 0.000000
vn -0.753836 0.657062 0.000000
vn -0.753836 0.657062 0.000000
vn 0.657102 0.753802 0.000000
vn 0.657102 0.753802 0.000000
vn 0.657102 0.753802 0.000000
vn 0.657102 0.753802 0.000000
vn 0.000000 0.000000 -1.000000
vn 0.000000 0.000000 -1.000000
vn 0.000000 0.000000 -1.000000
vn 0.000000 0.000000 -1.000000
vn -0.657089 -0.753813 0.000000
vn -0.657089 -0.753813 0.000000
vn -0.657090 -0.753813 0.000000
vn -0.657090 -0.753813 0.000000
vn 0.000000 0.000000 1.000000
vn 0.000000 0.000000 1.000000
vn -0.000000 0.000000 1.000000
vn -0.000000 0.000000 1.000000
vn 0.657092 0.753810 0.000026
vn 0.657092 0.753810 0.000026
vn 0.657090 0.753812 0.000028
vn 0.657090 0.753812 0.000028
vn 0.657091 0.753812 0.000000
vn 0.657091 0.753812 0.000000
vn 0.657092 0.753811 0.000000
vn 0.657092 0.753811 0.000000
vn 0.657092 0.753811 -0.000026
vn 0.657092 0.753811 -0.000026
vn 0.657090 0.753812 -0.000028
vn 0.657090 0.753812 -0.000028
vn 0.000000 0.000000 -1.000000
vn 0.000000 0.000000 -1.000000
vn 0.000000 0.000000 -1.000000
vn 0.000000 0.000000 -1.000000
vn -0.657090 -0.753813 0.000000
vn -0.657090 -0.753813 0.000000
vn -0.657087 -0.753814 0.000000
vn -0.657087 -0.753814 0.000000
vn -0.000000 0.000000 1.000000
vn -0.000000 0.000000 1.000000
vn -0.000000 0.000000 1.000000
vn -0.000000 0.000000 1.000000
vn 0.657090 0.753812 0.000028
vn 0.657090 0.753812 0.000028
vn 0.657083 0.753818 0.000040
vn 0.657083 0.753818 0.000040
vn 0.657092 0.753811 0.000000
vn 0.657092 0.753811 0.000000
vn 0.657083 0.753819 0.000000
vn 0.657083 0.753819 0.000000
vn 0.657090 0.753812 -0.000028
vn 0.657090 0.753812 -0.000028
vn 0.657084 0.753818 -0.000039
vn 0.657084 0.753818 -0.000039
vn 0.000000 0.000000 1.000000
vn 0.000000 0.000000 1.000000
vn 0.000000 0.000000 1.000000
vn 0.000000 0.000000 1.000000
vn 0.657073 0.753827 0.000000
vn 0.657073 0.753827 0.000000
vn 0.657073 0.753827 0.000000
vn 0.657073 0.753827 0.000000
vn 0.000000 0.000000 -1.000000
vn 0.000000 0.000000 -1.000000
vn 0.000000 0.000000 -1.000000
vn 0.000000 0.000000 -1.000000
vn -0.657085 -0.753816 0.000000
vn -0.657085 -0.753816 0.000000
vn -0.657085 -0.753816 0.000000
vn -0.657085 -0.753816 0.000000
vn 0.753805 -0.657099 0.000000
vn 0.753805 -0.657099 0.000000
vn 0.753805 -0.657099 0.000000
vn 0.753805 -0.657099 0.000000
vn -0.753826 0.657074 0.000000
vn -0.753826 0.657074 0.000000
vn -0.753826 0.657074 0.000000
vn -0.753826 0.657074 0.000000
vn 0.000000 0.000000 1.000000
vn 0.000000 0.000000 1.000000
vn 0.000000 0.000000 1.000000
vn 0.000000 0.000000 1.000000
vn 0.000000 1.000000 0.000000
vn 0.000000 1.000000 0.000000
vn 0.000000 1.000000 0.000000
vn 0.000000 1.000000 0.000000
vn 0.000000 0.000000 -1.000000
vn 0.000000 0.000000 -1.000000
vn 0.000000 0.000000 -1.000000
vn 0.000000 0.000000 -1.000000
vn 0.000000 -1.000000 0.000000
vn 0.000000 -1.000000 0.000000
vn 0.000000 -1.000000 0.000000
vn 0.000000 -1.000000 0.000000
vn 1.000000 0.000000 0.000000
vn 1.000000 0.000000 0.000000
vn 1.000000 0.000000 0.000000
vn 1.000000 0.000000 0.000000
vn -1.000000 0.000000 0.000000
vn -1.000000 0.000000 0.000000
vn -1.000000 0.000000 0.000000
vn -1.000000 0.000000 0.000000
vn 0.000000 1.000000 0.000000
vn 0.000000 1.000000 0.000000
vn 0.000000 1.000000 0.000000
vn 0.000000 1.000000 0.000000
vn 0.000000 1.000000 0.000000
vn 0.000000 1.000000 0.000000
vn 0.000000 1.000000 0.000000
vn 0.000000 1.000000 0.000000
vn 0.000000 1.000000 -0.000000
vn 0.000000 1.000000 -0.000000
vn 0.000000 1.000000 -0.000000
vn 0.000000 1.000000 -0.000000
vn 0.000000 1.000000 0.000000
vn 0.000000 1.000000 0.000000
vn 0.000000 1.000000 0.000000
vn 0.000000 1.000000 0.000000
vn 0.000000 0.000000 -1.000000
vn 0.000000 0.000000 -1.000000
vn 0.000000 0.000000 -1.000000
vn 0.000000 0.000000 -1.000000
vn 1.000000 0.000000 0.000000
vn 1.000000 0.000000 0.000000
vn 1.000000 0.000000 0.000000
vn 1.000000 0.000000 0.000000
vn 0.000000 0.000000 1.000000
vn 0.000000 0.000000 1.000000
vn 0.000000 0.000000 1.000000
vn 0.000000 0.000000 1.000000
vn -1.000000 0.000000 0.000000
vn -1.000000 0.000000 0.000000
vn -1.000000 0.000000 0.000000
vn -1.000000 0.000000 0.000000
vn 0.000000 0.000000 1.000000
vn 0.000000 0.000000 1.000000
vn 0.000000 0.000000 1.000000
vn 0.000000 0.000000 1.000000
vn 0.000000 1.000000 0.000000
vn 0.000000 1.000000 0.000000
vn 0.000000 1.000000 0.000000
vn 0.000000 1.000000 0.000000
vn 0.000000 0.000000 -1.000000
vn 0.000000 0.000000 -1.000000
vn 0.000000 0.000000 -1.000000
vn 0.000000 0.000000 -1.000000
vn 0.000000 -1.000000 0.000000
vn 0.000000 -1.000000 0.000000
vn 0.000000 -1.000000 0.000000
vn 0.000000 -1.000000 0.000000
vn 1.000000 0.000000 0.000000
vn 1.000000 0.000000 0.000000
vn 1.000000 0.000000 0.000000
vn 1.000000 0.000000 0.000000
vn -1.000000 0.000000 0.000000
vn -1.000000 0.000000 0.000000
vn -1.000000 0.000000 0.000000
vn -1.000000 0.000000 0.000000
s off
f 1/1/1 3/268/2 4/11/3 2/265/4
f 3/4/5 5/10/6 6/9/7 4/3/8
f 20/277/9 21/278/10 8/17/11 7/18/12
f 19/37/13 20/39/14 7/21/15 9/22/16
f 24/47/17 19/38/18 9/14/19 11/16/20
f 23/49/21 24/50/22 11/19/23 12/20/24
f 22/43/25 23/46/26 12/15/27 10/13/28
f 21/42/29 22/44/30 10/23/31 8/24/32
f 7/21/33 8/24/34 10/23/35 9/22/36
f 9/14/37 10/13/38 12/15/39 11/16/40
f 3/2/41 1/267/42 14/27/43 13/25/44
f 1/8/45 2/7/46 15/29/47 14/28/48
f 2/12/49 4/266/50 16/32/51 15/30/52
f 4/3/53 6/9/54 17/34/55 16/31/56
f 6/6/57 5/5/58 18/36/59 17/52/60
f 5/10/61 3/4/62 13/26/63 18/35/64
f 13/25/65 14/27/66 20/39/67 19/37/68
f 14/279/69 15/280/70 21/41/71 20/40/72
f 15/30/73 16/32/74 22/44/75 21/42/76
f 16/31/77 17/34/78 23/46/79 22/43/80
f 17/33/81 18/51/82 24/48/83 23/45/84
f 18/35/85 13/26/86 19/38/87 24/47/88
f 25/53/89 27/264/90 28/55/91 26/261/92
f 27/57/93 29/58/94 30/59/95 28/60/96
f 44/273/97 45/274/98 32/63/99 31/64/100
f 43/65/101 44/66/102 31/67/103 33/68/104
f 48/69/105 43/70/106 33/71/107 35/72/108
f 47/73/109 48/74/110 35/75/111 36/76/112
f 46/77/113 47/78/114 36/79/115 34/80/116
f 45/81/117 46/82/118 34/83/119 32/84/120
f 31/67/121 32/84/122 34/83/123 33/68/124
f 33/71/125 34/80/126 36/79/127 35/72/128
f 27/54/129 25/263/130 38/85/131 37/86/132
f 25/87/133 26/88/134 39/89/135 38/90/136
f 26/56/137 28/262/138 40/91/139 39/92/140
f 28/60/141 30/59/142 41/93/143 40/94/144
f 30/95/145 29/96/146 42/97/147 41/98/148
f 29/58/149 27/57/150 37/99/151 42/100/152
f 37/86/153 38/85/154 44/66/155 43/65/156
f 38/275/157 39/276/158 45/62/159 44/61/160
f 39/92/161 40/91/162 46/82/163 45/81/164
f 40/94/165 41/93/166 47/78/167 46/77/168
f 41/101/169 42/102/170 48/103/171 47/104/172
f 42/100/173 37/99/174 43/70/175 48/69/176
f 49/105/177 51/260/178 52/107/179 50/257/180
f 51/109/181 53/110/182 54/111/183 52/112/184
f 68/269/185 69/270/186 56/115/187 55/116/188
f 67/117/189 68/118/190 55/119/191 57/120/192
f 72/121/193 67/122/194 57/123/195 59/124/196
f 71/125/197 72/126/198 59/127/199 60/128/200
f 70/129/201 71/130/202 60/131/203 58/132/204
f 69/133/205 70/134/206 58/135/207 56/136/208
f 55/119/209 56/136/210 58/135/211 57/120/212
f 57/123/213 58/132/214 60/131/215 59/124/216
f 51/106/217 49/259/218 62/137/219 61/138/220
f 49/139/221 50/140/222 63/141/223 62/142/224
f 50/108/225 52/258/226 64/143/227 63/144/228
f 52/112/229 54/111/230 65/145/231 64/146/232
f 54/147/233 53/148/234 66/149/235 65/150/236
f 53/110/237 51/109/238 61/151/239 66/152/240
f 61/138/241 62/137/242 68/118/243 67/117/244
f 62/271/245 63/272/246 69/114/247 68/113/248
f 63/144/249 64/143/250 70/134/251 69/133/252
f 64/146/253 65/145/254 71/130/255 70/129/256
f 65/153/257 66/154/258 72/155/259 71/156/260
f 66/152/261 61/151/262 67/122/263 72/121/264
f 73/210/265 74/241/266 76/242/267 75/244/268
f 75/160/269 76/256/270 78/255/271 77/239/272
f 77/162/273 78/237/274 80/238/275 79/240/276
f 79/164/277 80/253/278 74/158/279 73/243/280
f 74/254/281 80/163/282 78/161/283 76/159/284
f 79/209/285 73/157/286 75/212/287 77/211/288
f 81/235/289 82/203/290 84/234/291 83/236/292
f 83/168/293 84/167/294 86/169/295 85/231/296
f 85/170/297 86/229/298 88/230/299 87/207/300
f 93/173/301 94/252/302 95/251/303 96/250/304
f 82/233/305 88/205/306 86/169/307 84/167/308
f 87/232/309 81/199/310 83/168/311 85/231/312
f 87/172/313 88/206/314 90/202/315 89/193/316
f 88/171/317 82/204/318 91/198/319 90/201/320
f 82/166/321 81/200/322 92/196/323 91/197/324
f 81/165/325 87/208/326 89/194/327 92/195/328
f 89/178/329 90/227/330 94/226/331 93/225/332
f 90/177/333 91/224/334 95/222/335 94/174/336
f 91/179/337 92/223/338 96/221/339 95/175/340
f 92/180/341 89/228/342 93/249/343 96/176/344
f 97/219/345 98/217/346 100/218/347 99/191/348
f 99/184/349 100/189/350 102/190/351 101/192/352
f 101/186/353 102/213/354 104/214/355 103/216/356
f 103/188/357 104/245/358 98/182/359 97/248/360
f 98/246/361 104/187/362 102/185/363 100/183/364
f 103/247/365 97/181/366 99/220/367 101/215/368
