# This file uses centimeters as units for non-parametric coordinates.

v 0.224480 2.149175 -0.541473
v -0.224152 2.149175 -0.541605
v -0.541473 2.149175 -0.224473
v -0.541607 2.149175 0.224153
v -0.224472 2.149175 0.541473
v 0.224152 2.149175 0.541605
v 0.541473 2.149175 0.224473
v 0.541611 2.149175 -0.224153
v 0.224480 5.348697 -0.541473
v -0.224152 5.348697 -0.541605
v -0.541473 5.348697 -0.224473
v -0.541607 5.348697 0.224153
v -0.224472 5.348697 0.541473
v 0.224152 5.348697 0.541605
v 0.541473 5.348697 0.224473
v 0.541611 5.348697 -0.224153
v 0.130554 6.865517 -0.314921
v -0.130363 6.865517 -0.314998
v 0.000000 8.061877 0.000000
v -0.314922 6.865517 -0.130554
v -0.314995 6.865517 0.130367
v -0.130554 6.865517 0.314920
v 0.130363 6.865517 0.314998
v 0.314926 6.865517 0.130553
v 0.315002 6.865517 -0.130368
v 0.182625 0.355009 -0.440531
v -0.182365 0.355009 -0.440637
v -0.440529 0.355009 -0.182626
v -0.440636 0.355009 0.182365
v -0.182625 0.355009 0.440529
v 0.182365 0.355009 0.440637
v 0.440536 0.355009 0.182625
v 0.440636 0.355009 -0.182366
v -0.903214 0.000000 0.071864
v -0.426529 0.355009 0.071864
v -1.167160 1.478611 0.071864
v -0.527607 2.549023 0.071864
v -1.167160 1.478611 -0.071864
v -0.527607 2.549023 -0.071864
v -0.903214 0.000000 -0.071864
v -0.426529 0.355009 -0.071864
v -1.167160 0.000000 -0.071864
v -1.167160 0.000000 0.071864
v -0.071861 0.000000 -0.903214
v -0.071861 0.355009 -0.426530
v -0.071861 1.478611 -1.167161
v -0.071861 2.549023 -0.527607
v 0.071861 1.478611 -1.167161
v 0.071861 2.549023 -0.527607
v 0.071861 0.000000 -0.903214
v 0.071861 0.355009 -0.426530
v 0.071861 0.000000 -1.167161
v -0.071861 0.000000 -1.167161
v 0.903214 0.000000 -0.071864
v 0.426529 0.355009 -0.071864
v 1.167160 1.478611 -0.071864
v 0.527611 2.549023 -0.071864
v 1.167160 1.478611 0.071864
v 0.527611 2.549023 0.071864
v 0.903214 0.000000 0.071864
v 0.426529 0.355009 0.071864
v 1.167160 0.000000 0.071864
v 1.167160 0.000000 -0.071864
v 0.071861 0.000000 0.903214
v 0.071861 0.355009 0.426530
v 0.071861 1.478611 1.167161
v 0.071861 2.549023 0.527607
v -0.071861 1.478611 1.167161
v -0.071861 2.549023 0.527607
v -0.071861 0.000000 0.903214
v -0.071861 0.355009 0.426530
v -0.071861 0.000000 1.167161
v 0.071861 0.000000 1.167161
v 0.240677 3.813188 -0.580549
v 0.580688 3.813188 -0.240329
v 0.580551 3.813188 0.240671
v 0.240326 3.813188 0.580690
v -0.240677 3.813188 0.580548
v -0.580692 3.813188 0.240328
v -0.580547 3.813188 -0.240672
v -0.240326 3.813188 -0.580690
v 0.129013 0.355009 -0.311198
v -0.128830 0.355009 -0.311273
v -0.311199 0.355009 -0.129010
v -0.311275 0.355009 0.128826
v -0.129013 0.355009 0.311197
v 0.128830 0.355009 0.311273
v 0.311203 0.355009 0.129009
v 0.311272 0.355009 -0.128826
v 0.129013 0.649717 -0.311198
v -0.128830 0.649717 -0.311273
v 0.000000 0.649717 -0.000000
v -0.311199 0.649717 -0.129010
v -0.311275 0.649717 0.128826
v -0.129013 0.649717 0.311197
v 0.128830 0.649717 0.311273
v 0.311203 0.649717 0.129009
v 0.311272 0.649717 -0.128826
vt 0.357273 0.479267
vt 0.357273 0.479267
vt 0.357273 0.479267
vt 0.106422 0.480816
vt 0.106422 0.480816
vt 0.106422 0.480816
vt 0.357273 0.479267
vt 0.357273 0.479267
vt 0.106422 0.480816
vt 0.106426 0.480816
vt 0.357273 0.479267
vt 0.357273 0.479267
vt 0.357273 0.479267
vt 0.357273 0.479267
vt 0.357273 0.479267
vt 0.106426 0.480816
vt 0.106422 0.480816
vt 0.357273 0.479267
vt 0.357273 0.479267
vt 0.357273 0.479267
vt 0.106422 0.480816
vt 0.106422 0.480816
vt 0.106422 0.480816
vt 0.357273 0.479267
vt 0.357273 0.479267
vt 0.357273 0.479267
vt 0.357273 0.479267
vt 0.357273 0.479267
vt 0.357273 0.479267
vt 0.357273 0.479267
vt 0.357273 0.479267
vt 0.106422 0.480817
vt 0.106422 0.480817
vt 0.106422 0.480816
vt 0.137482 0.480817
vt 0.106422 0.480817
vt 0.106422 0.480817
vt 0.106422 0.480817
vt 0.357273 0.479267
vt 0.357273 0.479267
vt 0.357273 0.479267
vt 0.357273 0.479267
vt 0.357273 0.479267
vt 0.106422 0.480817
vt 0.357273 0.479267
vt 0.357273 0.479267
vt 0.357273 0.479267
vt 0.357273 0.479267
vt 0.357273 0.479267
vt 0.357273 0.479267
vt 0.357273 0.479267
vt 0.357273 0.479267
vt 0.137489 0.480817
vt 0.106426 0.480817
vt 0.106426 0.480816
vt 0.164897 0.478990
vt 0.106426 0.480816
vt 0.137489 0.480817
vt 0.106426 0.480817
vt 0.137489 0.480817
vt 0.164897 0.478990
vt 0.137489 0.480817
vt 0.137485 0.480817
vt 0.137485 0.480817
vt 0.106422 0.480816
vt 0.164893 0.478990
vt 0.106422 0.480816
vt 0.137485 0.480817
vt 0.388335 0.479267
vt 0.388335 0.479267
vt 0.357273 0.479267
vt 0.415743 0.477440
vt 0.415743 0.477440
vt 0.388335 0.479267
vt 0.388335 0.479267
vt 0.388335 0.479267
vt 0.388335 0.479267
vt 0.388335 0.479267
vt 0.357273 0.479267
vt 0.357273 0.479267
vt 0.415743 0.477440
vt 0.388335 0.479267
vt 0.388335 0.479267
vt 0.388335 0.479267
vt 0.388335 0.479267
vt 0.388335 0.479267
vt 0.357273 0.479267
vt 0.415743 0.477440
vt 0.415743 0.477440
vt 0.388335 0.479267
vt 0.388335 0.479267
vt 0.388335 0.479267
vt 0.388335 0.479267
vt 0.388335 0.479267
vt 0.357273 0.479267
vt 0.357273 0.479267
vt 0.415743 0.477440
vt 0.388335 0.479267
vt 0.388335 0.479267
vt 0.388335 0.479267
vt 0.106422 0.480817
vt 0.137485 0.480817
vt 0.164893 0.478990
vt 0.137485 0.480817
vt 0.106426 0.480816
vt 0.106426 0.480816
vt 0.106422 0.480816
vt 0.106422 0.480816
vt 0.106422 0.480816
vt 0.106422 0.480816
vt 0.106422 0.480817
vt 0.106422 0.480817
vt 0.106422 0.480816
vt 0.106422 0.480817
vt 0.106422 0.480816
vt 0.106426 0.480817
vt 0.357273 0.479267
vt 0.357273 0.479267
vt 0.357273 0.479267
vt 0.357273 0.479267
vt 0.357273 0.479267
vt 0.357273 0.479267
vt 0.357273 0.479267
vt 0.357273 0.479267
vt 0.357273 0.479267
vt 0.106422 0.480817
vt 0.106422 0.480817
vt 0.106422 0.480816
vt 0.106422 0.480816
vt 0.106426 0.480816
vt 0.106422 0.480816
vt 0.106422 0.480816
vt 0.106426 0.480816
vt 0.106426 0.480817
vt 0.357273 0.479267
vt 0.357273 0.479267
vt 0.357273 0.479267
vt 0.357273 0.479267
vt 0.357273 0.479267
vt 0.357273 0.479267
vt 0.357273 0.479267
vt 0.357273 0.479267
vt 0.137482 0.480817
vt 0.137482 0.480817
vt 0.137489 0.480817
vt 0.137489 0.480817
vt 0.137482 0.480817
vt 0.137482 0.480817
vt 0.137482 0.480817
vt 0.137482 0.480817
vt 0.137482 0.480817
vt 0.137482 0.480817
vt 0.137489 0.480817
vt 0.137489 0.480817
vt 0.137482 0.480817
vt 0.137482 0.480817
vt 0.137482 0.480817
vt 0.137482 0.480817
vt 0.164893 0.478990
vt 0.164893 0.478990
vt 0.137485 0.480817
vt 0.164893 0.478990
vt 0.164893 0.478990
vt 0.137485 0.480817
vt 0.164893 0.478989
vt 0.164893 0.478989
vt 0.415743 0.477440
vt 0.415743 0.477440
vt 0.388335 0.479267
vt 0.415743 0.477440
vt 0.415743 0.477440
vt 0.388335 0.479267
vt 0.415743 0.477440
vt 0.388335 0.479267
vt 0.415743 0.477440
vt 0.415743 0.477440
vt 0.388335 0.479267
vt 0.415743 0.477440
vt 0.415743 0.477440
vt 0.388335 0.479267
vt 0.415743 0.477440
vt 0.388335 0.479267
vt 0.164897 0.478990
vt 0.164897 0.478990
vt 0.137489 0.480817
vt 0.164897 0.478990
vt 0.164897 0.478990
vt 0.137489 0.480817
vt 0.164897 0.478989
vt 0.164897 0.478989
vt 0.137485 0.480817
vt 0.137485 0.480817
vt 0.137485 0.480817
vt 0.137485 0.480817
vt 0.137485 0.480817
vt 0.137485 0.480817
vt 0.137485 0.480817
vt 0.137485 0.480817
vt 0.137485 0.480817
vt 0.137485 0.480817
vt 0.137485 0.480817
vt 0.137485 0.480817
vt 0.137485 0.480817
vt 0.106422 0.480817
vt 0.137485 0.480816
vt 0.137485 0.480816
vt 0.388335 0.479267
vt 0.388335 0.479267
vt 0.388335 0.479267
vt 0.388335 0.479267
vt 0.388335 0.479267
vt 0.388335 0.479267
vt 0.388335 0.479267
vt 0.388335 0.479267
vt 0.357273 0.479267
vt 0.388335 0.479267
vt 0.388335 0.479267
vt 0.388335 0.479267
vt 0.388335 0.479267
vt 0.388335 0.479267
vt 0.388335 0.479267
vt 0.388335 0.479267
vt 0.388335 0.479267
vt 0.388335 0.479267
vt 0.357273 0.479267
vt 0.388335 0.479267
vt 0.137489 0.480817
vt 0.137489 0.480817
vt 0.137489 0.480817
vt 0.137489 0.480817
vt 0.137489 0.480817
vt 0.106426 0.480817
vt 0.137489 0.480817
vt 0.106426 0.480817
vt 0.137489 0.480817
vt 0.137489 0.480817
vt 0.137489 0.480816
vt 0.137489 0.480817
vt 0.137489 0.480816
vt 0.137489 0.480817
vn 0.000294 -0.023479 -0.999724
vn 0.000294 -0.023479 -0.999724
vn 0.000294 -0.000006 -1.000000
vn 0.000294 -0.000006 -1.000000
vn -0.706703 -0.023479 -0.707121
vn -0.706703 -0.023479 -0.707121
vn -0.706898 -0.000006 -0.707316
vn -0.706898 -0.000006 -0.707316
vn -0.999724 -0.023479 -0.000297
vn -0.999724 -0.023479 -0.000297
vn -1.000000 -0.000006 -0.000297
vn -1.000000 -0.000006 -0.000297
vn -0.707121 -0.023479 0.706702
vn -0.707121 -0.023479 0.706702
vn -0.707316 -0.000006 0.706897
vn -0.707316 -0.000006 0.706897
vn -0.000296 -0.023479 0.999724
vn -0.000296 -0.023479 0.999724
vn -0.000296 -0.000006 1.000000
vn -0.000296 -0.000006 1.000000
vn 0.706701 -0.023478 0.707122
vn 0.706701 -0.023478 0.707122
vn 0.706896 -0.000006 0.707317
vn 0.706896 -0.000006 0.707317
vn 0.999724 -0.023478 0.000297
vn 0.999724 -0.023478 0.000297
vn 1.000000 -0.000006 0.000297
vn 1.000000 -0.000006 0.000297
vn 0.707121 -0.023478 -0.706703
vn 0.707121 -0.023478 -0.706703
vn 0.707316 -0.000006 -0.706897
vn 0.707316 -0.000006 -0.706897
vn 0.368293 0.274049 -0.888402
vn -0.367769 0.274047 -0.888619
vn 0.000001 1.000000 -0.000001
vn -0.367769 0.274047 -0.888619
vn -0.888402 0.274044 -0.368295
vn 0.000001 1.000000 -0.000001
vn -0.888402 0.274044 -0.368295
vn -0.888619 0.274046 0.367772
vn 0.000001 1.000000 -0.000001
vn -0.888619 0.274046 0.367772
vn -0.368295 0.274047 0.888401
vn 0.000001 1.000000 -0.000001
vn -0.368295 0.274047 0.888401
vn 0.367770 0.274046 0.888619
vn 0.000001 1.000000 -0.000001
vn 0.367770 0.274046 0.888619
vn 0.888401 0.274046 0.368297
vn 0.000001 1.000000 -0.000001
vn 0.888401 0.274046 0.368297
vn 0.888619 0.274048 -0.367770
vn 0.000001 1.000000 -0.000001
vn 0.888619 0.274048 -0.367770
vn 0.368293 0.274049 -0.888402
vn 0.000001 1.000000 -0.000001
vn 0.000291 0.147739 -0.989026
vn 0.000291 0.147739 -0.989026
vn 0.000291 0.147739 -0.989026
vn 0.000291 0.147739 -0.989026
vn -0.699141 0.147739 -0.699553
vn -0.699141 0.147739 -0.699553
vn -0.699141 0.147739 -0.699553
vn -0.699141 0.147739 -0.699553
vn -0.989026 0.147739 -0.000295
vn -0.989026 0.147739 -0.000295
vn -0.989026 0.147739 -0.000295
vn -0.989026 0.147739 -0.000295
vn -0.699552 0.147739 0.699142
vn -0.699552 0.147739 0.699142
vn -0.699552 0.147739 0.699142
vn -0.699552 0.147739 0.699142
vn -0.000293 0.147739 0.989026
vn -0.000293 0.147739 0.989026
vn -0.000293 0.147739 0.989026
vn -0.000293 0.147739 0.989026
vn 0.699139 0.147740 0.699555
vn 0.699139 0.147740 0.699555
vn 0.699139 0.147740 0.699555
vn 0.699139 0.147740 0.699555
vn 0.989026 0.147739 0.000294
vn 0.989026 0.147739 0.000294
vn 0.989026 0.147739 0.000294
vn 0.989026 0.147739 0.000294
vn 0.699554 0.147741 -0.699140
vn 0.699554 0.147741 -0.699140
vn 0.699554 0.147741 -0.699140
vn 0.699554 0.147741 -0.699140
vn 0.000293 -0.056180 -0.998421
vn 0.000293 -0.056180 -0.998421
vn 0.000293 -0.056180 -0.998421
vn 0.000293 -0.056180 -0.998421
vn -0.705781 -0.056179 -0.706199
vn -0.705781 -0.056179 -0.706199
vn -0.705781 -0.056179 -0.706199
vn -0.705781 -0.056179 -0.706199
vn -0.998421 -0.056179 -0.000295
vn -0.998421 -0.056179 -0.000295
vn -0.998421 -0.056179 -0.000295
vn -0.998421 -0.056179 -0.000295
vn -0.706198 -0.056180 0.705782
vn -0.706198 -0.056180 0.705782
vn -0.706198 -0.056180 0.705782
vn -0.706198 -0.056180 0.705782
vn -0.000295 -0.056180 0.998421
vn -0.000295 -0.056180 0.998421
vn -0.000295 -0.056180 0.998421
vn -0.000295 -0.056180 0.998421
vn 0.705780 -0.056181 0.706200
vn 0.705780 -0.056181 0.706200
vn 0.705780 -0.056181 0.706200
vn 0.705780 -0.056181 0.706200
vn 0.998421 -0.056181 0.000294
vn 0.998421 -0.056181 0.000294
vn 0.998421 -0.056181 0.000294
vn 0.998421 -0.056181 0.000294
vn 0.706201 -0.056181 -0.705779
vn 0.706201 -0.056181 -0.705779
vn 0.706201 -0.056181 -0.705779
vn 0.706201 -0.056181 -0.705779
vn 0.000000 -1.000000 0.000001
vn 0.000000 -1.000000 0.000000
vn 0.000000 -1.000000 0.000000
vn 0.000000 -1.000000 0.000000
vn 0.000000 -1.000000 0.000001
vn 0.000000 -1.000000 0.000000
vn 0.000000 -1.000000 -0.000000
vn 0.000000 -1.000000 0.000000
vn 0.000000 -1.000000 0.000000
vn 0.000000 -1.000000 0.000001
vn 0.000000 -1.000000 -0.000000
vn 0.000000 -1.000000 0.000000
vn 0.000000 -1.000000 0.000000
vn 0.000000 -1.000000 0.000001
vn 0.000000 -1.000000 0.000000
vn 0.000000 -1.000000 0.000001
vn 0.000000 -1.000000 0.000000
vn 0.000000 -1.000000 0.000000
vn 0.000000 -1.000000 0.000001
vn 0.000000 -1.000000 0.000001
vn 0.000000 -1.000000 0.000000
vn 0.000000 -1.000000 0.000000
vn 0.000000 -1.000000 0.000000
vn 0.000000 -1.000000 0.000001
vn 0.000000 0.000000 1.000000
vn 0.000000 0.000000 1.000000
vn 0.000000 0.000000 1.000000
vn 0.000000 0.000000 1.000000
vn -0.858444 0.512908 0.000000
vn -0.858444 0.512908 0.000000
vn -0.858444 0.512908 0.000000
vn -0.858444 0.512908 0.000000
vn 0.000000 0.000000 -1.000000
vn 0.000000 0.000000 -1.000000
vn 0.000000 0.000000 -1.000000
vn 0.000000 0.000000 -1.000000
vn 0.597300 -0.802018 0.000000
vn 0.597300 -0.802018 0.000000
vn 0.597300 -0.802018 0.000000
vn 0.597300 -0.802018 0.000000
vn 0.998941 0.046020 0.000000
vn 0.998941 0.046020 0.000000
vn 0.998941 0.046020 0.000000
vn 0.998941 0.046020 0.000000
vn -1.000000 0.000000 0.000000
vn -1.000000 0.000000 0.000000
vn -1.000000 0.000000 0.000000
vn -1.000000 0.000000 0.000000
vn 0.000000 -1.000000 0.000000
vn 0.000000 -1.000000 0.000000
vn 0.000000 -1.000000 0.000000
vn 0.000000 -1.000000 0.000000
vn 0.000000 0.000000 1.000000
vn 0.000000 0.000000 1.000000
vn 0.000000 0.000000 1.000000
vn 0.000000 0.000000 -1.000000
vn 0.000000 0.000000 -1.000000
vn 0.000000 0.000000 -1.000000
vn -1.000000 -0.000000 0.000000
vn -1.000000 -0.000000 0.000000
vn -1.000000 -0.000000 0.000000
vn -1.000000 -0.000000 0.000000
vn 0.000000 0.512908 -0.858444
vn 0.000000 0.512908 -0.858444
vn 0.000000 0.512908 -0.858444
vn 0.000000 0.512908 -0.858444
vn 1.000000 0.000000 0.000000
vn 1.000000 0.000000 0.000000
vn 1.000000 0.000000 0.000000
vn 1.000000 0.000000 0.000000
vn 0.000000 -0.802017 0.597302
vn 0.000000 -0.802017 0.597302
vn 0.000000 -0.802017 0.597302
vn 0.000000 -0.802017 0.597302
vn 0.000000 0.046020 0.998941
vn 0.000000 0.046020 0.998941
vn 0.000000 0.046020 0.998941
vn 0.000000 0.046020 0.998941
vn 0.000000 0.000000 -1.000000
vn 0.000000 0.000000 -1.000000
vn 0.000000 0.000000 -1.000000
vn 0.000000 0.000000 -1.000000
vn 0.000000 -1.000000 0.000000
vn 0.000000 -1.000000 0.000000
vn 0.000000 -1.000000 0.000000
vn 0.000000 -1.000000 0.000000
vn -1.000000 0.000000 0.000000
vn -1.000000 0.000000 0.000000
vn -1.000000 0.000000 0.000000
vn 1.000000 0.000000 0.000000
vn 1.000000 0.000000 0.000000
vn 1.000000 0.000000 0.000000
vn 0.000000 0.000000 -1.000000
vn 0.000000 0.000000 -1.000000
vn 0.000000 0.000000 -1.000000
vn 0.000000 0.000000 -1.000000
vn 0.858444 0.512908 0.000000
vn 0.858444 0.512908 0.000000
vn 0.858444 0.512908 0.000000
vn 0.858444 0.512908 0.000000
vn 0.000000 0.000000 1.000000
vn 0.000000 0.000000 1.000000
vn 0.000000 0.000000 1.000000
vn 0.000000 0.000000 1.000000
vn -0.597300 -0.802018 0.000000
vn -0.597300 -0.802018 0.000000
vn -0.597300 -0.802018 0.000000
vn -0.597300 -0.802018 0.000000
vn -0.998941 0.046020 0.000000
vn -0.998941 0.046020 0.000000
vn -0.998941 0.046020 0.000000
vn -0.998941 0.046020 0.000000
vn 1.000000 0.000000 0.000000
vn 1.000000 0.000000 0.000000
vn 1.000000 0.000000 0.000000
vn 1.000000 0.000000 0.000000
vn 0.000000 -1.000000 0.000000
vn 0.000000 -1.000000 0.000000
vn 0.000000 -1.000000 0.000000
vn 0.000000 -1.000000 0.000000
vn 0.000000 0.000000 -1.000000
vn 0.000000 0.000000 -1.000000
vn 0.000000 0.000000 -1.000000
vn 0.000000 0.000000 1.000000
vn 0.000000 0.000000 1.000000
vn 0.000000 0.000000 1.000000
vn 1.000000 0.000000 0.000000
vn 1.000000 0.000000 0.000000
vn 1.000000 0.000000 0.000000
vn 1.000000 0.000000 0.000000
vn 0.000000 0.512908 0.858444
vn 0.000000 0.512908 0.858444
vn 0.000000 0.512908 0.858444
vn 0.000000 0.512908 0.858444
vn -1.000000 -0.000000 0.000000
vn -1.000000 -0.000000 0.000000
vn -1.000000 -0.000000 0.000000
vn -1.000000 -0.000000 0.000000
vn 0.000000 -0.802017 -0.597302
vn 0.000000 -0.802017 -0.597302
vn 0.000000 -0.802017 -0.597302
vn 0.000000 -0.802017 -0.597302
vn 0.000000 0.046020 -0.998941
vn 0.000000 0.046020 -0.998941
vn 0.000000 0.046020 -0.998941
vn 0.000000 0.046020 -0.998941
vn 0.000000 0.000000 1.000000
vn 0.000000 0.000000 1.000000
vn 0.000000 0.000000 1.000000
vn 0.000000 0.000000 1.000000
vn 0.000000 -1.000000 0.000000
vn 0.000000 -1.000000 0.000000
vn 0.000000 -1.000000 0.000000
vn 0.000000 -1.000000 0.000000
vn 1.000000 0.000000 0.000000
vn 1.000000 0.000000 0.000000
vn 1.000000 0.000000 0.000000
vn -1.000000 0.000000 0.000000
vn -1.000000 0.000000 0.000000
vn -1.000000 0.000000 0.000000
vn 0.707316 -0.000006 -0.706897
vn 0.707316 -0.000006 -0.706897
vn 0.707087 0.025442 -0.706669
vn 0.707087 0.025442 -0.706669
vn 1.000000 -0.000006 0.000297
vn 1.000000 -0.000006 0.000297
vn 0.999676 0.025443 0.000297
vn 0.999676 0.025443 0.000297
vn 0.706896 -0.000006 0.707317
vn 0.706896 -0.000006 0.707317
vn 0.706667 0.025442 0.707088
vn 0.706667 0.025442 0.707088
vn -0.000296 -0.000006 1.000000
vn -0.000296 -0.000006 1.000000
vn -0.000296 0.025442 0.999676
vn -0.000296 0.025442 0.999676
vn -0.707316 -0.000006 0.706897
vn -0.707316 -0.000006 0.706897
vn -0.707087 0.025443 0.706669
vn -0.707087 0.025443 0.706668
vn -1.000000 -0.000006 -0.000297
vn -1.000000 -0.000006 -0.000297
vn -0.999676 0.025443 -0.000297
vn -0.999676 0.025443 -0.000297
vn -0.706898 -0.000006 -0.707316
vn -0.706898 -0.000006 -0.707316
vn -0.706669 0.025442 -0.707087
vn -0.706669 0.025442 -0.707087
vn 0.000294 -0.000006 -1.000000
vn 0.000294 -0.000006 -1.000000
vn 0.000294 0.025442 -0.999676
vn 0.000294 0.025442 -0.999676
vn 0.000000 -1.000000 -0.000002
vn 0.000000 -1.000000 -0.000002
vn 0.000000 -1.000000 -0.000002
vn 0.000000 -1.000000 -0.000002
vn 0.000000 -1.000000 -0.000002
vn 0.000000 -1.000000 -0.000002
vn 0.000000 -1.000000 -0.000002
vn 0.000000 -1.000000 -0.000002
vn 0.000000 -1.000000 0.000000
vn 0.000000 -1.000000 0.000000
vn 0.000000 -1.000000 0.000000
vn 0.000000 -1.000000 0.000000
vn 0.000000 -1.000000 0.000001
vn 0.000000 -1.000000 0.000001
vn 0.000000 -1.000000 0.000001
vn 0.000000 -1.000000 0.000001
vn 0.000000 -1.000000 0.000002
vn 0.000000 -1.000000 0.000002
vn 0.000000 -1.000000 0.000002
vn 0.000000 -1.000000 0.000002
vn 0.000000 -1.000000 -0.000001
vn 0.000000 -1.000000 -0.000001
vn 0.000000 -1.000000 -0.000001
vn 0.000000 -1.000000 -0.000001
vn 0.000000 -1.000000 0.000000
vn 0.000000 -1.000000 0.000000
vn 0.000000 -1.000000 0.000000
vn 0.000000 -1.000000 0.000000
vn 0.000000 -1.000000 0.000001
vn 0.000000 -1.000000 0.000001
vn 0.000000 -1.000000 0.000001
vn 0.000000 -1.000000 0.000001
vn -0.000293 0.000000 1.000000
vn -0.000293 0.000000 1.000000
vn -0.000293 0.000000 1.000000
vn -0.000293 0.000000 1.000000
vn 0.706898 0.000000 0.707315
vn 0.706898 0.000000 0.707315
vn 0.706898 0.000000 0.707315
vn 0.706898 0.000000 0.707315
vn 1.000000 0.000000 0.000292
vn 1.000000 0.000000 0.000292
vn 1.000000 0.000000 0.000292
vn 1.000000 0.000000 0.000292
vn 0.707314 0.000000 -0.706899
vn 0.707314 0.000000 -0.706899
vn 0.707314 0.000000 -0.706899
vn 0.707314 0.000000 -0.706899
vn 0.000296 0.000000 -1.000000
vn 0.000296 0.000000 -1.000000
vn 0.000296 0.000000 -1.000000
vn 0.000296 0.000000 -1.000000
vn -0.706898 0.000000 -0.707316
vn -0.706898 0.000000 -0.707316
vn -0.706898 0.000000 -0.707316
vn -0.706898 0.000000 -0.707316
vn -1.000000 0.000000 -0.000292
vn -1.000000 0.000000 -0.000292
vn -1.000000 0.000000 -0.000292
vn -1.000000 0.000000 -0.000292
vn -0.707321 0.000000 0.706892
vn -0.707321 0.000000 0.706892
vn -0.707321 0.000000 0.706892
vn -0.707321 0.000000 0.706892
s off
f 1/4/1 2/5/2 81/6/3 74/9/4
f 2/5/5 3/10/6 80/16/7 81/6/8
f 3/11/9 4/12/10 79/123/11 80/124/12
f 4/12/13 5/13/14 78/122/15 79/123/16
f 5/13/17 6/14/18 77/121/19 78/122/20
f 6/14/21 7/15/22 76/120/23 77/121/24
f 7/17/25 8/21/26 75/22/27 76/23/28
f 8/21/29 1/4/30 74/9/31 75/22/32
f 17/32/33 18/33/34 19/34/35
f 18/33/36 20/36/37 19/34/38
f 20/36/39 21/37/40 19/34/41
f 21/37/42 22/38/43 19/34/44
f 22/38/45 23/44/46 19/34/47
f 23/44/48 24/126/49 19/34/50
f 24/126/51 25/127/52 19/34/53
f 25/127/54 17/32/55 19/34/56
f 9/128/57 10/129/58 18/33/59 17/32/60
f 10/129/61 11/130/62 20/36/63 18/33/64
f 11/31/65 12/30/66 21/40/67 20/39/68
f 12/30/69 13/29/70 22/41/71 21/40/72
f 13/29/73 14/28/74 23/42/75 22/41/76
f 14/28/77 15/27/78 24/43/79 23/42/80
f 15/131/81 16/132/82 25/127/83 24/126/84
f 16/132/85 9/128/86 17/32/87 25/127/88
f 2/2/89 1/1/90 26/46/91 27/45/92
f 3/3/93 2/2/94 27/45/95 28/47/96
f 4/133/97 3/10/98 28/134/99 29/116/100
f 5/115/101 4/133/102 29/116/103 30/114/104
f 6/113/105 5/115/106 30/114/107 31/112/108
f 7/17/109 6/113/110 31/112/111 32/111/112
f 8/8/113 7/7/114 32/51/115 33/52/116
f 1/1/117 8/8/118 33/52/119 26/46/120
f 91/35/121 90/143/122 92/144/123
f 93/145/124 91/35/125 92/144/126
f 94/146/127 93/145/128 92/144/129
f 95/147/130 94/146/131 92/144/132
f 96/148/133 95/147/134 92/144/135
f 97/149/136 96/148/137 92/144/138
f 98/150/139 97/149/140 92/144/141
f 92/144/142 90/143/143 98/150/144
f 34/231/145 35/240/146 37/239/147 36/188/148
f 36/187/149 37/189/150 39/190/151 38/183/152
f 38/227/153 39/237/154 41/238/155 40/235/156
f 40/234/157 41/59/158 35/54/159 34/232/160
f 35/54/161 41/59/162 39/57/163 37/55/164
f 42/61/165 43/186/166 36/56/167 38/184/168
f 40/60/169 34/233/170 43/229/171 42/185/172
f 34/53/173 36/230/174 43/62/175
f 38/58/176 40/236/177 42/228/178
f 44/220/179 45/70/180 47/226/181 46/180/182
f 46/179/183 47/181/184 49/73/185 48/175/186
f 48/74/187 49/182/188 51/75/189 50/222/190
f 50/76/191 51/224/192 45/77/193 44/78/194
f 45/225/195 51/79/196 49/80/197 47/71/198
f 52/81/199 53/178/200 46/72/201 48/176/202
f 50/84/203 44/221/204 53/218/205 52/177/206
f 44/69/207 46/219/208 53/82/209
f 48/83/210 50/223/211 52/217/212
f 54/210/213 55/86/214 57/216/215 56/172/216
f 56/171/217 57/173/218 59/89/219 58/167/220
f 58/90/221 59/174/222 61/91/223 60/212/224
f 60/92/225 61/214/226 55/93/227 54/94/228
f 55/215/229 61/95/230 59/96/231 57/87/232
f 62/97/233 63/170/234 56/88/235 58/168/236
f 60/100/237 54/211/238 63/208/239 62/169/240
f 54/85/241 56/209/242 63/98/243
f 58/99/244 60/213/245 62/207/246
f 64/195/247 65/203/248 67/206/249 66/164/250
f 66/163/251 67/165/252 69/166/253 68/159/254
f 68/191/255 69/205/256 71/201/257 70/199/258
f 70/198/259 71/202/260 65/64/261 64/196/262
f 65/204/263 71/101/264 69/67/265 67/65/266
f 72/103/267 73/162/268 66/66/269 68/160/270
f 70/102/271 64/197/272 73/193/273 72/161/274
f 64/63/275 66/194/276 73/104/277
f 68/68/278 70/200/279 72/192/280
f 75/119/281 74/117/282 9/26/283 16/25/284
f 76/120/285 75/119/286 16/25/287 15/24/288
f 77/110/289 76/23/290 15/131/291 14/109/292
f 78/108/293 77/110/294 14/109/295 13/107/296
f 79/106/297 78/108/298 13/107/299 12/105/300
f 80/16/301 79/106/302 12/105/303 11/130/304
f 81/125/305 80/124/306 11/20/307 10/19/308
f 74/118/309 81/125/310 10/19/311 9/18/312
f 27/45/313 26/46/314 82/136/315 83/135/316
f 28/47/317 27/45/318 83/135/319 84/137/320
f 29/48/321 28/47/322 84/137/323 85/138/324
f 30/49/325 29/48/326 85/138/327 86/139/328
f 31/50/329 30/49/330 86/139/331 87/140/332
f 32/51/333 31/50/334 87/140/335 88/141/336
f 33/52/337 32/51/338 88/141/339 89/142/340
f 26/46/341 33/52/342 89/142/343 82/136/344
f 83/151/345 82/152/346 90/143/347 91/35/348
f 84/153/349 83/151/350 91/35/351 93/145/352
f 85/154/353 84/153/354 93/145/355 94/146/356
f 86/155/357 85/154/358 94/146/359 95/147/360
f 87/156/361 86/155/362 95/147/363 96/148/364
f 88/157/365 87/156/366 96/148/367 97/149/368
f 89/158/369 88/157/370 97/149/371 98/150/372
f 82/152/373 89/158/374 98/150/375 90/143/376
