# This file uses centimeters as units for non-parametric coordinates.

v 1.791248 0.474406 -1.791250
v -0.000000 0.474406 -2.533208
v -1.791248 0.474406 -1.791250
v -2.533207 0.474406 -0.000000
v -1.791248 0.474406 1.791250
v -0.000000 0.474406 2.533208
v 1.791248 0.474406 1.791250
v 2.533207 0.474406 -0.000000
v 0.828946 3.138602 -0.828948
v -0.000000 3.138602 -1.172308
v -0.828946 3.138602 -0.828948
v -1.172308 3.138602 -0.000000
v -0.828946 3.138602 0.828948
v -0.000000 3.138602 1.172308
v 0.828946 3.138602 0.828948
v 1.172308 3.138602 -0.000000
v 1.498396 0.000000 -1.498396
v -0.000000 0.000000 -2.119053
v -1.498396 0.000000 -1.498396
v -2.119053 0.000000 -0.000000
v -1.498396 0.000000 1.498396
v -0.000000 0.000000 2.119053
v 1.498396 0.000000 1.498396
v 2.119053 0.000000 -0.000000
v -0.000000 0.000000 -0.000000
v 0.575773 3.138602 -0.575776
v -0.000000 3.138602 -0.814269
v -0.575773 3.138602 -0.575776
v -0.814268 3.138602 -0.000000
v -0.575773 3.138602 0.575776
v -0.000000 3.138602 0.814269
v 0.575773 3.138602 0.575776
v 0.814268 3.138602 -0.000000
v 0.377030 3.759940 -0.377028
v -0.000000 3.759940 -0.533203
v -0.000000 3.759940 -0.000000
v -0.377030 3.759940 -0.377028
v -0.533201 3.759940 -0.000000
v -0.377030 3.759940 0.377028
v -0.000000 3.759940 0.533203
v 0.377030 3.759940 0.377028
v 0.533201 3.759940 -0.000000
v 1.980775 1.461457 -0.153629
v 1.493415 1.461457 -1.330218
v 1.119232 2.458712 -0.960761
v 1.466123 2.458712 -0.123300
v 1.734539 1.712977 -0.427075
v 1.515227 1.712977 -0.956539
v 1.321963 2.161746 -0.850357
v 1.527828 2.161746 -0.353357
v 1.947366 1.494951 -0.191534
v 1.496948 1.494864 -1.279041
v 1.146180 2.421276 -0.943478
v 1.472516 2.421363 -0.155538
vt 0.388918 0.479853
vt 0.388918 0.479853
vt 0.423991 0.474242
vt 0.395933 0.477048
vt 0.355248 0.481256
vt 0.388918 0.479853
vt 0.423991 0.474242
vt 0.355248 0.481256
vt 0.355248 0.481256
vt 0.388918 0.479853
vt 0.423991 0.474242
vt 0.395933 0.477048
vt 0.355248 0.481256
vt 0.388918 0.479853
vt 0.423991 0.474242
vt 0.395933 0.477048
vt 0.355248 0.481256
vt 0.355248 0.481256
vt 0.447841 0.479853
vt 0.447841 0.479853
vt 0.447841 0.479853
vt 0.447841 0.479853
vt 0.447841 0.479853
vt 0.447841 0.479853
vt 0.447841 0.479853
vt 0.447841 0.479853
vt 0.447841 0.479853
vt 0.447841 0.479853
vt 0.447841 0.479853
vt 0.447841 0.479853
vt 0.447841 0.479853
vt 0.447841 0.479853
vt 0.447841 0.479853
vt 0.447841 0.479853
vt 0.447841 0.479853
vt 0.447841 0.479853
vt 0.447841 0.479853
vt 0.447841 0.479853
vt 0.447841 0.479853
vt 0.447841 0.479853
vt 0.447841 0.479853
vt 0.447841 0.479853
vt 0.175674 0.475643
vt 0.175674 0.475643
vt 0.175674 0.475643
vt 0.175674 0.475643
vt 0.175674 0.475643
vt 0.175674 0.475643
vt 0.175674 0.475643
vt 0.175674 0.475643
vt 0.175674 0.475643
vt 0.175674 0.475643
vt 0.175674 0.475643
vt 0.175674 0.475643
vt 0.175674 0.475643
vt 0.175674 0.475643
vt 0.175674 0.475643
vt 0.175674 0.475643
vt 0.175674 0.475643
vt 0.414171 0.477048
vt 0.414171 0.477048
vt 0.414171 0.477048
vt 0.014338 0.513524
vt 0.140601 0.478451
vt 0.140601 0.478451
vt 0.140601 0.478451
vt 0.140601 0.478451
vt 0.447841 0.479853
vt 0.355248 0.481256
vt 0.355248 0.481256
vt 0.355248 0.481256
vt 0.355248 0.481256
vt 0.355248 0.481256
vt 0.355248 0.481256
vt 0.355248 0.481256
vt 0.355248 0.481256
vt 0.355248 0.481256
vt 0.355248 0.481256
vt 0.355248 0.481256
vt 0.355248 0.481256
vt 0.355248 0.481256
vt 0.355248 0.481256
vt 0.447841 0.479853
vt 0.447841 0.479853
vt 0.355248 0.481256
vt 0.447841 0.479853
vt 0.355248 0.481256
vt 0.447841 0.479853
vt 0.355248 0.481256
vt 0.447841 0.479853
vt 0.355248 0.481256
vt 0.447841 0.479853
vt 0.355248 0.481256
vt 0.447841 0.479853
vt 0.355248 0.481256
vt 0.447841 0.479853
vt 0.355248 0.481256
vt 0.447841 0.479853
vt 0.355248 0.481256
vt 0.414171 0.477048
vt 0.014338 0.513524
vt 0.014338 0.513524
vt 0.014338 0.513524
vt 0.414171 0.477048
vt 0.414171 0.477048
vt 0.414171 0.477048
vt 0.355248 0.481256
vt 0.140601 0.478451
vt 0.414171 0.477048
vt 0.355248 0.481256
vt 0.140601 0.478451
vt 0.355248 0.481256
vt 0.140601 0.478451
vt 0.355248 0.481256
vt 0.140601 0.478451
vt 0.414171 0.477048
vt 0.414171 0.477048
vt 0.414171 0.477048
vt 0.414171 0.477048
vt 0.414171 0.477048
vt 0.414171 0.477048
vt 0.414171 0.477048
vt 0.414171 0.477048
vt 0.447841 0.479853
vt 0.447841 0.479853
vt 0.355248 0.481256
vt 0.355248 0.481256
vt 0.447841 0.479853
vt 0.447841 0.479853
vt 0.447841 0.479853
vt 0.447841 0.479853
vt 0.447841 0.479853
vt 0.447841 0.479853
vt 0.447841 0.479853
vt 0.447841 0.479853
vt 0.447841 0.479853
vt 0.447841 0.479853
vt 0.447841 0.479853
vt 0.447841 0.479853
vt 0.447841 0.479853
vt 0.355248 0.481256
vt 0.447841 0.479853
vt 0.355248 0.481256
vt 0.447841 0.479853
vt 0.355248 0.481256
vt 0.447841 0.479853
vt 0.355248 0.481256
vt 0.447841 0.479853
vt 0.355248 0.481256
vt 0.447841 0.479853
vt 0.355248 0.481256
vt 0.447841 0.479853
vt 0.355248 0.481256
vt 0.447841 0.479853
vt 0.355248 0.481256
vt 0.395933 0.477048
vt 0.395933 0.477048
vt 0.395933 0.477048
vt 0.423991 0.474242
vt 0.423991 0.474242
vt 0.388918 0.479853
vt 0.355248 0.481256
vt 0.395933 0.477048
vt 0.395933 0.477048
vt 0.423991 0.474242
vt 0.423991 0.474242
vt 0.388918 0.479853
vt 0.388918 0.479853
vt 0.355248 0.481256
vn 0.346080 0.426789 -0.835512
vn 0.346080 0.426789 -0.835512
vn 0.346080 0.426789 -0.835512
vn 0.346080 0.426789 -0.835512
vn -0.346080 0.426789 -0.835512
vn -0.346080 0.426789 -0.835512
vn -0.346080 0.426789 -0.835512
vn -0.346080 0.426789 -0.835512
vn -0.835512 0.426789 -0.346080
vn -0.835512 0.426789 -0.346080
vn -0.835512 0.426789 -0.346080
vn -0.835512 0.426789 -0.346080
vn -0.835512 0.426789 0.346080
vn -0.835512 0.426789 0.346080
vn -0.835512 0.426789 0.346080
vn -0.835512 0.426789 0.346080
vn -0.346080 0.426789 0.835512
vn -0.346080 0.426789 0.835512
vn -0.346080 0.426789 0.835512
vn -0.346080 0.426789 0.835512
vn 0.346080 0.426789 0.835512
vn 0.346080 0.426789 0.835512
vn 0.346080 0.426789 0.835512
vn 0.346080 0.426789 0.835512
vn 0.835512 0.426789 0.346080
vn 0.835512 0.426789 0.346080
vn 0.835512 0.426789 0.346080
vn 0.835512 0.426789 0.346080
vn 0.830153 0.438868 -0.343861
vn 0.830150 0.438869 -0.343866
vn 0.830148 0.438874 -0.343867
vn 0.830151 0.438873 -0.343861
vn 0.000000 1.000000 0.000000
vn 0.000000 1.000000 0.000000
vn 0.000000 1.000000 0.000000
vn 0.000000 1.000000 -0.000000
vn 0.000000 1.000000 -0.000000
vn 0.000000 1.000000 -0.000000
vn 0.000000 1.000000 -0.000001
vn 0.000000 1.000000 -0.000001
vn 0.000000 1.000000 -0.000001
vn 0.000000 1.000000 0.000002
vn 0.000000 1.000000 0.000002
vn 0.000000 1.000000 0.000002
vn 0.000000 1.000000 0.000000
vn 0.000000 1.000000 0.000000
vn 0.000000 1.000000 0.000000
vn 0.000000 1.000000 -0.000000
vn 0.000000 1.000000 -0.000000
vn 0.000000 1.000000 -0.000000
vn 0.000000 1.000000 0.000001
vn 0.000000 1.000000 0.000001
vn 0.000000 1.000000 0.000001
vn 0.000000 1.000000 -0.000002
vn 0.000000 1.000000 -0.000002
vn 0.000000 1.000000 -0.000002
vn 0.297872 -0.627797 -0.719127
vn 0.297872 -0.627797 -0.719127
vn 0.297872 -0.627797 -0.719127
vn 0.297872 -0.627797 -0.719127
vn -0.297872 -0.627797 -0.719127
vn -0.297872 -0.627797 -0.719127
vn -0.297872 -0.627797 -0.719127
vn -0.297872 -0.627797 -0.719127
vn -0.719127 -0.627796 -0.297872
vn -0.719127 -0.627796 -0.297872
vn -0.719127 -0.627796 -0.297872
vn -0.719127 -0.627796 -0.297872
vn -0.719127 -0.627796 0.297872
vn -0.719127 -0.627796 0.297872
vn -0.719127 -0.627796 0.297872
vn -0.719127 -0.627796 0.297872
vn -0.297872 -0.627797 0.719127
vn -0.297872 -0.627797 0.719127
vn -0.297872 -0.627797 0.719127
vn -0.297872 -0.627797 0.719127
vn 0.297872 -0.627797 0.719127
vn 0.297872 -0.627797 0.719127
vn 0.297872 -0.627797 0.719127
vn 0.297872 -0.627797 0.719127
vn 0.719127 -0.627796 0.297872
vn 0.719127 -0.627796 0.297872
vn 0.719127 -0.627796 0.297872
vn 0.719127 -0.627796 0.297872
vn 0.719127 -0.627796 -0.297872
vn 0.719127 -0.627796 -0.297872
vn 0.719127 -0.627796 -0.297872
vn 0.719127 -0.627796 -0.297872
vn 0.000000 -1.000000 0.000000
vn 0.000000 -1.000000 0.000000
vn 0.000000 -1.000000 0.000000
vn 0.000000 -1.000000 0.000000
vn 0.000000 -1.000000 0.000000
vn 0.000000 -1.000000 0.000000
vn 0.000000 -1.000000 0.000000
vn 0.000000 -1.000000 0.000000
vn 0.000000 -1.000000 0.000000
vn 0.000000 -1.000000 0.000000
vn 0.000000 -1.000000 0.000000
vn 0.000000 -1.000000 0.000000
vn 0.000000 -1.000000 0.000000
vn 0.000000 -1.000000 0.000000
vn 0.000000 -1.000000 0.000000
vn 0.000000 -1.000000 0.000000
vn 0.000000 -1.000000 0.000000
vn 0.000000 -1.000000 0.000000
vn 0.000000 -1.000000 0.000000
vn 0.000000 -1.000000 0.000000
vn 0.000000 -1.000000 0.000000
vn 0.000000 -1.000000 0.000000
vn 0.000000 -1.000000 0.000000
vn 0.000000 -1.000000 0.000000
vn 0.000000 1.000000 0.000000
vn 0.000000 1.000000 0.000000
vn 0.000000 1.000000 0.000000
vn 0.000000 1.000000 0.000000
vn 0.000000 1.000000 0.000000
vn 0.000000 1.000000 0.000000
vn 0.000000 1.000000 0.000000
vn 0.000000 1.000000 0.000000
vn 0.000000 1.000000 -0.000000
vn 0.000000 1.000000 -0.000000
vn 0.000000 1.000000 -0.000000
vn 0.000000 1.000000 -0.000000
vn 0.000000 1.000000 0.000000
vn 0.000000 1.000000 0.000000
vn 0.000000 1.000000 0.000000
vn 0.000000 1.000000 0.000000
vn 0.000000 1.000000 0.000000
vn 0.000000 1.000000 0.000000
vn 0.000000 1.000000 0.000000
vn 0.000000 1.000000 0.000000
vn 0.000000 1.000000 -0.000000
vn 0.000000 1.000000 -0.000000
vn 0.000000 1.000000 -0.000000
vn 0.000000 1.000000 -0.000000
vn 0.000000 1.000000 0.000000
vn 0.000000 1.000000 0.000000
vn 0.000000 1.000000 0.000000
vn 0.000000 1.000000 0.000000
vn 0.000000 1.000000 -0.000000
vn 0.000000 1.000000 -0.000000
vn 0.000000 1.000000 -0.000000
vn 0.000000 1.000000 -0.000000
vn 0.353092 0.385604 -0.852429
vn 0.353092 0.385604 -0.852429
vn 0.353092 0.385604 -0.852429
vn 0.353092 0.385604 -0.852429
vn -0.353092 0.385604 -0.852429
vn -0.353092 0.385604 -0.852429
vn -0.353092 0.385604 -0.852429
vn -0.353092 0.385604 -0.852429
vn -0.852430 0.385603 -0.353090
vn -0.852430 0.385603 -0.353090
vn -0.852430 0.385603 -0.353090
vn -0.852430 0.385603 -0.353090
vn -0.852430 0.385603 0.353090
vn -0.852430 0.385603 0.353090
vn -0.852430 0.385603 0.353090
vn -0.852430 0.385603 0.353090
vn -0.353092 0.385604 0.852429
vn -0.353092 0.385604 0.852429
vn -0.353092 0.385604 0.852429
vn -0.353092 0.385604 0.852429
vn 0.353092 0.385604 0.852429
vn 0.353092 0.385604 0.852429
vn 0.353092 0.385604 0.852429
vn 0.353092 0.385604 0.852429
vn 0.852430 0.385603 0.353090
vn 0.852430 0.385603 0.353090
vn 0.852430 0.385603 0.353090
vn 0.852430 0.385603 0.353090
vn 0.852430 0.385603 -0.353090
vn 0.852430 0.385603 -0.353090
vn 0.852430 0.385603 -0.353090
vn 0.852430 0.385603 -0.353090
vn 0.840257 0.416426 -0.347213
vn 0.839803 0.416291 -0.348472
vn 0.834677 0.420452 -0.355717
vn 0.841406 0.420663 -0.339231
vn 0.839803 0.416291 -0.348472
vn 0.835675 0.424850 -0.348065
vn 0.826269 0.430227 -0.363571
vn 0.834677 0.420452 -0.355717
vn 0.835675 0.424850 -0.348065
vn 0.837058 0.424937 -0.344620
vn 0.840791 0.430080 -0.328790
vn 0.826269 0.430227 -0.363571
vn 0.837058 0.424937 -0.344620
vn 0.840257 0.416426 -0.347213
vn 0.841406 0.420663 -0.339231
vn 0.840791 0.430080 -0.328790
vn 0.830146 0.438884 -0.343858
vn 0.830150 0.438883 -0.343850
vn 0.830150 0.438869 -0.343866
vn 0.830153 0.438868 -0.343861
vn 0.830150 0.438883 -0.343850
vn 0.830154 0.438874 -0.343853
vn 0.830148 0.438874 -0.343867
vn 0.830150 0.438869 -0.343866
vn 0.830154 0.438874 -0.343853
vn 0.830149 0.438875 -0.343862
vn 0.830151 0.438873 -0.343861
vn 0.830148 0.438874 -0.343867
vn 0.830149 0.438875 -0.343862
vn 0.830146 0.438884 -0.343858
vn 0.830153 0.438868 -0.343861
vn 0.830151 0.438873 -0.343861
vn 0.841406 0.420663 -0.339231
vn 0.834677 0.420452 -0.355717
vn 0.830150 0.438883 -0.343850
vn 0.830146 0.438884 -0.343858
vn 0.834677 0.420452 -0.355717
vn 0.826269 0.430227 -0.363571
vn 0.830154 0.438874 -0.343853
vn 0.830150 0.438883 -0.343850
vn 0.826269 0.430227 -0.363571
vn 0.840791 0.430080 -0.328790
vn 0.830149 0.438875 -0.343862
vn 0.830154 0.438874 -0.343853
vn 0.840791 0.430080 -0.328790
vn 0.841406 0.420663 -0.339231
vn 0.830146 0.438884 -0.343858
vn 0.830149 0.438875 -0.343862
s off
f 1/1/1 2/2/2 10/167/3 9/10/4
f 2/166/5 3/3/6 11/165/7 10/11/8
f 3/164/9 4/4/10 12/163/11 11/12/12
f 4/162/13 5/5/14 13/169/15 12/13/16
f 5/168/17 6/6/18 14/161/19 13/14/20
f 6/160/21 7/7/22 15/159/23 14/15/24
f 7/158/25 8/156/26 16/157/27 15/16/28
f 47/63/29 48/103/30 49/102/31 50/101/32
f 34/83/33 35/138/34 36/21/35
f 35/139/36 37/136/37 36/24/38
f 37/137/39 38/134/40 36/27/41
f 38/135/42 39/132/43 36/30/44
f 39/133/45 40/130/46 36/33/47
f 40/131/48 41/128/49 36/36/50
f 41/129/51 42/124/52 36/39/53
f 42/125/54 34/68/55 36/42/56
f 2/43/57 1/44/58 17/45/59 18/46/60
f 3/47/61 2/43/62 18/46/63 19/48/64
f 4/49/65 3/47/66 19/48/67 20/50/68
f 5/51/69 4/49/70 20/50/71 21/52/72
f 6/53/73 5/51/74 21/52/75 22/54/76
f 7/55/77 6/53/78 22/54/79 23/56/80
f 8/57/81 7/55/82 23/56/83 24/58/84
f 1/44/85 8/57/86 24/58/87 17/45/88
f 18/46/89 17/45/90 25/59/91
f 19/48/92 18/46/93 25/59/94
f 20/50/95 19/48/96 25/59/97
f 21/52/98 20/50/99 25/59/100
f 22/54/101 21/52/102 25/59/103
f 23/56/104 22/54/105 25/59/106
f 24/58/107 23/56/108 25/59/109
f 17/45/110 24/58/111 25/59/112
f 9/19/113 10/20/114 27/98/115 26/142/116
f 10/22/117 11/23/118 28/96/119 27/154/120
f 11/25/121 12/26/122 29/94/123 28/152/124
f 12/28/125 13/29/126 30/92/127 29/150/128
f 13/31/129 14/32/130 31/90/131 30/148/132
f 14/34/133 15/35/134 32/88/135 31/146/136
f 15/37/137 16/38/138 33/86/139 32/144/140
f 16/40/141 9/41/142 26/84/143 33/140/144
f 26/99/145 27/155/146 35/82/147 34/126/148
f 27/97/149 28/153/150 37/80/151 35/81/152
f 28/95/153 29/151/154 38/78/155 37/79/156
f 29/93/157 30/149/158 39/76/159 38/77/160
f 30/91/161 31/147/162 40/74/163 39/75/164
f 31/89/165 32/145/166 41/72/167 40/73/168
f 32/87/169 33/141/170 42/70/171 41/71/172
f 33/85/173 26/143/174 34/127/175 42/69/176
f 8/8/177 1/9/178 44/112/179 43/114/180
f 1/9/181 9/18/182 45/110/183 44/112/184
f 9/18/185 16/17/186 46/107/187 45/110/188
f 16/17/189 8/8/190 43/114/191 46/107/192
f 51/116/193 52/117/194 48/109/195 47/100/196
f 52/118/197 53/119/198 49/106/199 48/62/200
f 53/120/201 54/121/202 50/105/203 49/61/204
f 54/122/205 51/123/206 47/104/207 50/60/208
f 43/64/209 44/65/210 52/66/211 51/67/212
f 44/65/213 45/108/214 53/111/215 52/66/216
f 45/108/217 46/113/218 54/115/219 53/111/220
f 46/113/221 43/64/222 51/67/223 54/115/224
