# This file uses centimeters as units for non-parametric coordinates.

v -0.886799 0.528453 3.061197
v 0.886799 0.528453 3.061197
v -0.886799 1.334856 3.061197
v 0.886799 1.334856 3.061197
v -0.886799 1.334856 -3.061197
v 0.886799 1.334856 -3.061197
v -0.886799 0.528453 -3.061197
v 0.886799 0.528453 -3.061197
v -0.861414 1.334856 2.273750
v 0.861416 1.334856 2.273750
v 0.861416 1.334856 -2.273750
v -0.861414 1.334856 -2.273750
v -0.861414 0.246372 2.273750
v 0.861416 0.246372 2.273750
v 0.861416 0.246372 -2.273750
v -0.861414 0.246372 -2.273750
v -1.348665 1.156035 -1.765514
v -2.049131 0.906716 -1.765514
v -2.049131 0.000000 -1.765514
v 2.049131 0.000000 -1.765514
v 2.049131 0.906716 -1.765514
v 1.348666 1.156035 -1.765514
v 1.348666 0.246372 -1.765514
v -1.348665 0.246372 -1.765514
v -1.348665 1.156035 1.765514
v -2.049131 0.906716 1.765514
v -2.049131 0.000000 1.765514
v 2.049131 0.000000 1.765514
v 2.049131 0.906716 1.765514
v 1.348666 1.156035 1.765514
v 1.348666 0.246372 1.765514
v -1.348665 0.246372 1.765514
v -1.348665 1.156035 -1.556778
v -2.049131 0.906716 -1.556778
v -2.049131 0.000000 -1.556778
v 2.049131 0.000000 -1.556778
v 2.049131 0.906716 -1.556778
v 1.348666 1.156035 -1.556778
v 1.348666 0.246372 -1.556778
v -1.348665 0.246372 -1.556778
v -1.348665 1.156035 1.556778
v -2.049131 0.906716 1.556778
v -2.049131 0.000000 1.556778
v 2.049131 0.000000 1.556778
v 2.049131 0.906716 1.556778
v 1.348666 1.156035 1.556778
v 1.348666 0.246372 1.556778
v -1.348665 0.246372 1.556778
vt 0.355797 0.221367
vt 0.355797 0.221367
vt 0.355797 0.221367
vt 0.386540 0.221367
vt 0.386540 0.221367
vt 0.386540 0.221367
vt 0.332471 0.221096
vt 0.332471 0.221096
vt 0.332471 0.221096
vt 0.396405 0.221096
vt 0.355797 0.221367
vt 0.355797 0.221367
vt 0.355797 0.221367
vt 0.355797 0.221367
vt 0.386540 0.221367
vt 0.354135 0.221367
vt 0.386540 0.221367
vt 0.354135 0.221367
vt 0.354135 0.221367
vt 0.354135 0.221367
vt 0.354135 0.221367
vt 0.354135 0.221367
vt 0.386540 0.221367
vt 0.355797 0.221367
vt 0.386540 0.221367
vt 0.355797 0.221367
vt 0.297575 0.221096
vt 0.300067 0.221096
vt 0.355797 0.221367
vt 0.386540 0.221367
vt 0.355797 0.221367
vt 0.354135 0.221367
vt 0.354135 0.221367
vt 0.354135 0.221367
vt 0.354135 0.221367
vt 0.355797 0.221367
vt 0.386540 0.221367
vt 0.355797 0.221367
vt 0.297575 0.221096
vt 0.297575 0.221096
vt 0.355797 0.221367
vt 0.386540 0.221367
vt 0.355797 0.221367
vt 0.386540 0.221367
vt 0.354135 0.221367
vt 0.354135 0.221367
vt 0.386540 0.221367
vt 0.355797 0.221367
vt 0.386540 0.221367
vt 0.355797 0.221367
vt 0.332471 0.221096
vt 0.396405 0.221096
vt 0.355797 0.221367
vt 0.386540 0.221367
vt 0.355797 0.221367
vt 0.354135 0.221367
vt 0.354135 0.221367
vt 0.354135 0.221367
vt 0.386540 0.221367
vt 0.355797 0.221367
vt 0.386540 0.221367
vt 0.355797 0.221367
vt 0.332471 0.221096
vt 0.332471 0.221096
vt 0.355797 0.221367
vt 0.386540 0.221367
vt 0.355797 0.221367
vt 0.354135 0.221367
vt 0.354135 0.221367
vt 0.354135 0.221367
vt 0.199250 0.062570
vt 0.332471 0.221096
vt 0.396405 0.221096
vt 0.300067 0.221096
vt 0.300067 0.221096
vt 0.396405 0.221096
vt 0.297575 0.221096
vt 0.300067 0.221096
vt 0.168508 0.062570
vt 0.199250 0.062570
vt 0.166846 0.062570
vt 0.168508 0.062570
vt 0.199250 0.062570
vt 0.199250 0.062570
vt 0.168508 0.062570
vt 0.199250 0.062570
vt 0.168508 0.062570
vt 0.166846 0.062570
vt 0.199250 0.062570
vt 0.296494 0.220024
vt 0.166846 0.062570
vt 0.296494 0.220024
vt 0.166846 0.062570
vt 0.168508 0.062570
vt 0.168508 0.062570
vt 0.199250 0.062570
vt 0.199250 0.062570
vt 0.168508 0.062570
vt 0.199250 0.062570
vt 0.199250 0.062570
vt 0.168508 0.062570
vt 0.199250 0.062570
vt 0.199250 0.062570
vt 0.166846 0.062570
vt 0.166846 0.062570
vt 0.296494 0.220024
vt 0.296494 0.220024
vt 0.166846 0.062570
vt 0.166846 0.062570
vt 0.332471 0.221096
vt 0.332471 0.221096
vt 0.332471 0.221096
vt 0.297575 0.221096
vt 0.297575 0.221096
vt 0.332471 0.221096
vt 0.332471 0.221096
vt 0.297575 0.221096
vt 0.297575 0.221096
vt 0.332471 0.221096
vt 0.332471 0.221096
vt 0.297575 0.221096
vt 0.297575 0.221096
vt 0.386540 0.221367
vt 0.396405 0.221096
vt 0.355797 0.221367
vt 0.332471 0.221096
vt 0.332471 0.221096
vt 0.396405 0.221096
vt 0.396405 0.221096
vt 0.300067 0.221096
vt 0.396405 0.221096
vt 0.300067 0.221096
vt 0.296494 0.220024
vt 0.166846 0.062570
vt 0.166846 0.062570
vt 0.296494 0.220024
vt 0.296494 0.220024
vt 0.166846 0.062570
vt 0.166846 0.062570
vt 0.296494 0.220024
vt 0.386540 0.221367
vt 0.354135 0.221367
vt 0.300067 0.221096
vt 0.297575 0.221096
vt 0.297575 0.221096
vt 0.300067 0.221096
vt 0.199250 0.062570
vt 0.354135 0.221367
vt 0.386540 0.221367
vt 0.166846 0.062570
vt 0.199250 0.062570
vt 0.386540 0.221367
vt 0.166846 0.062570
vt 0.354135 0.221367
vt 0.386540 0.221367
vt 0.199250 0.062570
vt 0.354135 0.221367
vt 0.166846 0.062570
vt 0.386540 0.221367
vt 0.166846 0.062570
vt 0.199250 0.062570
vt 0.354135 0.221367
vt 0.386540 0.221367
vt 0.354135 0.221367
vt 0.168508 0.062570
vt 0.199250 0.062570
vt 0.168508 0.062570
vt 0.199250 0.062570
vt 0.168508 0.062570
vt 0.199250 0.062570
vt 0.168508 0.062570
vt 0.199250 0.062570
vt 0.199250 0.062570
vt 0.168508 0.062570
vt 0.168508 0.062570
vt 0.199250 0.062570
vt 0.168508 0.062570
vt 0.199250 0.062570
vt 0.168508 0.062570
vt 0.199250 0.062570
vt 0.332471 0.221096
vt 0.332471 0.221096
vt 0.332471 0.221096
vt 0.332471 0.221096
vn 0.000000 0.000000 1.000000
vn 0.000000 0.000000 1.000000
vn 0.000000 0.000000 1.000000
vn 0.000000 0.000000 1.000000
vn 0.000000 1.000000 0.000000
vn 0.000000 1.000000 0.000000
vn 0.000000 1.000000 0.000000
vn 0.000000 1.000000 0.000000
vn 0.000000 0.000000 -1.000000
vn 0.000000 0.000000 -1.000000
vn 0.000000 0.000000 -1.000000
vn 0.000000 0.000000 -1.000000
vn 0.000000 -0.925947 0.377654
vn 0.000000 -0.960221 0.279241
vn 0.000000 -0.960221 0.279241
vn 0.000000 -0.925947 0.377654
vn 0.744374 0.000000 0.667763
vn 0.803291 0.000000 0.595587
vn 0.787913 0.000000 0.615786
vn 0.744374 0.000000 0.667763
vn -0.803291 0.000000 0.595587
vn -0.744374 0.000000 0.667763
vn -0.744374 0.000000 0.667763
vn -0.787913 0.000000 0.615786
vn 0.000000 1.000000 0.000000
vn 0.000000 1.000000 0.000000
vn 0.000000 1.000000 0.000000
vn 0.000000 1.000000 0.000000
vn 0.335085 0.942128 -0.010580
vn 0.335162 0.942132 -0.007368
vn 0.335119 0.942131 -0.009209
vn 0.335085 0.942128 -0.010580
vn 0.000000 1.000000 0.000000
vn 0.000000 1.000000 0.000000
vn 0.000000 1.000000 0.000000
vn 0.000000 1.000000 0.000000
vn -0.335161 0.942132 -0.007368
vn -0.335085 0.942129 -0.010580
vn -0.335085 0.942129 -0.010580
vn -0.335118 0.942131 -0.009210
vn 0.000000 0.000000 -1.000000
vn 0.000000 0.000000 -1.000000
vn 0.000000 0.000000 -1.000000
vn 0.000000 0.000000 -1.000000
vn -0.721853 0.000000 -0.692047
vn -0.809711 0.000000 -0.586829
vn -0.820088 0.000000 -0.572237
vn -0.721853 0.000000 -0.692047
vn 0.000000 0.000000 1.000000
vn 0.000000 0.000000 1.000000
vn 0.000000 0.000000 1.000000
vn 0.000000 0.000000 1.000000
vn 0.820088 0.000000 -0.572237
vn 0.809711 0.000000 -0.586829
vn 0.721852 0.000000 -0.692047
vn 0.721852 0.000000 -0.692047
vn -0.335085 0.942129 0.010580
vn -0.335161 0.942132 0.007368
vn -0.335118 0.942131 0.009210
vn -0.335085 0.942129 0.010580
vn -0.744374 0.000000 -0.667763
vn -0.803291 0.000000 -0.595587
vn -0.787913 0.000000 -0.615787
vn -0.744374 0.000000 -0.667764
vn 0.000000 -0.960221 -0.279241
vn 0.000000 -0.925947 -0.377654
vn 0.000000 -0.925947 -0.377654
vn 0.000000 -0.960221 -0.279241
vn 0.787913 0.000000 -0.615786
vn 0.803291 0.000000 -0.595587
vn 0.744374 0.000000 -0.667763
vn 0.744374 0.000000 -0.667763
vn 0.335119 0.942131 0.009209
vn 0.335162 0.942132 0.007368
vn 0.335085 0.942128 0.010580
vn 0.335085 0.942128 0.010580
vn -0.820088 0.000000 0.572237
vn -0.809711 0.000000 0.586829
vn -0.721853 0.000000 0.692047
vn -0.721853 0.000000 0.692047
vn 0.000000 1.000000 0.000000
vn 0.000000 1.000000 0.000000
vn 0.000000 1.000000 0.000000
vn 0.000000 1.000000 0.000000
vn 0.721852 0.000000 0.692047
vn 0.809711 0.000000 0.586829
vn 0.820088 0.000000 0.572237
vn 0.721852 0.000000 0.692047
vn -0.335325 0.942103 0.000000
vn -0.335161 0.942132 -0.007368
vn -0.335118 0.942131 -0.009210
vn -0.335325 0.942103 0.000000
vn -1.000000 0.000000 0.000000
vn -0.803291 0.000000 0.595587
vn -0.787913 0.000000 0.615786
vn -1.000000 0.000000 0.000000
vn 0.000000 -0.960221 0.279241
vn 0.000000 -1.000000 0.000000
vn 0.000000 -1.000000 0.000000
vn 0.000000 -0.960221 0.279241
vn 0.787913 0.000000 0.615786
vn 0.803291 0.000000 0.595587
vn 1.000000 0.000000 0.000000
vn 1.000000 0.000000 0.000000
vn 0.335119 0.942131 -0.009209
vn 0.335162 0.942132 -0.007368
vn 0.335325 0.942102 0.000000
vn 0.335325 0.942102 0.000000
vn -0.820088 0.000000 -0.572237
vn -0.809711 0.000000 -0.586829
vn -1.000000 0.000000 0.000000
vn -1.000000 0.000000 0.000000
vn 0.000000 1.000000 0.000000
vn 0.000000 1.000000 0.000000
vn 0.000000 1.000000 0.000000
vn 0.000000 1.000000 0.000000
vn 1.000000 0.000000 0.000000
vn 1.000000 0.000000 0.000000
vn 0.809711 0.000000 -0.586829
vn 0.820088 0.000000 -0.572237
vn -0.335161 0.942132 0.007368
vn -0.335325 0.942103 0.000000
vn -0.335325 0.942103 0.000000
vn -0.335118 0.942131 0.009210
vn -0.803291 0.000000 -0.595587
vn -1.000000 0.000000 0.000000
vn -1.000000 0.000000 0.000000
vn -0.787913 0.000000 -0.615787
vn 0.000000 -1.000000 0.000000
vn 0.000000 -0.960221 -0.279241
vn 0.000000 -0.960221 -0.279241
vn 0.000000 -1.000000 0.000000
vn 1.000000 0.000000 0.000000
vn 1.000000 0.000000 0.000000
vn 0.803291 0.000000 -0.595587
vn 0.787913 0.000000 -0.615786
vn 0.335325 0.942102 0.000000
vn 0.335325 0.942102 0.000000
vn 0.335162 0.942132 0.007368
vn 0.335119 0.942131 0.009209
vn -1.000000 0.000000 0.000000
vn -1.000000 0.000000 0.000000
vn -0.809711 0.000000 0.586829
vn -0.820088 0.000000 0.572237
vn 0.000000 1.000000 0.000000
vn 0.000000 1.000000 0.000000
vn 0.000000 1.000000 0.000000
vn 0.000000 1.000000 0.000000
vn 0.820088 0.000000 0.572237
vn 0.809711 0.000000 0.586829
vn 1.000000 0.000000 0.000000
vn 1.000000 0.000000 0.000000
vn -0.335325 0.942103 0.000000
vn -0.335325 0.942103 0.000000
vn -0.335325 0.942103 0.000000
vn -0.335325 0.942103 0.000000
vn -1.000000 0.000000 0.000000
vn -1.000000 0.000000 0.000000
vn -1.000000 0.000000 0.000000
vn -1.000000 0.000000 0.000000
vn 0.000000 -1.000000 0.000000
vn 0.000000 -1.000000 0.000000
vn 0.000000 -1.000000 0.000000
vn 0.000000 -1.000000 0.000000
vn 1.000000 0.000000 0.000000
vn 1.000000 0.000000 0.000000
vn 1.000000 0.000000 0.000000
vn 1.000000 0.000000 0.000000
vn 0.335325 0.942102 0.000000
vn 0.335325 0.942102 0.000000
vn 0.335325 0.942102 0.000000
vn 0.335325 0.942102 0.000000
vn -1.000000 0.000000 0.000000
vn -1.000000 0.000000 0.000000
vn -1.000000 0.000000 0.000000
vn -1.000000 0.000000 0.000000
vn 0.000000 1.000000 0.000000
vn 0.000000 1.000000 0.000000
vn 0.000000 1.000000 0.000000
vn 0.000000 1.000000 0.000000
vn 1.000000 0.000000 0.000000
vn 1.000000 0.000000 0.000000
vn 1.000000 0.000000 0.000000
vn 1.000000 0.000000 0.000000
s off
f 3/7/1 1/181/2 2/9/3 4/126/4
f 32/27/5 13/145/6 14/39/7 31/40/8
f 7/51/9 5/127/10 6/63/11 8/184/12
f 1/8/13 27/119/14 28/72/15 2/182/16
f 2/2/17 28/41/18 29/43/19 4/125/20
f 27/38/21 1/1/22 3/3/23 26/36/24
f 10/73/25 9/131/26 3/124/27 4/10/28
f 4/4/29 29/42/30 30/44/31 10/163/32
f 5/52/33 12/129/34 11/76/35 6/128/36
f 26/37/37 3/123/38 9/15/39 25/159/40
f 13/28/41 9/74/42 10/132/43 14/146/44
f 10/16/45 30/162/46 31/45/47 14/20/48
f 12/75/49 16/143/50 15/78/51 11/130/52
f 32/46/53 25/35/54 9/164/55 13/19/56
f 5/5/57 18/25/58 17/23/59 12/141/60
f 7/13/61 19/26/62 18/24/63 5/14/64
f 19/111/65 7/183/66 8/64/67 20/110/68
f 21/31/69 20/29/70 8/11/71 6/12/72
f 22/155/73 21/30/74 6/6/75 11/17/76
f 23/33/77 22/32/78 11/142/79 15/21/80
f 16/77/81 24/113/82 23/114/83 15/144/84
f 12/18/85 17/157/86 24/34/87 16/22/88
f 42/71/89 26/178/90 25/80/91 41/147/92
f 43/82/93 27/171/94 26/79/95 42/169/96
f 27/83/97 43/170/98 44/84/99 28/168/100
f 29/177/101 28/85/102 44/165/103 45/87/104
f 30/161/105 29/86/106 45/166/107 46/89/108
f 31/139/109 30/88/110 46/150/111 47/91/112
f 48/92/113 32/140/114 31/90/115 47/133/116
f 48/134/117 41/81/118 25/160/119 32/93/120
f 18/176/121 34/172/122 33/96/123 17/97/124
f 19/98/125 35/175/126 34/95/127 18/94/128
f 35/99/129 19/180/130 20/100/131 36/173/132
f 37/167/133 36/101/134 20/179/135 21/174/136
f 38/151/137 37/102/138 21/103/139 22/156/140
f 39/135/141 38/104/142 22/105/143 23/138/144
f 24/137/145 40/136/146 39/106/147 23/107/148
f 24/108/149 17/158/150 33/153/151 40/109/152
f 34/49/153 42/61/154 41/59/155 33/47/156
f 35/50/157 43/62/158 42/60/159 34/48/160
f 43/115/161 35/112/162 36/120/163 44/116/164
f 45/67/165 44/65/166 36/53/167 37/55/168
f 46/149/169 45/66/170 37/54/171 38/152/172
f 47/69/173 46/68/174 38/56/175 39/57/176
f 40/121/177 48/117/178 47/118/179 39/122/180
f 40/58/181 33/154/182 41/148/183 48/70/184
