# This file uses centimeters as units for non-parametric coordinates.

v 0.003799 0.572137 -0.353922
v 0.308363 0.572180 -0.173648
v 0.304502 0.572186 0.180255
v -0.003901 0.572180 0.353862
v -0.308466 0.572137 0.173589
v -0.304605 0.572125 -0.180315
v 0.002846 0.000021 -0.261938
v 0.228267 0.000049 -0.128502
v 0.225413 0.000064 0.133440
v -0.002851 0.000049 0.261935
v -0.228266 0.000021 0.128502
v -0.225420 0.000000 -0.133427
v 0.199658 0.265762 0.118187
v 0.202196 0.265750 -0.115431
v 0.001144 0.265726 -0.234445
v -0.202448 0.265710 -0.119844
v -0.204991 0.265720 0.113786
v -0.003937 0.265750 0.232794
v 0.002255 0.000021 -0.207166
v 0.180527 0.000049 -0.101624
v -0.000002 0.000034 0.000008
v 0.178276 0.000064 0.105536
v -0.002255 0.000049 0.207158
v -0.180534 0.000021 0.101627
v -0.178281 0.000009 -0.105524
v -0.003400 0.119452 0.248184
v 0.213237 0.119458 0.126225
v 0.215942 0.119452 -0.122366
v 0.002007 0.119437 -0.249004
v -0.214638 0.119428 -0.127049
v -0.217343 0.119437 0.121541
v -0.003099 0.079913 0.252527
v 0.217145 0.079919 0.128543
v 0.219894 0.079913 -0.124185
v 0.002400 0.079892 -0.252939
v -0.217847 0.079886 -0.128949
v -0.220601 0.079892 0.123778
v 0.164418 0.360248 -0.093396
v 0.162363 0.360254 0.096111
v -0.002785 0.360248 0.189076
v -0.165875 0.360220 0.092540
v -0.163809 0.360220 -0.096970
v 0.001340 0.360226 -0.189931
v 0.003799 0.813098 -0.353922
v 0.308363 0.813135 -0.173648
v 0.304502 0.813147 0.180255
v -0.003901 0.813135 0.353862
v -0.308466 0.813098 0.173589
v -0.304605 0.813083 -0.180315
v 0.306964 0.597339 -0.045468
v 0.305902 0.597339 0.052075
v 0.306964 0.787982 -0.045468
v 0.305902 0.787988 0.052075
v -0.307066 0.597290 0.045409
v -0.306005 0.597284 -0.052135
v -0.307066 0.787940 0.045409
v -0.306005 0.787933 -0.052135
v 0.448700 0.617142 -0.015894
v 0.448248 0.617145 0.025595
v 0.448700 0.768179 -0.015894
v 0.448248 0.768185 0.025595
v -0.448802 0.617096 0.015833
v -0.448351 0.617087 -0.025656
v -0.448802 0.768137 0.015833
v -0.448351 0.768131 -0.025656
v 0.006433 0.907637 -0.595968
v 0.519305 0.907699 -0.292395
v 0.512804 0.907719 0.303562
v -0.006536 0.907699 0.595908
v -0.519407 0.907637 0.292336
v -0.512906 0.907611 -0.303621
v 0.006433 1.016677 -0.595968
v 0.519305 1.016738 -0.292395
v 0.512804 1.016759 0.303562
v -0.006536 1.016738 0.595908
v -0.519407 1.016677 0.292336
v -0.512906 1.016651 -0.303621
vt 0.331552 0.474689
vt 0.331552 0.474689
vt 0.237701 0.478468
vt 0.237701 0.478468
vt 0.296947 0.474689
vt 0.296947 0.474689
vt 0.236805 0.482052
vt 0.236805 0.482052
vt 0.331552 0.474689
vt 0.296947 0.474689
vt 0.236805 0.482052
vt 0.236805 0.482052
vt 0.331552 0.474689
vt 0.296947 0.474689
vt 0.236806 0.482052
vt 0.236805 0.482052
vt 0.331552 0.474689
vt 0.296947 0.474689
vt 0.236806 0.482052
vt 0.236806 0.482052
vt 0.331552 0.474689
vt 0.296947 0.474689
vt 0.236261 0.475082
vt 0.236261 0.475082
vt 0.048633 0.473987
vt 0.048633 0.473987
vt 0.048633 0.473987
vt 0.048633 0.473987
vt 0.048633 0.473987
vt 0.048633 0.473987
vt 0.048633 0.473987
vt 0.048633 0.473987
vt 0.048633 0.473987
vt 0.048633 0.473987
vt 0.048633 0.473987
vt 0.048633 0.473987
vt 0.048633 0.473987
vt 0.048633 0.473987
vt 0.048633 0.473987
vt 0.048633 0.473987
vt 0.048633 0.473987
vt 0.048633 0.473987
vt 0.205443 0.475779
vt 0.205443 0.475779
vt 0.205443 0.475779
vt 0.205443 0.475779
vt 0.205338 0.477055
vt 0.205339 0.477055
vt 0.205339 0.477055
vt 0.205338 0.477055
vt 0.205338 0.477055
vt 0.205338 0.477055
vt 0.205338 0.477055
vt 0.205338 0.477055
vt 0.205443 0.475779
vt 0.205443 0.475779
vt 0.205443 0.475779
vt 0.205443 0.475779
vt 0.205443 0.475779
vt 0.205443 0.475779
vt 0.205443 0.475779
vt 0.205443 0.475779
vt 0.205443 0.475779
vt 0.205443 0.475779
vt 0.205443 0.475779
vt 0.205443 0.475779
vt 0.147200 0.477572
vt 0.147200 0.477572
vt 0.147200 0.477572
vt 0.147200 0.477572
vt 0.147200 0.477572
vt 0.147200 0.477572
vt 0.147200 0.477572
vt 0.147200 0.477572
vt 0.147200 0.477572
vt 0.147200 0.477572
vt 0.147200 0.477572
vt 0.147200 0.477572
vt 0.147200 0.477572
vt 0.147200 0.477572
vt 0.147200 0.477572
vt 0.147200 0.477572
vt 0.147200 0.477572
vt 0.147200 0.477572
vt 0.147200 0.477572
vt 0.147200 0.477572
vt 0.147200 0.477572
vt 0.147200 0.477572
vt 0.147200 0.477572
vt 0.147200 0.477572
vt 0.141521 0.486267
vt 0.141521 0.486267
vt 0.141521 0.486267
vt 0.141521 0.486267
vt 0.141521 0.486267
vt 0.141521 0.486267
vt 0.141521 0.486267
vt 0.141521 0.486267
vt 0.141521 0.486267
vt 0.141521 0.486267
vt 0.141521 0.486267
vt 0.141521 0.486267
vt 0.141521 0.486267
vt 0.141521 0.486267
vt 0.141521 0.486267
vt 0.141521 0.486267
vt 0.141521 0.486267
vt 0.141521 0.486267
vt 0.141521 0.486267
vt 0.141521 0.486267
vt 0.141521 0.486267
vt 0.141521 0.486267
vt 0.141521 0.486267
vt 0.141521 0.486267
vt 0.205443 0.475779
vt 0.205443 0.475779
vt 0.205443 0.475779
vt 0.205443 0.475779
vt 0.205443 0.475779
vt 0.205443 0.475779
vt 0.205443 0.475779
vt 0.205443 0.475779
vt 0.205338 0.477055
vt 0.205339 0.477055
vt 0.205339 0.477055
vt 0.205338 0.477055
vt 0.205338 0.477055
vt 0.205338 0.477055
vt 0.205338 0.477055
vt 0.205338 0.477055
vt 0.205443 0.475779
vt 0.205443 0.475779
vt 0.205443 0.475779
vt 0.205443 0.475779
vt 0.205443 0.475779
vt 0.205443 0.475779
vt 0.205443 0.475779
vt 0.205443 0.475779
vt 0.237701 0.478468
vt 0.236805 0.482052
vt 0.236805 0.482052
vt 0.236805 0.482052
vt 0.236805 0.482052
vt 0.236805 0.482052
vt 0.236806 0.482052
vt 0.236806 0.482052
vt 0.236806 0.482052
vt 0.236261 0.475082
vt 0.237701 0.478468
vt 0.236261 0.475082
vt 0.331552 0.474689
vt 0.331552 0.474689
vt 0.325476 0.474689
vt 0.367206 0.474689
vt 0.396821 0.474689
vt 0.367206 0.474689
vt 0.331552 0.474689
vt 0.331552 0.474689
vt 0.331552 0.474689
vt 0.325476 0.474689
vt 0.367206 0.474689
vt 0.396821 0.474689
vt 0.367206 0.474689
vt 0.331552 0.474689
vt 0.367206 0.474689
vt 0.289822 0.474689
vt 0.396821 0.474689
vt 0.367206 0.474689
vt 0.367206 0.474689
vt 0.289822 0.474689
vt 0.396821 0.474689
vt 0.367206 0.474689
vt 0.367206 0.474689
vt 0.396821 0.474689
vt 0.396821 0.474689
vt 0.331552 0.474689
vt 0.367206 0.474689
vt 0.396821 0.474689
vt 0.396821 0.474689
vt 0.331552 0.474689
vt 0.289822 0.474689
vt 0.367206 0.474689
vt 0.325476 0.474689
vt 0.325476 0.474689
vt 0.289822 0.474689
vt 0.325476 0.474689
vt 0.331552 0.474689
vt 0.289822 0.474689
vt 0.289822 0.474689
vt 0.367206 0.474689
vt 0.325476 0.474689
vt 0.325476 0.474689
vt 0.289822 0.474689
vt 0.325476 0.474689
vt 0.331552 0.474689
vt 0.289822 0.474689
vt 0.331552 0.474689
vt 0.367206 0.474689
vt 0.331552 0.474689
vt 0.331552 0.474689
vt 0.331552 0.474689
vt 0.367206 0.474689
vt 0.331552 0.474689
vt 0.331552 0.474689
vt 0.331552 0.474689
vt 0.331552 0.474689
vt 0.331552 0.474689
vt 0.331552 0.474689
vt 0.296947 0.474689
vt 0.331552 0.474689
vt 0.331552 0.474689
vt 0.331552 0.474689
vt 0.296947 0.474689
vt 0.331552 0.474689
vt 0.331552 0.474689
vt 0.367206 0.474689
vt 0.331552 0.474689
vt 0.331552 0.474689
vt 0.331552 0.474689
vt 0.367206 0.474689
vt 0.331552 0.474689
vt 0.331552 0.474689
vt 0.331552 0.474689
vt 0.331552 0.474689
vt 0.331552 0.474689
vt 0.331552 0.474689
vt 0.296947 0.474689
vt 0.331552 0.474689
vt 0.331552 0.474689
vt 0.331552 0.474689
vt 0.296947 0.474689
vt 0.331552 0.474689
vt 0.331552 0.474689
vt 0.331552 0.474689
vt 0.296947 0.474689
vt 0.331552 0.474689
vt 0.296947 0.474689
vt 0.331552 0.474689
vt 0.296947 0.474689
vt 0.296947 0.474689
vt 0.296947 0.474689
vt 0.296947 0.474689
vt 0.296947 0.474689
vt 0.296947 0.474689
vt 0.296947 0.474689
vt 0.296947 0.474689
vt 0.296947 0.474689
vt 0.296947 0.474689
vt 0.296947 0.474689
vt 0.296947 0.474689
vt 0.141341 0.062974
vt 0.141341 0.062974
vt 0.168107 0.062974
vt 0.168108 0.062974
vt 0.141341 0.062974
vt 0.168108 0.062974
vt 0.141341 0.062974
vt 0.168107 0.062974
vt 0.141341 0.062974
vt 0.168108 0.062974
vt 0.141341 0.062974
vt 0.168108 0.062974
vt 0.168107 0.062974
vt 0.145803 0.062974
vt 0.145803 0.062974
vt 0.145802 0.062974
vt 0.145803 0.062974
vt 0.145803 0.062974
vt 0.141342 0.062974
vt 0.141342 0.062974
vt 0.141341 0.062974
vt 0.141341 0.062974
vt 0.141342 0.062974
vt 0.141342 0.062974
vt 0.141341 0.062974
vt 0.141341 0.062974
vt 0.141341 0.062974
vt 0.141341 0.062974
vt 0.141342 0.062974
vt 0.141342 0.062974
vt 0.141341 0.062974
vt 0.141342 0.062974
vt 0.141342 0.062974
vt 0.141341 0.062974
vt 0.141341 0.062974
vt 0.141341 0.062974
vt 0.168108 0.062974
vt 0.145802 0.062974
vt 0.168108 0.062974
vt 0.168107 0.062974
vt 0.168108 0.062974
vt 0.168108 0.062974
vn 0.472224 0.374827 -0.797815
vn 0.472224 0.374827 -0.797815
vn 0.472224 0.374827 -0.797815
vn 0.472224 0.374827 -0.797815
vn 0.929312 0.369158 0.010072
vn 0.929312 0.369158 0.010072
vn 0.929312 0.369158 0.010072
vn 0.929312 0.369158 0.010072
vn 0.455881 0.369136 0.809883
vn 0.455881 0.369136 0.809883
vn 0.455881 0.369136 0.809883
vn 0.455881 0.369136 0.809883
vn -0.472278 0.374843 0.797776
vn -0.472278 0.374843 0.797776
vn -0.472278 0.374843 0.797776
vn -0.472278 0.374843 0.797776
vn -0.924726 0.380500 -0.010083
vn -0.924726 0.380500 -0.010083
vn -0.924726 0.380500 -0.010083
vn -0.924726 0.380500 -0.010083
vn -0.453638 0.380524 -0.805862
vn -0.453638 0.380524 -0.805863
vn -0.453638 0.380524 -0.805863
vn -0.453638 0.380524 -0.805863
vn 0.000118 -1.000000 0.000060
vn 0.000118 -1.000000 0.000060
vn 0.000118 -1.000000 0.000060
vn 0.000127 -1.000000 0.000075
vn 0.000127 -1.000000 0.000075
vn 0.000127 -1.000000 0.000075
vn 0.000127 -1.000000 0.000075
vn 0.000127 -1.000000 0.000075
vn 0.000127 -1.000000 0.000075
vn 0.000110 -1.000000 0.000075
vn 0.000110 -1.000000 0.000075
vn 0.000110 -1.000000 0.000075
vn 0.000101 -1.000000 0.000060
vn 0.000101 -1.000000 0.000060
vn 0.000101 -1.000000 0.000060
vn 0.000101 -1.000000 0.000060
vn 0.000101 -1.000000 0.000060
vn 0.000101 -1.000000 0.000060
vn 0.995606 0.093015 0.010822
vn 0.995606 0.093015 0.010822
vn 0.995606 0.093015 0.010822
vn 0.995606 0.093015 0.010822
vn 0.507396 0.088302 -0.857177
vn 0.507396 0.088302 -0.857177
vn 0.507396 0.088302 -0.857177
vn 0.507396 0.088302 -0.857177
vn -0.488823 0.083522 -0.868376
vn -0.488822 0.083522 -0.868376
vn -0.488822 0.083522 -0.868376
vn -0.488823 0.083522 -0.868376
vn -0.996443 0.083566 -0.010850
vn -0.996443 0.083566 -0.010850
vn -0.996443 0.083566 -0.010850
vn -0.996443 0.083566 -0.010850
vn -0.507400 0.088297 0.857175
vn -0.507400 0.088297 0.857175
vn -0.507400 0.088297 0.857175
vn -0.507400 0.088297 0.857175
vn 0.488423 0.093032 0.867633
vn 0.488423 0.093032 0.867633
vn 0.488423 0.093032 0.867633
vn 0.488423 0.093032 0.867633
vn 0.000101 -1.000000 0.000060
vn 0.000101 -1.000000 0.000060
vn 0.000101 -1.000000 0.000060
vn 0.000101 -1.000000 0.000060
vn -0.000001 -1.000000 0.000065
vn -0.000001 -1.000000 0.000065
vn -0.000001 -1.000000 0.000065
vn -0.000001 -1.000000 0.000065
vn 0.000057 -1.000000 -0.000032
vn 0.000057 -1.000000 -0.000032
vn 0.000057 -1.000000 -0.000032
vn 0.000057 -1.000000 -0.000032
vn 0.000101 -1.000000 0.000060
vn 0.000101 -1.000000 0.000060
vn 0.000101 -1.000000 0.000060
vn 0.000101 -1.000000 0.000060
vn 0.000096 -1.000000 0.000073
vn 0.000096 -1.000000 0.000073
vn 0.000096 -1.000000 0.000073
vn 0.000096 -1.000000 0.000073
vn 0.000110 -1.000000 0.000049
vn 0.000110 -1.000000 0.000049
vn 0.000110 -1.000000 0.000049
vn 0.000110 -1.000000 0.000049
vn 0.488147 0.099015 0.867127
vn 0.488147 0.099016 0.867127
vn 0.488147 0.099016 0.867127
vn 0.488147 0.099015 0.867127
vn 0.995031 0.098973 0.010825
vn 0.995031 0.098973 0.010825
vn 0.995031 0.098973 0.010825
vn 0.995031 0.098973 0.010825
vn 0.507318 0.090236 -0.857022
vn 0.507318 0.090236 -0.857022
vn 0.507318 0.090236 -0.857021
vn 0.507318 0.090236 -0.857021
vn -0.488924 0.081483 -0.868512
vn -0.488924 0.081483 -0.868512
vn -0.488924 0.081483 -0.868512
vn -0.488924 0.081483 -0.868512
vn -0.996619 0.081447 -0.010857
vn -0.996619 0.081447 -0.010857
vn -0.996619 0.081447 -0.010857
vn -0.996619 0.081447 -0.010857
vn -0.507317 0.090274 0.857018
vn -0.507317 0.090274 0.857018
vn -0.507317 0.090274 0.857018
vn -0.507317 0.090274 0.857018
vn 0.487902 0.103645 0.866724
vn 0.487902 0.103645 0.866724
vn 0.487902 0.103645 0.866724
vn 0.487902 0.103645 0.866724
vn 0.994554 0.103658 0.010823
vn 0.994554 0.103658 0.010823
vn 0.994554 0.103658 0.010823
vn 0.994554 0.103658 0.010823
vn 0.506874 0.099364 -0.856274
vn 0.506874 0.099364 -0.856274
vn 0.506874 0.099364 -0.856274
vn 0.506874 0.099364 -0.856274
vn -0.488362 0.094973 -0.867458
vn -0.488362 0.094973 -0.867458
vn -0.488361 0.094973 -0.867458
vn -0.488362 0.094973 -0.867458
vn -0.995425 0.094929 -0.010836
vn -0.995425 0.094929 -0.010836
vn -0.995425 0.094929 -0.010836
vn -0.995425 0.094929 -0.010836
vn -0.506881 0.099292 0.856278
vn -0.506881 0.099292 0.856278
vn -0.506881 0.099292 0.856278
vn -0.506881 0.099292 0.856278
vn 0.828799 -0.559474 0.009035
vn 0.828799 -0.559474 0.009035
vn 0.828799 -0.559474 0.009035
vn 0.828799 -0.559474 0.009035
vn 0.406598 -0.559461 0.722275
vn 0.406599 -0.559461 0.722275
vn 0.406599 -0.559461 0.722275
vn 0.406599 -0.559461 0.722275
vn -0.422748 -0.557661 0.714352
vn -0.422748 -0.557661 0.714352
vn -0.422748 -0.557661 0.714352
vn -0.422748 -0.557661 0.714352
vn -0.831233 -0.555850 -0.009054
vn -0.831233 -0.555850 -0.009054
vn -0.831233 -0.555850 -0.009054
vn -0.831233 -0.555850 -0.009054
vn -0.407754 -0.555853 -0.724406
vn -0.407754 -0.555853 -0.724406
vn -0.407754 -0.555853 -0.724406
vn -0.407754 -0.555853 -0.724406
vn 0.422870 -0.557672 -0.714271
vn 0.422870 -0.557672 -0.714271
vn 0.422870 -0.557672 -0.714271
vn 0.422870 -0.557672 -0.714271
vn 0.509366 0.000000 -0.860550
vn 0.509366 0.000000 -0.860550
vn 0.509366 0.000000 -0.860550
vn 0.509366 0.000000 -0.860550
vn 0.999941 0.000000 0.010895
vn 0.999941 0.000000 0.010895
vn 0.999941 0.000000 0.010895
vn 0.999941 0.000000 0.010895
vn 0.490540 0.000000 0.871419
vn 0.490540 0.000000 0.871419
vn 0.490540 0.000000 0.871419
vn 0.490540 0.000000 0.871419
vn -0.509365 0.000000 0.860551
vn -0.509365 0.000000 0.860551
vn -0.509365 0.000000 0.860551
vn -0.509365 0.000000 0.860551
vn -0.999941 0.000000 -0.010872
vn -0.999941 0.000000 -0.010872
vn -0.999941 0.000000 -0.010872
vn -0.999941 0.000000 -0.010872
vn -0.490538 0.000000 -0.871420
vn -0.490538 0.000000 -0.871420
vn -0.490538 0.000000 -0.871420
vn -0.490538 0.000000 -0.871420
vn 0.999941 -0.000018 0.010902
vn 0.999941 -0.000018 0.010902
vn 0.999941 -0.000018 0.010902
vn 0.999941 -0.000018 0.010902
vn 0.999941 0.000000 0.010914
vn 0.999940 0.000000 0.010914
vn 0.999941 0.000000 0.010914
vn 0.999940 0.000000 0.010914
vn 0.999941 0.000019 0.010902
vn 0.999941 0.000019 0.010902
vn 0.999941 0.000019 0.010902
vn 0.999941 0.000019 0.010902
vn 0.999940 0.000000 0.010921
vn 0.999940 0.000000 0.010921
vn 0.999940 0.000000 0.010921
vn 0.999940 0.000000 0.010921
vn -0.999941 0.000019 -0.010902
vn -0.999941 0.000019 -0.010902
vn -0.999941 0.000019 -0.010902
vn -0.999941 0.000019 -0.010902
vn -0.999940 0.000000 -0.010921
vn -0.999940 0.000000 -0.010921
vn -0.999940 0.000000 -0.010921
vn -0.999940 0.000000 -0.010921
vn -0.999941 -0.000020 -0.010902
vn -0.999941 -0.000020 -0.010902
vn -0.999941 -0.000020 -0.010902
vn -0.999941 -0.000020 -0.010902
vn -0.999940 0.000000 -0.010914
vn -0.999940 0.000000 -0.010914
vn -0.999940 0.000000 -0.010914
vn -0.999940 0.000000 -0.010914
vn 0.138075 -0.990421 0.001525
vn 0.138075 -0.990421 0.001525
vn 0.138075 -0.990421 0.001525
vn 0.138075 -0.990421 0.001525
vn 0.204260 0.000000 -0.978917
vn 0.204260 0.000000 -0.978917
vn 0.204260 0.000000 -0.978917
vn 0.204260 0.000000 -0.978917
vn 0.138066 0.990422 0.001418
vn 0.138066 0.990422 0.001418
vn 0.138066 0.990422 0.001418
vn 0.138066 0.990422 0.001418
vn 0.182889 0.000000 0.983133
vn 0.182889 0.000000 0.983134
vn 0.182889 0.000000 0.983133
vn 0.182889 0.000000 0.983133
vn -0.138077 -0.990421 -0.001393
vn -0.138077 -0.990421 -0.001393
vn -0.138077 -0.990421 -0.001393
vn -0.138077 -0.990421 -0.001393
vn -0.204271 0.000000 0.978914
vn -0.204271 0.000000 0.978914
vn -0.204270 0.000000 0.978914
vn -0.204271 0.000000 0.978914
vn -0.138064 0.990422 -0.001589
vn -0.138064 0.990422 -0.001589
vn -0.138064 0.990422 -0.001589
vn -0.138064 0.990422 -0.001589
vn -0.182878 0.000000 -0.983136
vn -0.182878 0.000000 -0.983136
vn -0.182878 0.000000 -0.983136
vn -0.182878 0.000000 -0.983136
vn 0.209505 -0.911570 -0.353763
vn 0.209505 -0.911570 -0.353763
vn 0.209505 -0.911570 -0.353763
vn 0.209505 -0.911570 -0.353763
vn 0.411182 -0.911542 0.004517
vn 0.411182 -0.911542 0.004517
vn 0.411182 -0.911542 0.004517
vn 0.411182 -0.911542 0.004517
vn 0.201743 -0.911540 0.358321
vn 0.201743 -0.911540 0.358321
vn 0.201743 -0.911540 0.358321
vn 0.201743 -0.911540 0.358321
vn -0.209343 -0.911570 0.353860
vn -0.209343 -0.911569 0.353860
vn -0.209343 -0.911569 0.353860
vn -0.209343 -0.911569 0.353860
vn -0.411059 -0.911598 -0.004445
vn -0.411059 -0.911598 -0.004445
vn -0.411059 -0.911598 -0.004445
vn -0.411059 -0.911598 -0.004445
vn -0.201619 -0.911596 -0.358248
vn -0.201619 -0.911596 -0.358248
vn -0.201619 -0.911596 -0.358248
vn -0.201619 -0.911596 -0.358248
vn 0.509366 0.000000 -0.860550
vn 0.509366 0.000000 -0.860550
vn 0.509366 0.000000 -0.860550
vn 0.509366 0.000000 -0.860550
vn 0.999941 0.000000 0.010908
vn 0.999941 0.000000 0.010908
vn 0.999941 0.000000 0.010908
vn 0.999941 0.000000 0.010908
vn 0.490539 0.000000 0.871419
vn 0.490539 0.000000 0.871419
vn 0.490539 0.000000 0.871419
vn 0.490539 0.000000 0.871419
vn -0.509366 0.000000 0.860550
vn -0.509366 0.000000 0.860550
vn -0.509366 0.000000 0.860550
vn -0.509366 0.000000 0.860550
vn -0.999941 0.000000 -0.010908
vn -0.999941 0.000000 -0.010908
vn -0.999941 0.000000 -0.010908
vn -0.999941 0.000000 -0.010908
vn -0.490539 0.000000 -0.871419
vn -0.490539 0.000000 -0.871419
vn -0.490539 0.000000 -0.871419
vn -0.490539 0.000000 -0.871419
vn -0.000081 1.000000 -0.000048
vn -0.000081 1.000000 -0.000048
vn -0.000081 1.000000 -0.000048
vn -0.000081 1.000000 -0.000048
vn -0.000081 1.000000 -0.000048
vn -0.000081 1.000000 -0.000048
s off
f 43/149/1 38/139/2 14/3/3 15/4/4
f 38/140/5 39/141/6 13/7/7 14/8/8
f 39/142/9 40/143/10 18/11/11 13/12/12
f 40/144/13 41/145/14 17/15/15 18/16/16
f 41/146/17 42/147/18 16/19/19 17/20/20
f 42/148/21 43/150/22 15/23/23 16/24/24
f 19/25/25 20/26/26 21/27/27
f 20/28/28 22/29/29 21/30/30
f 22/31/31 23/32/32 21/33/33
f 23/34/34 24/35/35 21/36/36
f 24/37/37 25/38/38 21/39/39
f 25/40/40 19/41/41 21/42/42
f 14/43/43 13/44/44 27/45/45 28/46/46
f 15/47/47 14/48/48 28/49/49 29/50/50
f 16/51/51 15/52/52 29/53/53 30/54/54
f 17/55/55 16/56/56 30/57/57 31/58/58
f 18/59/59 17/60/60 31/61/61 26/62/62
f 13/63/63 18/64/64 26/65/65 27/66/66
f 7/67/67 8/68/68 20/69/69 19/70/70
f 8/71/71 9/72/72 22/73/73 20/74/74
f 9/75/75 10/76/76 23/77/77 22/78/78
f 10/79/79 11/80/80 24/81/81 23/82/82
f 11/83/83 12/84/84 25/85/85 24/86/86
f 12/87/87 7/88/88 19/89/89 25/90/90
f 27/91/91 26/92/92 32/93/93 33/94/94
f 28/95/95 27/96/96 33/97/97 34/98/98
f 29/99/99 28/100/100 34/101/101 35/102/102
f 30/103/103 29/104/104 35/105/105 36/106/106
f 31/107/107 30/108/108 36/109/109 37/110/110
f 26/111/111 31/112/112 37/113/113 32/114/114
f 33/115/115 32/116/116 10/117/117 9/118/118
f 34/119/119 33/120/120 9/121/121 8/122/122
f 35/123/123 34/124/124 8/125/125 7/126/126
f 36/127/127 35/128/128 7/129/129 12/130/130
f 37/131/131 36/132/132 12/133/133 11/134/134
f 32/135/135 37/136/136 11/137/137 10/138/138
f 2/250/139 3/227/140 39/244/141 38/6/142
f 3/249/143 4/235/144 40/243/145 39/5/146
f 4/248/147 5/213/148 41/242/149 40/10/150
f 5/247/151 6/209/152 42/241/153 41/14/154
f 6/246/155 1/237/156 43/239/157 42/18/158
f 1/245/159 2/231/160 38/240/161 43/22/162
f 2/230/163 1/238/164 44/233/165 45/152/166
f 59/153/167 58/194/168 60/192/169 61/191/170
f 4/9/171 3/228/172 46/222/173 47/158/174
f 5/212/175 4/236/176 47/234/177 48/159/178
f 63/160/179 62/186/180 64/184/181 65/183/182
f 1/21/183 6/210/184 49/204/185 44/151/186
f 3/2/187 2/232/188 50/224/189 51/195/190
f 2/1/191 45/225/192 52/219/193 50/223/194
f 45/226/195 46/157/196 53/218/197 52/180/198
f 46/221/199 3/229/200 51/215/201 53/217/202
f 6/17/203 5/214/204 54/206/205 55/187/206
f 5/13/207 48/207/208 56/201/209 54/205/210
f 48/208/211 49/164/212 57/200/213 56/176/214
f 49/203/215 6/211/216 55/197/217 57/199/218
f 51/166/219 50/196/220 58/193/221 59/189/222
f 50/165/223 52/220/224 60/177/225 58/154/226
f 52/167/227 53/179/228 61/178/229 60/155/230
f 53/168/231 51/216/232 59/190/233 61/156/234
f 55/170/235 54/188/236 62/185/237 63/181/238
f 54/169/239 56/202/240 64/173/241 62/161/242
f 56/171/243 57/175/244 65/174/245 64/162/246
f 57/172/247 55/198/248 63/182/249 65/163/250
f 45/251/251 44/286/252 66/272/253 67/282/254
f 46/255/255 45/285/256 67/283/257 68/279/258
f 47/257/259 46/284/260 68/280/261 69/276/262
f 48/259/263 47/281/264 69/277/265 70/273/266
f 49/261/267 48/278/268 70/274/269 71/269/270
f 44/252/271 49/275/272 71/270/273 66/271/274
f 67/254/275 66/253/276 72/263/277 73/292/278
f 68/256/279 67/254/280 73/292/281 74/291/282
f 69/258/283 68/256/284 74/291/285 75/290/286
f 70/260/287 69/258/288 75/290/289 76/289/290
f 71/262/291 70/260/292 76/289/293 77/287/294
f 66/253/295 71/262/296 77/287/297 72/263/298
f 73/264/299 72/288/300 77/268/301 76/267/302 75/266/303 74/265/304
